<?xml version="1.0" encoding="utf-8" standalone="no"?>
<!DOCTYPE svg PUBLIC "-//W3C//DTD SVG 1.1//EN"
  "http://www.w3.org/Graphics/SVG/1.1/DTD/svg11.dtd">
<svg xmlns:xlink="http://www.w3.org/1999/xlink" width="648pt" height="259.2pt" viewBox="0 0 648 259.2" xmlns="http://www.w3.org/2000/svg" version="1.1">
 <metadata>
  <rdf:RDF xmlns:dc="http://purl.org/dc/elements/1.1/" xmlns:cc="http://creativecommons.org/ns#" xmlns:rdf="http://www.w3.org/1999/02/22-rdf-syntax-ns#">
   <cc:Work>
    <dc:type rdf:resource="http://purl.org/dc/dcmitype/StillImage"/>
    <dc:format>image/svg+xml</dc:format>
    <dc:creator>
     <cc:Agent>
      <dc:title>Matplotlib v3.9.4, https://matplotlib.org/</dc:title>
     </cc:Agent>
    </dc:creator>
   </cc:Work>
  </rdf:RDF>
 </metadata>
 <defs>
  <style type="text/css">*{stroke-linejoin: round; stroke-linecap: butt}</style>
 </defs>
 <g id="figure_1">
  <g id="patch_1">
   <path d="M 0 259.2 
L 648 259.2 
L 648 0 
L 0 0 
z
" style="fill: #ffffff"/>
  </g>
  <g id="axes_1">
   <g id="patch_2">
    <path d="M 33.169231 233.646154 
L 637.2 233.646154 
L 637.2 25.107692 
L 33.169231 25.107692 
z
" style="fill: #ffffff"/>
   </g>
   <g id="PolyCollection_1">
    <defs>
     <path id="ma60d1edddc" d="M 60.625175 -35.032867 
L 60.625175 -37.158544 
L 61.38258 -36.191089 
L 62.139986 -37.410628 
L 62.897391 -36.599873 
L 63.654796 -35.761865 
L 65.927012 -35.264511 
L 66.684418 -35.605165 
L 67.441823 -35.434838 
L 68.199228 -36.811078 
L 68.956634 -37.219862 
L 71.22885 -37.308432 
L 71.986255 -38.03743 
L 72.74366 -38.078308 
L 73.501066 -39.175212 
L 74.258471 -39.229717 
L 76.530687 -40.163107 
L 77.288093 -40.306181 
L 78.045498 -43.085913 
L 78.802903 -42.499989 
L 79.560309 -43.337997 
L 81.832525 -42.493176 
L 82.58993 -42.608998 
L 83.347335 -41.736926 
L 84.104741 -42.486363 
L 84.862146 -42.288784 
L 87.891768 -40.054098 
L 88.649173 -39.829267 
L 89.406578 -36.66119 
L 90.163984 -35.114624 
L 92.4362 -35.032867 
L 93.193605 -35.468903 
L 93.95101 -36.66119 
L 94.708416 -37.424254 
L 95.465821 -37.928421 
L 97.738037 -37.417441 
L 98.495442 -37.063161 
L 99.252848 -36.933713 
L 100.010253 -38.248635 
L 100.767659 -38.384896 
L 103.039875 -38.800494 
L 103.79728 -38.861811 
L 104.554685 -38.820933 
L 105.312091 -39.781575 
L 106.069496 -39.931463 
L 108.341712 -39.488613 
L 109.099117 -38.916316 
L 109.856523 -39.23653 
L 110.613928 -39.549931 
L 111.371333 -40.694526 
L 113.64355 -40.674087 
L 114.400955 -41.471216 
L 115.15836 -42.465924 
L 115.915766 -43.876229 
L 116.673171 -44.571162 
L 118.945387 -44.496218 
L 119.702792 -43.290305 
L 120.460198 -43.705902 
L 121.217603 -44.128312 
L 121.975008 -43.92392 
L 124.247224 -45.708944 
L 125.00463 -45.552244 
L 125.762035 -44.847091 
L 126.519441 -45.082142 
L 127.276846 -45.197964 
L 129.549062 -45.852019 
L 130.306467 -46.914857 
L 131.063873 -45.845205 
L 131.821278 -44.18963 
L 132.578683 -46.049597 
L 134.850899 -45.804327 
L 135.608305 -47.017053 
L 136.36571 -48.72032 
L 137.123116 -50.539409 
L 137.880521 -51.20709 
L 140.152737 -50.171503 
L 140.910142 -50.151064 
L 141.667548 -49.755906 
L 142.424953 -47.051118 
L 143.182358 -45.593122 
L 145.454574 -46.16542 
L 146.21198 -48.440984 
L 146.969385 -47.780117 
L 147.72679 -50.035242 
L 148.484196 -49.735467 
L 150.756412 -50.573474 
L 151.513817 -50.300952 
L 152.271223 -49.646897 
L 153.786033 -51.861144 
L 156.058249 -51.070828 
L 156.815655 -66.66594 
L 157.57306 -65.521345 
L 158.330465 -66.468361 
L 159.087871 -69.077766 
L 161.360087 -64.172357 
L 162.117492 -63.647751 
L 162.874898 -65.827933 
L 163.632303 -65.119374 
L 164.389708 -70.249614 
L 166.661924 -71.135312 
L 167.41933 -66.080016 
L 168.176735 -63.784012 
L 168.93414 -64.17917 
L 169.691546 -65.180691 
L 171.963762 -65.460027 
L 172.721167 -67.027033 
L 174.235978 -67.572078 
L 174.993383 -65.712111 
L 177.265599 -65.923316 
L 178.023005 -64.294993 
L 179.537815 -66.829454 
L 180.295221 -67.824162 
L 182.567437 -70.719715 
L 183.324842 -69.793138 
L 184.082247 -68.253385 
L 185.597058 -68.784804 
L 187.869274 -65.541784 
L 188.62668 -65.780241 
L 189.384085 -69.929399 
L 190.14149 -70.011156 
L 190.898896 -73.022532 
L 193.928517 -74.044492 
L 194.685922 -76.756093 
L 195.443328 -75.856768 
L 196.200733 -73.32912 
L 198.472949 -56.385021 
L 199.230354 -58.122353 
L 199.98776 -58.55839 
L 200.745165 -62.516782 
L 201.502571 -66.209465 
L 203.774787 -67.429004 
L 204.532192 -70.454006 
L 205.289597 -72.72957 
L 206.047003 -72.763636 
L 206.804408 -71.155752 
L 209.076624 -71.01949 
L 209.834029 -68.62129 
L 210.591435 -67.115603 
L 211.34884 -66.522866 
L 212.106245 -66.672753 
L 215.135867 -69.765886 
L 215.893272 -67.394938 
L 216.650678 -67.067911 
L 217.408083 -64.002031 
L 219.680299 -59.536065 
L 220.437704 -57.318411 
L 221.19511 -60.261657 
L 221.952515 -54.341101 
L 222.70992 -56.098872 
L 224.982136 -52.855852 
L 225.739542 -55.512948 
L 226.496947 -50.34183 
L 227.254353 -47.166941 
L 228.011758 -48.277471 
L 230.283974 -45.381917 
L 231.041379 -48.045826 
L 231.798785 -50.886875 
L 232.55619 -49.129104 
L 233.313595 -51.990592 
L 235.585811 -50.539409 
L 236.343217 -48.529554 
L 237.100622 -50.369082 
L 237.858027 -50.178316 
L 238.615433 -50.07612 
L 240.887649 -52.930796 
L 241.645054 -52.011032 
L 242.40246 -49.129104 
L 243.159865 -47.412211 
L 243.91727 -46.104102 
L 246.189486 -45.865645 
L 246.946892 -46.928483 
L 247.704297 -47.827808 
L 248.461702 -43.808098 
L 249.219108 -41.19188 
L 251.491324 -42.970091 
L 252.248729 -42.554494 
L 253.006135 -47.984509 
L 253.76354 -44.557536 
L 254.520945 -44.884563 
L 256.793161 -45.143459 
L 257.550567 -45.197964 
L 258.307972 -44.203256 
L 259.065377 -43.460632 
L 262.094999 -42.254719 
L 262.852404 -43.726341 
L 263.60981 -46.090476 
L 264.367215 -47.384959 
L 265.12462 -48.263844 
L 267.396836 -47.827808 
L 268.154242 -47.94363 
L 268.911647 -47.834621 
L 269.669052 -49.531075 
L 270.426458 -51.384229 
L 272.698674 -51.677191 
L 273.456079 -50.982258 
L 274.213484 -51.500052 
L 274.97089 -53.51672 
L 275.728295 -53.114749 
L 278.000511 -56.132938 
L 278.757917 -58.749156 
L 279.515322 -59.239696 
L 280.272727 -59.096622 
L 281.030133 -59.471341 
L 283.302349 -60.718132 
L 284.059754 -60.820328 
L 284.817159 -59.689359 
L 285.574565 -59.91419 
L 286.33197 -60.595497 
L 289.361592 -61.86954 
L 290.118997 -61.229112 
L 290.876402 -61.992176 
L 291.633808 -60.036825 
L 293.906024 -61.188234 
L 294.663429 -67.503947 
L 295.420834 -70.59708 
L 296.17824 -68.239759 
L 296.935645 -68.212506 
L 299.207861 -66.938463 
L 299.965266 -65.194317 
L 300.722672 -67.313182 
L 301.480077 -69.15271 
L 302.237483 -68.573599 
L 304.509699 -72.443421 
L 305.267104 -72.811327 
L 306.024509 -76.817411 
L 307.53932 -76.762906 
L 309.811536 -76.122478 
L 310.568941 -81.130083 
L 311.326347 -81.320849 
L 312.083752 -83.262573 
L 312.841157 -82.199734 
L 315.113374 -81.586558 
L 315.870779 -78.180024 
L 316.628184 -79.39275 
L 317.38559 -82.281491 
L 320.415211 -81.681941 
L 321.172616 -82.111164 
L 321.930022 -84.993092 
L 322.687427 -84.7887 
L 323.444832 -85.626707 
L 325.717048 -85.749342 
L 326.474454 -88.399626 
L 327.231859 -87.445796 
L 327.989265 -85.579016 
L 328.74667 -82.186108 
L 331.018886 -83.732674 
L 331.776291 -81.818202 
L 332.533697 -85.551764 
L 333.291102 -87.43217 
L 334.048507 -87.466236 
L 336.320723 -92.05143 
L 337.078129 -93.025699 
L 337.835534 -97.542763 
L 338.592939 -94.504134 
L 339.350345 -91.78572 
L 341.622561 -96.650251 
L 342.379966 -93.645688 
L 343.137372 -98.448901 
L 343.894777 -100.111289 
L 344.652182 -100.540512 
L 346.924398 -99.286908 
L 347.681804 -103.926607 
L 348.439209 -101.031053 
L 349.196614 -98.442087 
L 349.95402 -98.040116 
L 352.226236 -99.40273 
L 352.983641 -90.927274 
L 353.741047 -90.716069 
L 354.498452 -94.034033 
L 355.255857 -96.200588 
L 357.528073 -97.133978 
L 358.285479 -100.329307 
L 359.042884 -102.121144 
L 359.800289 -108.314222 
L 360.557695 -102.342569 
L 363.587316 -103.170356 
L 364.344721 -103.51101 
L 365.102127 -109.799471 
L 365.859532 -114.445983 
L 368.131748 -119.017552 
L 368.889154 -120.039512 
L 369.646559 -130.211422 
L 370.403964 -127.050158 
L 371.16137 -128.869247 
L 373.433586 -130.225048 
L 374.190991 -130.524823 
L 374.948396 -130.538449 
L 375.705802 -135.900333 
L 376.463207 -134.02674 
L 378.735423 -130.306805 
L 379.492829 -129.0532 
L 380.250234 -120.277969 
L 381.007639 -117.252967 
L 381.765045 -115.883541 
L 384.037261 -117.981965 
L 384.794666 -117.709443 
L 385.552071 -117.232528 
L 386.309477 -120.448296 
L 387.066882 -116.523969 
L 389.339098 -118.942608 
L 390.096503 -111.979653 
L 390.853909 -119.930503 
L 391.611314 -121.483882 
L 392.36872 -113.090183 
L 394.640936 -120.632249 
L 395.398341 -106.903917 
L 396.155746 -108.034887 
L 396.913152 -111.523177 
L 397.670557 -116.346829 
L 399.942773 -121.831349 
L 400.700178 -116.728361 
L 401.457584 -111.979653 
L 402.214989 -121.361247 
L 402.972395 -124.481632 
L 405.244611 -124.079661 
L 406.002016 -128.998696 
L 406.759421 -135.362101 
L 407.516827 -132.023698 
L 408.274232 -146.33114 
L 410.546448 -141.575619 
L 411.303853 -130.395375 
L 412.061259 -136.479444 
L 412.818664 -129.380228 
L 413.576069 -129.972964 
L 415.848286 -134.435524 
L 416.605691 -126.491487 
L 417.363096 -127.745091 
L 418.120502 -115.897167 
L 418.877907 -117.648125 
L 421.150123 -117.689003 
L 421.907528 -113.587537 
L 422.664934 -115.168168 
L 423.422339 -110.296825 
L 424.179744 -109.452005 
L 426.45196 -121.27949 
L 427.209366 -123.548242 
L 427.966771 -130.245487 
L 429.481582 -139.504446 
L 431.753798 -135.096391 
L 432.511203 -146.889811 
L 433.268609 -147.400791 
L 434.026014 -141.766384 
L 434.783419 -138.441607 
L 437.055635 -140.417397 
L 437.813041 -134.524094 
L 438.570446 -126.137207 
L 439.327851 -123.745821 
L 440.085257 -116.551221 
L 442.357473 -115.263551 
L 443.114878 -114.118956 
L 443.872284 -109.888041 
L 444.629689 -112.913043 
L 445.387094 -120.788949 
L 447.65931 -120.659501 
L 448.416716 -119.208318 
L 449.174121 -120.829828 
L 450.688932 -117.178023 
L 452.961148 -117.089454 
L 453.718553 -117.239341 
L 454.475959 -116.537595 
L 455.990769 -116.08112 
L 458.262985 -114.050825 
L 459.020391 -109.084099 
L 459.777796 -114.568619 
L 460.535201 -114.97059 
L 461.292607 -120.986528 
L 463.564823 -124.835911 
L 464.322228 -128.45365 
L 465.079633 -125.360518 
L 465.837039 -120.100829 
L 466.594444 -121.361247 
L 469.624066 -122.894187 
L 470.381471 -113.315014 
L 471.138876 -110.548909 
L 471.896282 -109.227174 
L 474.168498 -105.725257 
L 474.925903 -106.781282 
L 475.683308 -106.8426 
L 476.440714 -106.713152 
L 477.198119 -103.858476 
L 479.470335 -100.233924 
L 480.227741 -94.340621 
L 480.985146 -84.557056 
L 481.742551 -85.313306 
L 482.499957 -94.401938 
L 484.772173 -102.584433 
L 485.529578 -110.290012 
L 486.286983 -105.984153 
L 487.044389 -101.473903 
L 487.801794 -101.242258 
L 490.831415 -103.531449 
L 491.588821 -105.650313 
L 492.346226 -107.523907 
L 493.103632 -103.027282 
L 495.375848 -103.020469 
L 496.133253 -100.826661 
L 496.890658 -102.618498 
L 497.648064 -96.500363 
L 498.405469 -94.994675 
L 500.677685 -96.323223 
L 501.43509 -84.795513 
L 502.192496 -88.36556 
L 502.949901 -96.677503 
L 503.707306 -93.332287 
L 505.979523 -97.522323 
L 506.736928 -95.035554 
L 507.494333 -97.474632 
L 508.251739 -94.517761 
L 509.009144 -98.687358 
L 511.28136 -98.135499 
L 512.038765 -89.401147 
L 512.796171 -87.806889 
L 513.553576 -91.465506 
L 514.310981 -88.951484 
L 516.583197 -90.109706 
L 517.340603 -86.839433 
L 518.098008 -89.298951 
L 518.855414 -84.209589 
L 519.612819 -83.392021 
L 521.885035 -78.329912 
L 522.64244 -82.458631 
L 523.399846 -83.85531 
L 524.157251 -87.622936 
L 527.186872 -88.311056 
L 527.944278 -91.261114 
L 528.701683 -93.591183 
L 529.459088 -92.037804 
L 530.216494 -99.981841 
L 532.48871 -110.044742 
L 533.246115 -127.18642 
L 534.003521 -133.202358 
L 534.760926 -126.784449 
L 535.518331 -127.983549 
L 537.790547 -137.412834 
L 538.547953 -143.401521 
L 539.305358 -147.605183 
L 540.062763 -144.914022 
L 540.820169 -151.386436 
L 543.092385 -141.480236 
L 543.84979 -131.546783 
L 544.607196 -138.257655 
L 545.364601 -137.058555 
L 546.122006 -144.123706 
L 548.394222 -141.180461 
L 549.151628 -150.384915 
L 549.909033 -153.600683 
L 550.666438 -146.787615 
L 551.423844 -146.934096 
L 553.69606 -161.728673 
L 554.453465 -153.791449 
L 555.210871 -147.516614 
L 555.968276 -144.232715 
L 556.725681 -135.80495 
L 558.997897 -124.972173 
L 559.755303 -133.638395 
L 560.512708 -143.169876 
L 561.270113 -150.26228 
L 562.027519 -167.308575 
L 565.05714 -169.509196 
L 565.814545 -169.22986 
L 566.571951 -169.992924 
L 567.329356 -179.3132 
L 569.601572 -172.547824 
L 570.358978 -174.523614 
L 571.116383 -164.712796 
L 571.873788 -166.688586 
L 572.631194 -159.459921 
L 574.90341 -169.938419 
L 575.660815 -178.148166 
L 576.41822 -180.437356 
L 577.175626 -198.887143 
L 577.933031 -189.382914 
L 580.205247 -195.242152 
L 580.962653 -181.459316 
L 581.720058 -188.37458 
L 582.477463 -203.703982 
L 585.507085 -224.613287 
L 586.26449 -203.823211 
L 587.021895 -201.769071 
L 587.779301 -201.115016 
L 588.536706 -180.655374 
L 590.808922 -185.88781 
L 591.566327 -203.785739 
L 592.323733 -195.024134 
L 593.081138 -183.319284 
L 596.11076 -199.425376 
L 596.868165 -186.378351 
L 597.62557 -194.751611 
L 598.382976 -199.493506 
L 599.140381 -194.138435 
L 601.412597 -179.892311 
L 602.170002 -179.415396 
L 602.927408 -172.98386 
L 603.684813 -160.195732 
L 604.442218 -156.59162 
L 606.714435 -162.98909 
L 607.47184 -171.02851 
L 608.229245 -174.02626 
L 608.986651 -179.633414 
L 609.744056 -163.724901 
L 609.744056 -35.032867 
L 609.744056 -35.032867 
L 608.986651 -35.032867 
L 608.229245 -35.032867 
L 607.47184 -35.032867 
L 606.714435 -35.032867 
L 604.442218 -35.032867 
L 603.684813 -35.032867 
L 602.927408 -35.032867 
L 602.170002 -35.032867 
L 601.412597 -35.032867 
L 599.140381 -35.032867 
L 598.382976 -35.032867 
L 597.62557 -35.032867 
L 596.868165 -35.032867 
L 596.11076 -35.032867 
L 593.081138 -35.032867 
L 592.323733 -35.032867 
L 591.566327 -35.032867 
L 590.808922 -35.032867 
L 588.536706 -35.032867 
L 587.779301 -35.032867 
L 587.021895 -35.032867 
L 586.26449 -35.032867 
L 585.507085 -35.032867 
L 582.477463 -35.032867 
L 581.720058 -35.032867 
L 580.962653 -35.032867 
L 580.205247 -35.032867 
L 577.933031 -35.032867 
L 577.175626 -35.032867 
L 576.41822 -35.032867 
L 575.660815 -35.032867 
L 574.90341 -35.032867 
L 572.631194 -35.032867 
L 571.873788 -35.032867 
L 571.116383 -35.032867 
L 570.358978 -35.032867 
L 569.601572 -35.032867 
L 567.329356 -35.032867 
L 566.571951 -35.032867 
L 565.814545 -35.032867 
L 565.05714 -35.032867 
L 562.027519 -35.032867 
L 561.270113 -35.032867 
L 560.512708 -35.032867 
L 559.755303 -35.032867 
L 558.997897 -35.032867 
L 556.725681 -35.032867 
L 555.968276 -35.032867 
L 555.210871 -35.032867 
L 554.453465 -35.032867 
L 553.69606 -35.032867 
L 551.423844 -35.032867 
L 550.666438 -35.032867 
L 549.909033 -35.032867 
L 549.151628 -35.032867 
L 548.394222 -35.032867 
L 546.122006 -35.032867 
L 545.364601 -35.032867 
L 544.607196 -35.032867 
L 543.84979 -35.032867 
L 543.092385 -35.032867 
L 540.820169 -35.032867 
L 540.062763 -35.032867 
L 539.305358 -35.032867 
L 538.547953 -35.032867 
L 537.790547 -35.032867 
L 535.518331 -35.032867 
L 534.760926 -35.032867 
L 534.003521 -35.032867 
L 533.246115 -35.032867 
L 532.48871 -35.032867 
L 530.216494 -35.032867 
L 529.459088 -35.032867 
L 528.701683 -35.032867 
L 527.944278 -35.032867 
L 527.186872 -35.032867 
L 524.157251 -35.032867 
L 523.399846 -35.032867 
L 522.64244 -35.032867 
L 521.885035 -35.032867 
L 519.612819 -35.032867 
L 518.855414 -35.032867 
L 518.098008 -35.032867 
L 517.340603 -35.032867 
L 516.583197 -35.032867 
L 514.310981 -35.032867 
L 513.553576 -35.032867 
L 512.796171 -35.032867 
L 512.038765 -35.032867 
L 511.28136 -35.032867 
L 509.009144 -35.032867 
L 508.251739 -35.032867 
L 507.494333 -35.032867 
L 506.736928 -35.032867 
L 505.979523 -35.032867 
L 503.707306 -35.032867 
L 502.949901 -35.032867 
L 502.192496 -35.032867 
L 501.43509 -35.032867 
L 500.677685 -35.032867 
L 498.405469 -35.032867 
L 497.648064 -35.032867 
L 496.890658 -35.032867 
L 496.133253 -35.032867 
L 495.375848 -35.032867 
L 493.103632 -35.032867 
L 492.346226 -35.032867 
L 491.588821 -35.032867 
L 490.831415 -35.032867 
L 487.801794 -35.032867 
L 487.044389 -35.032867 
L 486.286983 -35.032867 
L 485.529578 -35.032867 
L 484.772173 -35.032867 
L 482.499957 -35.032867 
L 481.742551 -35.032867 
L 480.985146 -35.032867 
L 480.227741 -35.032867 
L 479.470335 -35.032867 
L 477.198119 -35.032867 
L 476.440714 -35.032867 
L 475.683308 -35.032867 
L 474.925903 -35.032867 
L 474.168498 -35.032867 
L 471.896282 -35.032867 
L 471.138876 -35.032867 
L 470.381471 -35.032867 
L 469.624066 -35.032867 
L 466.594444 -35.032867 
L 465.837039 -35.032867 
L 465.079633 -35.032867 
L 464.322228 -35.032867 
L 463.564823 -35.032867 
L 461.292607 -35.032867 
L 460.535201 -35.032867 
L 459.777796 -35.032867 
L 459.020391 -35.032867 
L 458.262985 -35.032867 
L 455.990769 -35.032867 
L 454.475959 -35.032867 
L 453.718553 -35.032867 
L 452.961148 -35.032867 
L 450.688932 -35.032867 
L 449.174121 -35.032867 
L 448.416716 -35.032867 
L 447.65931 -35.032867 
L 445.387094 -35.032867 
L 444.629689 -35.032867 
L 443.872284 -35.032867 
L 443.114878 -35.032867 
L 442.357473 -35.032867 
L 440.085257 -35.032867 
L 439.327851 -35.032867 
L 438.570446 -35.032867 
L 437.813041 -35.032867 
L 437.055635 -35.032867 
L 434.783419 -35.032867 
L 434.026014 -35.032867 
L 433.268609 -35.032867 
L 432.511203 -35.032867 
L 431.753798 -35.032867 
L 429.481582 -35.032867 
L 427.966771 -35.032867 
L 427.209366 -35.032867 
L 426.45196 -35.032867 
L 424.179744 -35.032867 
L 423.422339 -35.032867 
L 422.664934 -35.032867 
L 421.907528 -35.032867 
L 421.150123 -35.032867 
L 418.877907 -35.032867 
L 418.120502 -35.032867 
L 417.363096 -35.032867 
L 416.605691 -35.032867 
L 415.848286 -35.032867 
L 413.576069 -35.032867 
L 412.818664 -35.032867 
L 412.061259 -35.032867 
L 411.303853 -35.032867 
L 410.546448 -35.032867 
L 408.274232 -35.032867 
L 407.516827 -35.032867 
L 406.759421 -35.032867 
L 406.002016 -35.032867 
L 405.244611 -35.032867 
L 402.972395 -35.032867 
L 402.214989 -35.032867 
L 401.457584 -35.032867 
L 400.700178 -35.032867 
L 399.942773 -35.032867 
L 397.670557 -35.032867 
L 396.913152 -35.032867 
L 396.155746 -35.032867 
L 395.398341 -35.032867 
L 394.640936 -35.032867 
L 392.36872 -35.032867 
L 391.611314 -35.032867 
L 390.853909 -35.032867 
L 390.096503 -35.032867 
L 389.339098 -35.032867 
L 387.066882 -35.032867 
L 386.309477 -35.032867 
L 385.552071 -35.032867 
L 384.794666 -35.032867 
L 384.037261 -35.032867 
L 381.765045 -35.032867 
L 381.007639 -35.032867 
L 380.250234 -35.032867 
L 379.492829 -35.032867 
L 378.735423 -35.032867 
L 376.463207 -35.032867 
L 375.705802 -35.032867 
L 374.948396 -35.032867 
L 374.190991 -35.032867 
L 373.433586 -35.032867 
L 371.16137 -35.032867 
L 370.403964 -35.032867 
L 369.646559 -35.032867 
L 368.889154 -35.032867 
L 368.131748 -35.032867 
L 365.859532 -35.032867 
L 365.102127 -35.032867 
L 364.344721 -35.032867 
L 363.587316 -35.032867 
L 360.557695 -35.032867 
L 359.800289 -35.032867 
L 359.042884 -35.032867 
L 358.285479 -35.032867 
L 357.528073 -35.032867 
L 355.255857 -35.032867 
L 354.498452 -35.032867 
L 353.741047 -35.032867 
L 352.983641 -35.032867 
L 352.226236 -35.032867 
L 349.95402 -35.032867 
L 349.196614 -35.032867 
L 348.439209 -35.032867 
L 347.681804 -35.032867 
L 346.924398 -35.032867 
L 344.652182 -35.032867 
L 343.894777 -35.032867 
L 343.137372 -35.032867 
L 342.379966 -35.032867 
L 341.622561 -35.032867 
L 339.350345 -35.032867 
L 338.592939 -35.032867 
L 337.835534 -35.032867 
L 337.078129 -35.032867 
L 336.320723 -35.032867 
L 334.048507 -35.032867 
L 333.291102 -35.032867 
L 332.533697 -35.032867 
L 331.776291 -35.032867 
L 331.018886 -35.032867 
L 328.74667 -35.032867 
L 327.989265 -35.032867 
L 327.231859 -35.032867 
L 326.474454 -35.032867 
L 325.717048 -35.032867 
L 323.444832 -35.032867 
L 322.687427 -35.032867 
L 321.930022 -35.032867 
L 321.172616 -35.032867 
L 320.415211 -35.032867 
L 317.38559 -35.032867 
L 316.628184 -35.032867 
L 315.870779 -35.032867 
L 315.113374 -35.032867 
L 312.841157 -35.032867 
L 312.083752 -35.032867 
L 311.326347 -35.032867 
L 310.568941 -35.032867 
L 309.811536 -35.032867 
L 307.53932 -35.032867 
L 306.024509 -35.032867 
L 305.267104 -35.032867 
L 304.509699 -35.032867 
L 302.237483 -35.032867 
L 301.480077 -35.032867 
L 300.722672 -35.032867 
L 299.965266 -35.032867 
L 299.207861 -35.032867 
L 296.935645 -35.032867 
L 296.17824 -35.032867 
L 295.420834 -35.032867 
L 294.663429 -35.032867 
L 293.906024 -35.032867 
L 291.633808 -35.032867 
L 290.876402 -35.032867 
L 290.118997 -35.032867 
L 289.361592 -35.032867 
L 286.33197 -35.032867 
L 285.574565 -35.032867 
L 284.817159 -35.032867 
L 284.059754 -35.032867 
L 283.302349 -35.032867 
L 281.030133 -35.032867 
L 280.272727 -35.032867 
L 279.515322 -35.032867 
L 278.757917 -35.032867 
L 278.000511 -35.032867 
L 275.728295 -35.032867 
L 274.97089 -35.032867 
L 274.213484 -35.032867 
L 273.456079 -35.032867 
L 272.698674 -35.032867 
L 270.426458 -35.032867 
L 269.669052 -35.032867 
L 268.911647 -35.032867 
L 268.154242 -35.032867 
L 267.396836 -35.032867 
L 265.12462 -35.032867 
L 264.367215 -35.032867 
L 263.60981 -35.032867 
L 262.852404 -35.032867 
L 262.094999 -35.032867 
L 259.065377 -35.032867 
L 258.307972 -35.032867 
L 257.550567 -35.032867 
L 256.793161 -35.032867 
L 254.520945 -35.032867 
L 253.76354 -35.032867 
L 253.006135 -35.032867 
L 252.248729 -35.032867 
L 251.491324 -35.032867 
L 249.219108 -35.032867 
L 248.461702 -35.032867 
L 247.704297 -35.032867 
L 246.946892 -35.032867 
L 246.189486 -35.032867 
L 243.91727 -35.032867 
L 243.159865 -35.032867 
L 242.40246 -35.032867 
L 241.645054 -35.032867 
L 240.887649 -35.032867 
L 238.615433 -35.032867 
L 237.858027 -35.032867 
L 237.100622 -35.032867 
L 236.343217 -35.032867 
L 235.585811 -35.032867 
L 233.313595 -35.032867 
L 232.55619 -35.032867 
L 231.798785 -35.032867 
L 231.041379 -35.032867 
L 230.283974 -35.032867 
L 228.011758 -35.032867 
L 227.254353 -35.032867 
L 226.496947 -35.032867 
L 225.739542 -35.032867 
L 224.982136 -35.032867 
L 222.70992 -35.032867 
L 221.952515 -35.032867 
L 221.19511 -35.032867 
L 220.437704 -35.032867 
L 219.680299 -35.032867 
L 217.408083 -35.032867 
L 216.650678 -35.032867 
L 215.893272 -35.032867 
L 215.135867 -35.032867 
L 212.106245 -35.032867 
L 211.34884 -35.032867 
L 210.591435 -35.032867 
L 209.834029 -35.032867 
L 209.076624 -35.032867 
L 206.804408 -35.032867 
L 206.047003 -35.032867 
L 205.289597 -35.032867 
L 204.532192 -35.032867 
L 203.774787 -35.032867 
L 201.502571 -35.032867 
L 200.745165 -35.032867 
L 199.98776 -35.032867 
L 199.230354 -35.032867 
L 198.472949 -35.032867 
L 196.200733 -35.032867 
L 195.443328 -35.032867 
L 194.685922 -35.032867 
L 193.928517 -35.032867 
L 190.898896 -35.032867 
L 190.14149 -35.032867 
L 189.384085 -35.032867 
L 188.62668 -35.032867 
L 187.869274 -35.032867 
L 185.597058 -35.032867 
L 184.082247 -35.032867 
L 183.324842 -35.032867 
L 182.567437 -35.032867 
L 180.295221 -35.032867 
L 179.537815 -35.032867 
L 178.023005 -35.032867 
L 177.265599 -35.032867 
L 174.993383 -35.032867 
L 174.235978 -35.032867 
L 172.721167 -35.032867 
L 171.963762 -35.032867 
L 169.691546 -35.032867 
L 168.93414 -35.032867 
L 168.176735 -35.032867 
L 167.41933 -35.032867 
L 166.661924 -35.032867 
L 164.389708 -35.032867 
L 163.632303 -35.032867 
L 162.874898 -35.032867 
L 162.117492 -35.032867 
L 161.360087 -35.032867 
L 159.087871 -35.032867 
L 158.330465 -35.032867 
L 157.57306 -35.032867 
L 156.815655 -35.032867 
L 156.058249 -35.032867 
L 153.786033 -35.032867 
L 152.271223 -35.032867 
L 151.513817 -35.032867 
L 150.756412 -35.032867 
L 148.484196 -35.032867 
L 147.72679 -35.032867 
L 146.969385 -35.032867 
L 146.21198 -35.032867 
L 145.454574 -35.032867 
L 143.182358 -35.032867 
L 142.424953 -35.032867 
L 141.667548 -35.032867 
L 140.910142 -35.032867 
L 140.152737 -35.032867 
L 137.880521 -35.032867 
L 137.123116 -35.032867 
L 136.36571 -35.032867 
L 135.608305 -35.032867 
L 134.850899 -35.032867 
L 132.578683 -35.032867 
L 131.821278 -35.032867 
L 131.063873 -35.032867 
L 130.306467 -35.032867 
L 129.549062 -35.032867 
L 127.276846 -35.032867 
L 126.519441 -35.032867 
L 125.762035 -35.032867 
L 125.00463 -35.032867 
L 124.247224 -35.032867 
L 121.975008 -35.032867 
L 121.217603 -35.032867 
L 120.460198 -35.032867 
L 119.702792 -35.032867 
L 118.945387 -35.032867 
L 116.673171 -35.032867 
L 115.915766 -35.032867 
L 115.15836 -35.032867 
L 114.400955 -35.032867 
L 113.64355 -35.032867 
L 111.371333 -35.032867 
L 110.613928 -35.032867 
L 109.856523 -35.032867 
L 109.099117 -35.032867 
L 108.341712 -35.032867 
L 106.069496 -35.032867 
L 105.312091 -35.032867 
L 104.554685 -35.032867 
L 103.79728 -35.032867 
L 103.039875 -35.032867 
L 100.767659 -35.032867 
L 100.010253 -35.032867 
L 99.252848 -35.032867 
L 98.495442 -35.032867 
L 97.738037 -35.032867 
L 95.465821 -35.032867 
L 94.708416 -35.032867 
L 93.95101 -35.032867 
L 93.193605 -35.032867 
L 92.4362 -35.032867 
L 90.163984 -35.032867 
L 89.406578 -35.032867 
L 88.649173 -35.032867 
L 87.891768 -35.032867 
L 84.862146 -35.032867 
L 84.104741 -35.032867 
L 83.347335 -35.032867 
L 82.58993 -35.032867 
L 81.832525 -35.032867 
L 79.560309 -35.032867 
L 78.802903 -35.032867 
L 78.045498 -35.032867 
L 77.288093 -35.032867 
L 76.530687 -35.032867 
L 74.258471 -35.032867 
L 73.501066 -35.032867 
L 72.74366 -35.032867 
L 71.986255 -35.032867 
L 71.22885 -35.032867 
L 68.956634 -35.032867 
L 68.199228 -35.032867 
L 67.441823 -35.032867 
L 66.684418 -35.032867 
L 65.927012 -35.032867 
L 63.654796 -35.032867 
L 62.897391 -35.032867 
L 62.139986 -35.032867 
L 61.38258 -35.032867 
L 60.625175 -35.032867 
z
" style="stroke: #1f6feb; stroke-opacity: 0.06"/>
    </defs>
    <g clip-path="url(#p7c06c3190d)">
     <use xlink:href="#ma60d1edddc" x="0" y="259.2" style="fill: #1f6feb; fill-opacity: 0.06; stroke: #1f6feb; stroke-opacity: 0.06"/>
    </g>
   </g>
   <g id="matplotlib.axis_1">
    <g id="xtick_1">
     <g id="line2d_1">
      <defs>
       <path id="m76847f8ebd" d="M 0 0 
L 0 3.5 
" style="stroke: #57606a; stroke-width: 0.8"/>
      </defs>
      <g>
       <use xlink:href="#m76847f8ebd" x="39.417825" y="233.646154" style="fill: #57606a; stroke: #57606a; stroke-width: 0.8"/>
      </g>
     </g>
     <g id="text_1">
      <text style="fill: #57606a; font: 8px 'DejaVu Sans', 'Bitstream Vera Sans', 'Computer Modern Sans Serif', 'Lucida Grande', 'Verdana', 'Geneva', 'Lucid', 'Arial', 'Helvetica', 'Avant Garde', sans-serif; text-anchor: middle" x="39.417825" y="246.724904" transform="rotate(-0 39.417825 246.724904)">Jul '24</text>
     </g>
    </g>
    <g id="xtick_2">
     <g id="line2d_2">
      <g>
       <use xlink:href="#m76847f8ebd" x="109.099117" y="233.646154" style="fill: #57606a; stroke: #57606a; stroke-width: 0.8"/>
      </g>
     </g>
     <g id="text_2">
      <text style="fill: #57606a; font: 8px 'DejaVu Sans', 'Bitstream Vera Sans', 'Computer Modern Sans Serif', 'Lucida Grande', 'Verdana', 'Geneva', 'Lucid', 'Arial', 'Helvetica', 'Avant Garde', sans-serif; text-anchor: middle" x="109.099117" y="246.724904" transform="rotate(-0 109.099117 246.724904)">Oct '24</text>
     </g>
    </g>
    <g id="xtick_3">
     <g id="line2d_3">
      <g>
       <use xlink:href="#m76847f8ebd" x="178.78041" y="233.646154" style="fill: #57606a; stroke: #57606a; stroke-width: 0.8"/>
      </g>
     </g>
     <g id="text_3">
      <text style="fill: #57606a; font: 8px 'DejaVu Sans', 'Bitstream Vera Sans', 'Computer Modern Sans Serif', 'Lucida Grande', 'Verdana', 'Geneva', 'Lucid', 'Arial', 'Helvetica', 'Avant Garde', sans-serif; text-anchor: middle" x="178.78041" y="246.724904" transform="rotate(-0 178.78041 246.724904)">Jan '25</text>
     </g>
    </g>
    <g id="xtick_4">
     <g id="line2d_4">
      <g>
       <use xlink:href="#m76847f8ebd" x="246.946892" y="233.646154" style="fill: #57606a; stroke: #57606a; stroke-width: 0.8"/>
      </g>
     </g>
     <g id="text_4">
      <text style="fill: #57606a; font: 8px 'DejaVu Sans', 'Bitstream Vera Sans', 'Computer Modern Sans Serif', 'Lucida Grande', 'Verdana', 'Geneva', 'Lucid', 'Arial', 'Helvetica', 'Avant Garde', sans-serif; text-anchor: middle" x="246.946892" y="246.724904" transform="rotate(-0 246.946892 246.724904)">Apr '25</text>
     </g>
    </g>
    <g id="xtick_5">
     <g id="line2d_5">
      <g>
       <use xlink:href="#m76847f8ebd" x="315.870779" y="233.646154" style="fill: #57606a; stroke: #57606a; stroke-width: 0.8"/>
      </g>
     </g>
     <g id="text_5">
      <text style="fill: #57606a; font: 8px 'DejaVu Sans', 'Bitstream Vera Sans', 'Computer Modern Sans Serif', 'Lucida Grande', 'Verdana', 'Geneva', 'Lucid', 'Arial', 'Helvetica', 'Avant Garde', sans-serif; text-anchor: middle" x="315.870779" y="246.724904" transform="rotate(-0 315.870779 246.724904)">Jul '25</text>
     </g>
    </g>
    <g id="xtick_6">
     <g id="line2d_6">
      <g>
       <use xlink:href="#m76847f8ebd" x="385.552071" y="233.646154" style="fill: #57606a; stroke: #57606a; stroke-width: 0.8"/>
      </g>
     </g>
     <g id="text_6">
      <text style="fill: #57606a; font: 8px 'DejaVu Sans', 'Bitstream Vera Sans', 'Computer Modern Sans Serif', 'Lucida Grande', 'Verdana', 'Geneva', 'Lucid', 'Arial', 'Helvetica', 'Avant Garde', sans-serif; text-anchor: middle" x="385.552071" y="246.724904" transform="rotate(-0 385.552071 246.724904)">Oct '25</text>
     </g>
    </g>
    <g id="xtick_7">
     <g id="line2d_7">
      <g>
       <use xlink:href="#m76847f8ebd" x="455.233364" y="233.646154" style="fill: #57606a; stroke: #57606a; stroke-width: 0.8"/>
      </g>
     </g>
     <g id="text_7">
      <text style="fill: #57606a; font: 8px 'DejaVu Sans', 'Bitstream Vera Sans', 'Computer Modern Sans Serif', 'Lucida Grande', 'Verdana', 'Geneva', 'Lucid', 'Arial', 'Helvetica', 'Avant Garde', sans-serif; text-anchor: middle" x="455.233364" y="246.724904" transform="rotate(-0 455.233364 246.724904)">Jan '26</text>
     </g>
    </g>
    <g id="xtick_8">
     <g id="line2d_8">
      <g>
       <use xlink:href="#m76847f8ebd" x="523.399846" y="233.646154" style="fill: #57606a; stroke: #57606a; stroke-width: 0.8"/>
      </g>
     </g>
     <g id="text_8">
      <text style="fill: #57606a; font: 8px 'DejaVu Sans', 'Bitstream Vera Sans', 'Computer Modern Sans Serif', 'Lucida Grande', 'Verdana', 'Geneva', 'Lucid', 'Arial', 'Helvetica', 'Avant Garde', sans-serif; text-anchor: middle" x="523.399846" y="246.724904" transform="rotate(-0 523.399846 246.724904)">Apr '26</text>
     </g>
    </g>
    <g id="xtick_9">
     <g id="line2d_9">
      <g>
       <use xlink:href="#m76847f8ebd" x="592.323733" y="233.646154" style="fill: #57606a; stroke: #57606a; stroke-width: 0.8"/>
      </g>
     </g>
     <g id="text_9">
      <text style="fill: #57606a; font: 8px 'DejaVu Sans', 'Bitstream Vera Sans', 'Computer Modern Sans Serif', 'Lucida Grande', 'Verdana', 'Geneva', 'Lucid', 'Arial', 'Helvetica', 'Avant Garde', sans-serif; text-anchor: middle" x="592.323733" y="246.724904" transform="rotate(-0 592.323733 246.724904)">Jul '26</text>
     </g>
    </g>
   </g>
   <g id="matplotlib.axis_2">
    <g id="ytick_1">
     <g id="line2d_10">
      <path d="M 33.169231 206.630297 
L 637.2 206.630297 
" clip-path="url(#p7c06c3190d)" style="fill: none; stroke: #eaeef2; stroke-width: 0.8; stroke-linecap: square"/>
     </g>
     <g id="line2d_11">
      <defs>
       <path id="mc137c1877b" d="M 0 0 
L -3.5 0 
" style="stroke: #57606a; stroke-width: 0.8"/>
      </defs>
      <g>
       <use xlink:href="#mc137c1877b" x="33.169231" y="206.630297" style="fill: #57606a; stroke: #57606a; stroke-width: 0.8"/>
      </g>
     </g>
     <g id="text_10">
      <text style="fill: #57606a; font: 8px 'DejaVu Sans', 'Bitstream Vera Sans', 'Computer Modern Sans Serif', 'Lucida Grande', 'Verdana', 'Geneva', 'Lucid', 'Arial', 'Helvetica', 'Avant Garde', sans-serif; text-anchor: end" x="26.169231" y="209.669672" transform="rotate(-0 26.169231 209.669672)">50</text>
     </g>
    </g>
    <g id="ytick_2">
     <g id="line2d_12">
      <path d="M 33.169231 172.564959 
L 637.2 172.564959 
" clip-path="url(#p7c06c3190d)" style="fill: none; stroke: #eaeef2; stroke-width: 0.8; stroke-linecap: square"/>
     </g>
     <g id="line2d_13">
      <g>
       <use xlink:href="#mc137c1877b" x="33.169231" y="172.564959" style="fill: #57606a; stroke: #57606a; stroke-width: 0.8"/>
      </g>
     </g>
     <g id="text_11">
      <text style="fill: #57606a; font: 8px 'DejaVu Sans', 'Bitstream Vera Sans', 'Computer Modern Sans Serif', 'Lucida Grande', 'Verdana', 'Geneva', 'Lucid', 'Arial', 'Helvetica', 'Avant Garde', sans-serif; text-anchor: end" x="26.169231" y="175.604334" transform="rotate(-0 26.169231 175.604334)">100</text>
     </g>
    </g>
    <g id="ytick_3">
     <g id="line2d_14">
      <path d="M 33.169231 138.499621 
L 637.2 138.499621 
" clip-path="url(#p7c06c3190d)" style="fill: none; stroke: #eaeef2; stroke-width: 0.8; stroke-linecap: square"/>
     </g>
     <g id="line2d_15">
      <g>
       <use xlink:href="#mc137c1877b" x="33.169231" y="138.499621" style="fill: #57606a; stroke: #57606a; stroke-width: 0.8"/>
      </g>
     </g>
     <g id="text_12">
      <text style="fill: #57606a; font: 8px 'DejaVu Sans', 'Bitstream Vera Sans', 'Computer Modern Sans Serif', 'Lucida Grande', 'Verdana', 'Geneva', 'Lucid', 'Arial', 'Helvetica', 'Avant Garde', sans-serif; text-anchor: end" x="26.169231" y="141.538996" transform="rotate(-0 26.169231 141.538996)">150</text>
     </g>
    </g>
    <g id="ytick_4">
     <g id="line2d_16">
      <path d="M 33.169231 104.434283 
L 637.2 104.434283 
" clip-path="url(#p7c06c3190d)" style="fill: none; stroke: #eaeef2; stroke-width: 0.8; stroke-linecap: square"/>
     </g>
     <g id="line2d_17">
      <g>
       <use xlink:href="#mc137c1877b" x="33.169231" y="104.434283" style="fill: #57606a; stroke: #57606a; stroke-width: 0.8"/>
      </g>
     </g>
     <g id="text_13">
      <text style="fill: #57606a; font: 8px 'DejaVu Sans', 'Bitstream Vera Sans', 'Computer Modern Sans Serif', 'Lucida Grande', 'Verdana', 'Geneva', 'Lucid', 'Arial', 'Helvetica', 'Avant Garde', sans-serif; text-anchor: end" x="26.169231" y="107.473658" transform="rotate(-0 26.169231 107.473658)">200</text>
     </g>
    </g>
    <g id="ytick_5">
     <g id="line2d_18">
      <path d="M 33.169231 70.368944 
L 637.2 70.368944 
" clip-path="url(#p7c06c3190d)" style="fill: none; stroke: #eaeef2; stroke-width: 0.8; stroke-linecap: square"/>
     </g>
     <g id="line2d_19">
      <g>
       <use xlink:href="#mc137c1877b" x="33.169231" y="70.368944" style="fill: #57606a; stroke: #57606a; stroke-width: 0.8"/>
      </g>
     </g>
     <g id="text_14">
      <text style="fill: #57606a; font: 8px 'DejaVu Sans', 'Bitstream Vera Sans', 'Computer Modern Sans Serif', 'Lucida Grande', 'Verdana', 'Geneva', 'Lucid', 'Arial', 'Helvetica', 'Avant Garde', sans-serif; text-anchor: end" x="26.169231" y="73.408319" transform="rotate(-0 26.169231 73.408319)">250</text>
     </g>
    </g>
    <g id="ytick_6">
     <g id="line2d_20">
      <path d="M 33.169231 36.303606 
L 637.2 36.303606 
" clip-path="url(#p7c06c3190d)" style="fill: none; stroke: #eaeef2; stroke-width: 0.8; stroke-linecap: square"/>
     </g>
     <g id="line2d_21">
      <g>
       <use xlink:href="#mc137c1877b" x="33.169231" y="36.303606" style="fill: #57606a; stroke: #57606a; stroke-width: 0.8"/>
      </g>
     </g>
     <g id="text_15">
      <text style="fill: #57606a; font: 8px 'DejaVu Sans', 'Bitstream Vera Sans', 'Computer Modern Sans Serif', 'Lucida Grande', 'Verdana', 'Geneva', 'Lucid', 'Arial', 'Helvetica', 'Avant Garde', sans-serif; text-anchor: end" x="26.169231" y="39.342981" transform="rotate(-0 26.169231 39.342981)">300</text>
     </g>
    </g>
   </g>
   <g id="line2d_22">
    <path d="M 60.625175 222.041456 
L 61.38258 223.008911 
L 62.139986 221.789372 
L 63.654796 223.438135 
L 65.927012 223.935489 
L 66.684418 223.594835 
L 67.441823 223.765162 
L 68.199228 222.388922 
L 68.956634 221.980138 
L 71.22885 221.891568 
L 71.986255 221.16257 
L 72.74366 221.121692 
L 73.501066 220.024788 
L 74.258471 219.970283 
L 76.530687 219.036893 
L 77.288093 218.893819 
L 78.045498 216.114087 
L 78.802903 216.700011 
L 79.560309 215.862003 
L 81.832525 216.706824 
L 82.58993 216.591002 
L 83.347335 217.463074 
L 84.104741 216.713637 
L 84.862146 216.911216 
L 87.891768 219.145902 
L 88.649173 219.370733 
L 89.406578 222.53881 
L 90.163984 224.085376 
L 92.4362 224.167133 
L 93.193605 223.731097 
L 93.95101 222.53881 
L 94.708416 221.775746 
L 95.465821 221.271579 
L 97.738037 221.782559 
L 98.495442 222.136839 
L 99.252848 222.266287 
L 100.010253 220.951365 
L 103.79728 220.338189 
L 104.554685 220.379067 
L 105.312091 219.418425 
L 106.069496 219.268537 
L 108.341712 219.711387 
L 109.099117 220.283684 
L 110.613928 219.650069 
L 111.371333 218.505474 
L 113.64355 218.525913 
L 114.400955 217.728784 
L 115.15836 216.734076 
L 115.915766 215.323771 
L 116.673171 214.628838 
L 118.945387 214.703782 
L 119.702792 215.909695 
L 121.217603 215.071688 
L 121.975008 215.27608 
L 124.247224 213.491056 
L 125.00463 213.647756 
L 125.762035 214.352909 
L 126.519441 214.117858 
L 127.276846 214.002036 
L 129.549062 213.347981 
L 130.306467 212.285143 
L 131.063873 213.354795 
L 131.821278 215.01037 
L 132.578683 213.150403 
L 134.850899 213.395673 
L 135.608305 212.182947 
L 137.123116 208.660591 
L 137.880521 207.99291 
L 140.152737 209.028497 
L 140.910142 209.048936 
L 141.667548 209.444094 
L 142.424953 212.148882 
L 143.182358 213.606878 
L 145.454574 213.03458 
L 146.21198 210.759016 
L 146.969385 211.419883 
L 147.72679 209.164758 
L 148.484196 209.464533 
L 150.756412 208.626526 
L 151.513817 208.899048 
L 152.271223 209.553103 
L 153.786033 207.338856 
L 156.058249 208.129172 
L 156.815655 192.53406 
L 157.57306 193.678655 
L 158.330465 192.731639 
L 159.087871 190.122234 
L 161.360087 195.027643 
L 162.117492 195.552249 
L 162.874898 193.372067 
L 163.632303 194.080626 
L 164.389708 188.950386 
L 166.661924 188.064688 
L 167.41933 193.119984 
L 168.176735 195.415988 
L 168.93414 195.02083 
L 169.691546 194.019309 
L 171.963762 193.739973 
L 172.721167 192.172967 
L 174.235978 191.627922 
L 174.993383 193.487889 
L 177.265599 193.276684 
L 178.023005 194.905007 
L 179.537815 192.370546 
L 182.567437 188.480285 
L 183.324842 189.406862 
L 184.082247 190.946615 
L 185.597058 190.415196 
L 187.869274 193.658216 
L 188.62668 193.419759 
L 189.384085 189.270601 
L 190.14149 189.188844 
L 190.898896 186.177468 
L 193.928517 185.155508 
L 194.685922 182.443907 
L 195.443328 183.343232 
L 196.200733 185.87088 
L 198.472949 202.814979 
L 199.230354 201.077647 
L 199.98776 200.64161 
L 201.502571 192.990535 
L 203.774787 191.770996 
L 204.532192 188.745994 
L 205.289597 186.47043 
L 206.047003 186.436364 
L 206.804408 188.044248 
L 209.076624 188.18051 
L 209.834029 190.57871 
L 210.591435 192.084397 
L 211.34884 192.677134 
L 212.106245 192.527247 
L 215.135867 189.434114 
L 215.893272 191.805062 
L 216.650678 192.132089 
L 217.408083 195.197969 
L 219.680299 199.663935 
L 220.437704 201.881589 
L 221.19511 198.938343 
L 221.952515 204.858899 
L 222.70992 203.101128 
L 224.982136 206.344148 
L 225.739542 203.687052 
L 226.496947 208.85817 
L 227.254353 212.033059 
L 228.011758 210.922529 
L 230.283974 213.818083 
L 231.798785 208.313125 
L 232.55619 210.070896 
L 233.313595 207.209408 
L 235.585811 208.660591 
L 236.343217 210.670446 
L 237.100622 208.830918 
L 238.615433 209.12388 
L 240.887649 206.269204 
L 241.645054 207.188968 
L 242.40246 210.070896 
L 243.159865 211.787789 
L 243.91727 213.095898 
L 246.189486 213.334355 
L 247.704297 211.372192 
L 248.461702 215.391902 
L 249.219108 218.00812 
L 251.491324 216.229909 
L 252.248729 216.645506 
L 253.006135 211.215491 
L 253.76354 214.642464 
L 254.520945 214.315437 
L 257.550567 214.002036 
L 258.307972 214.996744 
L 259.065377 215.739368 
L 262.094999 216.945281 
L 262.852404 215.473659 
L 263.60981 213.109524 
L 264.367215 211.815041 
L 265.12462 210.936156 
L 267.396836 211.372192 
L 268.154242 211.25637 
L 268.911647 211.365379 
L 270.426458 207.815771 
L 272.698674 207.522809 
L 273.456079 208.217742 
L 274.213484 207.699948 
L 274.97089 205.68328 
L 275.728295 206.085251 
L 278.000511 203.067062 
L 278.757917 200.450844 
L 279.515322 199.960304 
L 280.272727 200.103378 
L 283.302349 198.481868 
L 284.059754 198.379672 
L 284.817159 199.510641 
L 285.574565 199.28581 
L 286.33197 198.604503 
L 289.361592 197.33046 
L 290.118997 197.970888 
L 290.876402 197.207824 
L 291.633808 199.163175 
L 293.906024 198.011766 
L 294.663429 191.696053 
L 295.420834 188.60292 
L 296.17824 190.960241 
L 296.935645 190.987494 
L 299.207861 192.261537 
L 299.965266 194.005683 
L 301.480077 190.04729 
L 302.237483 190.626401 
L 304.509699 186.756579 
L 305.267104 186.388673 
L 306.024509 182.382589 
L 307.53932 182.437094 
L 309.811536 183.077522 
L 310.568941 178.069917 
L 311.326347 177.879151 
L 312.083752 175.937427 
L 312.841157 177.000266 
L 315.113374 177.613442 
L 315.870779 181.019976 
L 316.628184 179.80725 
L 317.38559 176.918509 
L 320.415211 177.518059 
L 321.172616 177.088836 
L 321.930022 174.206908 
L 322.687427 174.4113 
L 323.444832 173.573293 
L 325.717048 173.450658 
L 326.474454 170.800374 
L 327.231859 171.754204 
L 327.989265 173.620984 
L 328.74667 177.013892 
L 331.018886 175.467326 
L 331.776291 177.381798 
L 332.533697 173.648236 
L 333.291102 171.76783 
L 334.048507 171.733764 
L 336.320723 167.14857 
L 337.078129 166.174301 
L 337.835534 161.657237 
L 339.350345 167.41428 
L 341.622561 162.549749 
L 342.379966 165.554312 
L 343.137372 160.751099 
L 343.894777 159.088711 
L 344.652182 158.659488 
L 346.924398 159.913092 
L 347.681804 155.273393 
L 349.196614 160.757913 
L 349.95402 161.159884 
L 352.226236 159.79727 
L 352.983641 168.272726 
L 353.741047 168.483931 
L 354.498452 165.165967 
L 355.255857 162.999412 
L 357.528073 162.066022 
L 358.285479 158.870693 
L 359.042884 157.078856 
L 359.800289 150.885778 
L 360.557695 156.857431 
L 363.587316 156.029644 
L 364.344721 155.68899 
L 365.102127 149.400529 
L 365.859532 144.754017 
L 368.131748 140.182448 
L 368.889154 139.160488 
L 369.646559 128.988578 
L 370.403964 132.149842 
L 371.16137 130.330753 
L 373.433586 128.974952 
L 374.190991 128.675177 
L 374.948396 128.661551 
L 375.705802 123.299667 
L 376.463207 125.17326 
L 379.492829 130.1468 
L 380.250234 138.922031 
L 381.007639 141.947033 
L 381.765045 143.316459 
L 384.037261 141.218035 
L 384.794666 141.490557 
L 385.552071 141.967472 
L 386.309477 138.751704 
L 387.066882 142.676031 
L 389.339098 140.257392 
L 390.096503 147.220347 
L 390.853909 139.269497 
L 391.611314 137.716118 
L 392.36872 146.109817 
L 394.640936 138.567751 
L 395.398341 152.296083 
L 396.155746 151.165113 
L 396.913152 147.676823 
L 397.670557 142.853171 
L 399.942773 137.368651 
L 401.457584 147.220347 
L 402.214989 137.838753 
L 402.972395 134.718368 
L 405.244611 135.120339 
L 406.002016 130.201304 
L 406.759421 123.837899 
L 407.516827 127.176302 
L 408.274232 112.86886 
L 410.546448 117.624381 
L 411.303853 128.804625 
L 412.061259 122.720556 
L 412.818664 129.819772 
L 413.576069 129.227036 
L 415.848286 124.764476 
L 416.605691 132.708513 
L 417.363096 131.454909 
L 418.120502 143.302833 
L 418.877907 141.551875 
L 421.150123 141.510997 
L 421.907528 145.612463 
L 422.664934 144.031832 
L 423.422339 148.903175 
L 424.179744 149.747995 
L 426.45196 137.92051 
L 427.209366 135.651758 
L 427.966771 128.954513 
L 429.481582 119.695554 
L 431.753798 124.103609 
L 432.511203 112.310189 
L 433.268609 111.799209 
L 434.026014 117.433616 
L 434.783419 120.758393 
L 437.055635 118.782603 
L 437.813041 124.675906 
L 438.570446 133.062793 
L 439.327851 135.454179 
L 440.085257 142.648779 
L 442.357473 143.936449 
L 443.114878 145.081044 
L 443.872284 149.311959 
L 444.629689 146.286957 
L 445.387094 138.411051 
L 447.65931 138.540499 
L 448.416716 139.991682 
L 449.174121 138.370172 
L 450.688932 142.021977 
L 452.961148 142.110546 
L 453.718553 141.960659 
L 454.475959 142.662405 
L 455.990769 143.11888 
L 458.262985 145.149175 
L 459.020391 150.115901 
L 459.777796 144.631381 
L 460.535201 144.22941 
L 461.292607 138.213472 
L 463.564823 134.364089 
L 464.322228 130.74635 
L 465.079633 133.839482 
L 465.837039 139.099171 
L 466.594444 137.838753 
L 469.624066 136.305813 
L 470.381471 145.884986 
L 471.138876 148.651091 
L 471.896282 149.972826 
L 474.168498 153.474743 
L 474.925903 152.418718 
L 475.683308 152.3574 
L 476.440714 152.486848 
L 477.198119 155.341524 
L 479.470335 158.966076 
L 480.227741 164.859379 
L 480.985146 174.642944 
L 481.742551 173.886694 
L 482.499957 164.798062 
L 484.772173 156.615567 
L 485.529578 148.909988 
L 487.044389 157.726097 
L 487.801794 157.957742 
L 490.831415 155.668551 
L 492.346226 151.676093 
L 493.103632 156.172718 
L 495.375848 156.179531 
L 496.133253 158.373339 
L 496.890658 156.581502 
L 497.648064 162.699637 
L 498.405469 164.205325 
L 500.677685 162.876777 
L 501.43509 174.404487 
L 502.192496 170.83444 
L 502.949901 162.522497 
L 503.707306 165.867713 
L 505.979523 161.677677 
L 506.736928 164.164446 
L 507.494333 161.725368 
L 508.251739 164.682239 
L 509.009144 160.512642 
L 511.28136 161.064501 
L 512.038765 169.798853 
L 512.796171 171.393111 
L 513.553576 167.734494 
L 514.310981 170.248516 
L 516.583197 169.090294 
L 517.340603 172.360567 
L 518.098008 169.901049 
L 518.855414 174.990411 
L 519.612819 175.807979 
L 521.885035 180.870088 
L 522.64244 176.741369 
L 523.399846 175.34469 
L 524.157251 171.577064 
L 527.186872 170.888944 
L 527.944278 167.938886 
L 528.701683 165.608817 
L 529.459088 167.162196 
L 530.216494 159.218159 
L 532.48871 149.155258 
L 533.246115 132.01358 
L 534.003521 125.997642 
L 534.760926 132.415551 
L 535.518331 131.216451 
L 537.790547 121.787166 
L 538.547953 115.798479 
L 539.305358 111.594817 
L 540.062763 114.285978 
L 540.820169 107.813564 
L 543.092385 117.719764 
L 543.84979 127.653217 
L 544.607196 120.942345 
L 545.364601 122.141445 
L 546.122006 115.076294 
L 548.394222 118.019539 
L 549.151628 108.815085 
L 549.909033 105.599317 
L 550.666438 112.412385 
L 551.423844 112.265904 
L 553.69606 97.471327 
L 554.453465 105.408551 
L 555.210871 111.683386 
L 555.968276 114.967285 
L 556.725681 123.39505 
L 558.997897 134.227827 
L 561.270113 108.93772 
L 562.027519 91.891425 
L 565.05714 89.690804 
L 565.814545 89.97014 
L 566.571951 89.207076 
L 567.329356 79.8868 
L 569.601572 86.652176 
L 570.358978 84.676386 
L 571.116383 94.487204 
L 571.873788 92.511414 
L 572.631194 99.740079 
L 574.90341 89.261581 
L 575.660815 81.051834 
L 576.41822 78.762644 
L 577.175626 60.312857 
L 577.933031 69.817086 
L 580.205247 63.957848 
L 580.962653 77.740684 
L 581.720058 70.82542 
L 582.477463 55.496018 
L 585.507085 34.586713 
L 586.26449 55.376789 
L 587.021895 57.430929 
L 587.779301 58.084984 
L 588.536706 78.544626 
L 590.808922 73.31219 
L 591.566327 55.414261 
L 592.323733 64.175866 
L 593.081138 75.880716 
L 596.11076 59.774624 
L 596.868165 72.821649 
L 597.62557 64.448389 
L 598.382976 59.706494 
L 599.140381 65.061565 
L 601.412597 79.307689 
L 602.170002 79.784604 
L 602.927408 86.21614 
L 603.684813 99.004268 
L 604.442218 102.60838 
L 606.714435 96.21091 
L 607.47184 88.17149 
L 608.229245 85.17374 
L 608.986651 79.566586 
L 609.744056 95.475099 
L 609.744056 95.475099 
" clip-path="url(#p7c06c3190d)" style="fill: none; stroke: #1f6feb; stroke-width: 1.3; stroke-linecap: square"/>
   </g>
   <g id="patch_3">
    <path d="M 33.169231 233.646154 
L 33.169231 25.107692 
" style="fill: none; stroke: #000000; stroke-width: 0.8; stroke-linejoin: miter; stroke-linecap: square"/>
   </g>
   <g id="patch_4">
    <path d="M 33.169231 233.646154 
L 637.2 233.646154 
" style="fill: none; stroke: #000000; stroke-width: 0.8; stroke-linejoin: miter; stroke-linecap: square"/>
   </g>
   <g id="PathCollection_1">
    <defs>
     <path id="mc5aefe6644" d="M 0 -3.708099 
L -3.708099 3.708099 
L 3.708099 3.708099 
z
" style="stroke: #ffffff; stroke-width: 0.6"/>
    </defs>
    <g clip-path="url(#p7c06c3190d)">
     <use xlink:href="#mc5aefe6644" x="201.502571" y="192.990535" style="fill: #1a7f37; stroke: #ffffff; stroke-width: 0.6"/>
    </g>
   </g>
   <g id="PathCollection_2">
    <g clip-path="url(#p7c06c3190d)">
     <use xlink:href="#mc5aefe6644" x="221.952515" y="204.858899" style="fill: #1a7f37; stroke: #ffffff; stroke-width: 0.6"/>
    </g>
   </g>
   <g id="PathCollection_3">
    <g clip-path="url(#p7c06c3190d)">
     <use xlink:href="#mc5aefe6644" x="321.172616" y="177.088836" style="fill: #1a7f37; stroke: #ffffff; stroke-width: 0.6"/>
    </g>
   </g>
   <g id="PathCollection_4">
    <g clip-path="url(#p7c06c3190d)">
     <use xlink:href="#mc5aefe6644" x="421.907528" y="145.612463" style="fill: #1a7f37; stroke: #ffffff; stroke-width: 0.6"/>
    </g>
   </g>
   <g id="PathCollection_5">
    <g clip-path="url(#p7c06c3190d)">
     <use xlink:href="#mc5aefe6644" x="487.801794" y="157.957742" style="fill: #1a7f37; stroke: #ffffff; stroke-width: 0.6"/>
    </g>
   </g>
   <g id="PathCollection_6">
    <defs>
     <path id="ma1bb8862d1" d="M -0 3.708099 
L 3.708099 -3.708099 
L -3.708099 -3.708099 
z
" style="stroke: #ffffff; stroke-width: 0.6"/>
    </defs>
    <g clip-path="url(#p7c06c3190d)">
     <use xlink:href="#ma1bb8862d1" x="211.34884" y="192.677134" style="fill: #cf222e; stroke: #ffffff; stroke-width: 0.6"/>
    </g>
   </g>
   <g id="PathCollection_7">
    <g clip-path="url(#p7c06c3190d)">
     <use xlink:href="#ma1bb8862d1" x="243.159865" y="211.787789" style="fill: #cf222e; stroke: #ffffff; stroke-width: 0.6"/>
    </g>
   </g>
   <g id="PathCollection_8">
    <g clip-path="url(#p7c06c3190d)">
     <use xlink:href="#ma1bb8862d1" x="464.322228" y="130.74635" style="fill: #cf222e; stroke: #ffffff; stroke-width: 0.6"/>
    </g>
   </g>
   <g id="PathCollection_9">
    <g clip-path="url(#p7c06c3190d)">
     <use xlink:href="#ma1bb8862d1" x="500.677685" y="162.876777" style="fill: #cf222e; stroke: #ffffff; stroke-width: 0.6"/>
    </g>
   </g>
   <g id="PathCollection_10">
    <g clip-path="url(#p7c06c3190d)">
     <use xlink:href="#ma1bb8862d1" x="593.081138" y="75.880716" style="fill: #cf222e; stroke: #ffffff; stroke-width: 0.6"/>
    </g>
   </g>
   <g id="text_16">
    <text style="fill: #24292f; font: 11px 'DejaVu Sans', 'Bitstream Vera Sans', 'Computer Modern Sans Serif', 'Lucida Grande', 'Verdana', 'Geneva', 'Lucid', 'Arial', 'Helvetica', 'Avant Garde', sans-serif; text-anchor: start" x="33.169231" y="19.107692" transform="rotate(-0 33.169231 19.107692)">CRDO — Credo Technology Group Holding Ltd Ordinary Shares</text>
   </g>
  </g>
 </g>
 <defs>
  <clipPath id="p7c06c3190d">
   <rect x="33.169231" y="25.107692" width="604.030769" height="208.538462"/>
  </clipPath>
 </defs>
</svg>
