<?xml version="1.0" encoding="utf-8" standalone="no"?>
<!DOCTYPE svg PUBLIC "-//W3C//DTD SVG 1.1//EN"
  "http://www.w3.org/Graphics/SVG/1.1/DTD/svg11.dtd">
<svg xmlns:xlink="http://www.w3.org/1999/xlink" width="648pt" height="259.2pt" viewBox="0 0 648 259.2" xmlns="http://www.w3.org/2000/svg" version="1.1">
 <metadata>
  <rdf:RDF xmlns:dc="http://purl.org/dc/elements/1.1/" xmlns:cc="http://creativecommons.org/ns#" xmlns:rdf="http://www.w3.org/1999/02/22-rdf-syntax-ns#">
   <cc:Work>
    <dc:type rdf:resource="http://purl.org/dc/dcmitype/StillImage"/>
    <dc:format>image/svg+xml</dc:format>
    <dc:creator>
     <cc:Agent>
      <dc:title>Matplotlib v3.9.4, https://matplotlib.org/</dc:title>
     </cc:Agent>
    </dc:creator>
   </cc:Work>
  </rdf:RDF>
 </metadata>
 <defs>
  <style type="text/css">*{stroke-linejoin: round; stroke-linecap: butt}</style>
 </defs>
 <g id="figure_1">
  <g id="patch_1">
   <path d="M 0 259.2 
L 648 259.2 
L 648 0 
L 0 0 
z
" style="fill: #ffffff"/>
  </g>
  <g id="axes_1">
   <g id="patch_2">
    <path d="M 28.046154 233.646154 
L 637.2 233.646154 
L 637.2 25.107692 
L 28.046154 25.107692 
z
" style="fill: #ffffff"/>
   </g>
   <g id="PolyCollection_1">
    <defs>
     <path id="m9ac5f2b946" d="M 55.734965 -35.032867 
L 55.734965 -66.37031 
L 56.498794 -63.03654 
L 57.262624 -66.148059 
L 58.026453 -62.369786 
L 58.790282 -57.702507 
L 61.08177 -56.813502 
L 61.845599 -59.702769 
L 62.609429 -61.036278 
L 63.373258 -65.036802 
L 64.137087 -65.036802 
L 66.428575 -62.814289 
L 67.192404 -64.147797 
L 67.956233 -65.481305 
L 68.720063 -75.482617 
L 69.483892 -71.926595 
L 71.77538 -71.482092 
L 72.539209 -69.037327 
L 73.303038 -66.814813 
L 74.066868 -65.036802 
L 74.830697 -69.704081 
L 77.122185 -63.925545 
L 77.886014 -56.813502 
L 78.649843 -56.813502 
L 79.413673 -57.924758 
L 80.177502 -59.702769 
L 83.232819 -55.702245 
L 83.996648 -51.70172 
L 84.760477 -53.25748 
L 85.524307 -49.701458 
L 87.815795 -49.479206 
L 88.579624 -47.923447 
L 89.343453 -51.70172 
L 90.107282 -55.924496 
L 90.871112 -57.035753 
L 93.162599 -58.14701 
L 93.926429 -59.702769 
L 94.690258 -60.814026 
L 95.454087 -64.814551 
L 96.217917 -66.592562 
L 98.509404 -66.148059 
L 99.273234 -67.259316 
L 100.037063 -64.592299 
L 100.800892 -65.925808 
L 101.564721 -61.703032 
L 103.856209 -59.036015 
L 104.620039 -54.813239 
L 105.383868 -54.813239 
L 106.147697 -56.146747 
L 106.911526 -55.035491 
L 109.203014 -54.146485 
L 109.966844 -58.591512 
L 110.730673 -57.924758 
L 111.494502 -60.369523 
L 112.258331 -59.925021 
L 114.549819 -57.258004 
L 115.313648 -55.035491 
L 116.077478 -55.257742 
L 116.841307 -55.479993 
L 117.605136 -56.146747 
L 119.896624 -54.146485 
L 120.660453 -53.25748 
L 121.424283 -54.590988 
L 122.188112 -57.258004 
L 122.951941 -56.368999 
L 125.243429 -44.811927 
L 126.007258 -40.144649 
L 126.771088 -39.922397 
L 127.534917 -39.477895 
L 128.298746 -38.588889 
L 130.590234 -38.366638 
L 131.354063 -40.589151 
L 132.117892 -51.257217 
L 132.881722 -58.591512 
L 133.645551 -54.368736 
L 135.937039 -49.034704 
L 136.700868 -44.589676 
L 137.464697 -41.700408 
L 138.228527 -41.92266 
L 138.992356 -45.034179 
L 141.283844 -45.25643 
L 142.047673 -44.367425 
L 142.811502 -44.145173 
L 143.575332 -44.589676 
L 144.339161 -45.700933 
L 146.630649 -51.257217 
L 147.394478 -44.367425 
L 148.158307 -44.145173 
L 149.685966 -47.256693 
L 151.977454 -50.14596 
L 152.741283 -50.368212 
L 153.505112 -51.479469 
L 154.268941 -53.035228 
L 155.032771 -52.590725 
L 157.324259 -53.25748 
L 158.088088 -50.812714 
L 158.851917 -46.81219 
L 159.615746 -47.478944 
L 160.379576 -47.923447 
L 162.671063 -47.923447 
L 163.434893 -48.367949 
L 164.198722 -46.589938 
L 164.962551 -48.367949 
L 165.726381 -49.034704 
L 168.017868 -47.034441 
L 168.781698 -49.256955 
L 170.309356 -50.14596 
L 171.073185 -49.701458 
L 173.364673 -47.256693 
L 174.128503 -48.812452 
L 175.656161 -49.923709 
L 176.41999 -49.256955 
L 178.711478 -50.812714 
L 179.475307 -50.368212 
L 180.239137 -49.923709 
L 181.766795 -47.256693 
L 184.058283 -43.033916 
L 184.822112 -43.478419 
L 185.585942 -47.034441 
L 186.349771 -44.589676 
L 187.1136 -42.589414 
L 190.168917 -45.923184 
L 190.932747 -47.478944 
L 191.696576 -51.70172 
L 192.460405 -56.368999 
L 194.751893 -54.590988 
L 195.515722 -53.25748 
L 196.279551 -54.368736 
L 197.043381 -58.591512 
L 197.80721 -55.257742 
L 200.098698 -57.480256 
L 200.862527 -58.591512 
L 201.626356 -56.368999 
L 202.390186 -74.149108 
L 203.154015 -72.148846 
L 205.445503 -71.037589 
L 206.209332 -70.593087 
L 206.973161 -69.926332 
L 207.736991 -71.482092 
L 208.50082 -72.593349 
L 211.556137 -72.8156 
L 212.319966 -71.482092 
L 213.083796 -72.593349 
L 213.847625 -68.592824 
L 216.139113 -65.481305 
L 216.902942 -66.592562 
L 217.666771 -67.037065 
L 218.4306 -63.258791 
L 219.19443 -61.258529 
L 221.485918 -55.257742 
L 222.249747 -55.257742 
L 223.013576 -62.592037 
L 223.777405 -64.814551 
L 224.541235 -58.14701 
L 226.832722 -54.590988 
L 227.596552 -56.59125 
L 228.360381 -56.813502 
L 229.12421 -53.924234 
L 229.88804 -57.258004 
L 232.179527 -58.369261 
L 232.943357 -58.369261 
L 233.707186 -59.036015 
L 234.471015 -57.480256 
L 235.234844 -54.813239 
L 237.526332 -58.14701 
L 238.290162 -63.03654 
L 239.053991 -56.59125 
L 239.81782 -57.258004 
L 240.581649 -49.256955 
L 242.873137 -48.145698 
L 243.636966 -50.14596 
L 244.400796 -49.923709 
L 245.164625 -47.034441 
L 245.928454 -37.699884 
L 248.219942 -37.033129 
L 248.983771 -36.366375 
L 249.747601 -41.92266 
L 250.51143 -35.032867 
L 251.275259 -38.588889 
L 253.566747 -41.92266 
L 254.330576 -39.700146 
L 255.094406 -39.033392 
L 255.858235 -43.478419 
L 258.913552 -41.033654 
L 259.677381 -44.811927 
L 260.441211 -48.145698 
L 261.20504 -49.923709 
L 261.968869 -55.035491 
L 264.260357 -61.036278 
L 265.024186 -58.813764 
L 265.788015 -60.591775 
L 266.551845 -59.036015 
L 267.315674 -60.147272 
L 269.607162 -59.258267 
L 270.370991 -61.036278 
L 271.13482 -66.148059 
L 271.89865 -67.037065 
L 272.662479 -65.925808 
L 274.953967 -69.259578 
L 275.717796 -75.038114 
L 276.481625 -75.038114 
L 277.245455 -75.704868 
L 278.009284 -75.704868 
L 280.300772 -76.816125 
L 281.064601 -79.705393 
L 281.82843 -79.26089 
L 282.592259 -79.038639 
L 283.356089 -81.927906 
L 286.411406 -83.261415 
L 287.175235 -80.372147 
L 287.939064 -79.927644 
L 288.702894 -75.704868 
L 290.994381 -75.038114 
L 291.758211 -75.038114 
L 292.52204 -74.149108 
L 293.285869 -74.815863 
L 294.049699 -73.037852 
L 296.341186 -73.926857 
L 297.105016 -77.038376 
L 297.868845 -78.149633 
L 298.632674 -78.816387 
L 299.396503 -73.926857 
L 301.687991 -76.816125 
L 302.451821 -74.815863 
L 303.21565 -75.927119 
L 304.743308 -74.149108 
L 307.034796 -74.37136 
L 307.798626 -77.70513 
L 308.562455 -73.260103 
L 309.326284 -75.260365 
L 310.090113 -74.815863 
L 312.381601 -77.482879 
L 313.14543 -81.261152 
L 313.90926 -82.816912 
L 314.673089 -84.15042 
L 317.728406 -82.150158 
L 318.492235 -83.705917 
L 319.256065 -87.039688 
L 320.019894 -88.150945 
L 320.783723 -87.706442 
L 323.075211 -87.484191 
L 323.83904 -85.039426 
L 324.60287 -87.261939 
L 325.366699 -95.48524 
L 326.130528 -92.818224 
L 328.422016 -95.262989 
L 329.185845 -99.263513 
L 329.949674 -100.597022 
L 330.713504 -106.82006 
L 331.477333 -110.376082 
L 333.768821 -110.376082 
L 334.53265 -115.487863 
L 335.296479 -113.26535 
L 336.060309 -116.821372 
L 336.824138 -110.153831 
L 339.115626 -105.931055 
L 339.879455 -108.598071 
L 340.643284 -109.931579 
L 341.407114 -113.932104 
L 342.170943 -115.043361 
L 344.462431 -115.710115 
L 345.22626 -118.377131 
L 345.990089 -116.59912 
L 346.753918 -112.376344 
L 347.517748 -113.043098 
L 349.809236 -115.487863 
L 350.573065 -115.710115 
L 351.336894 -115.710115 
L 352.100723 -118.821634 
L 352.864553 -121.266399 
L 355.156041 -120.599645 
L 355.91987 -122.822159 
L 356.683699 -121.933153 
L 357.447528 -124.377918 
L 358.211358 -125.489175 
L 361.266675 -127.044935 
L 362.030504 -127.044935 
L 362.794333 -128.600694 
L 363.558163 -132.378968 
L 365.84965 -134.823733 
L 366.61348 -132.156716 
L 367.377309 -127.489438 
L 368.141138 -134.37923 
L 368.904967 -131.934465 
L 371.196455 -135.490487 
L 371.960285 -135.712738 
L 372.724114 -133.045722 
L 373.487943 -130.600957 
L 374.251772 -125.044672 
L 376.54326 -128.378443 
L 377.307089 -126.600432 
L 378.070919 -123.04441 
L 378.834748 -123.04441 
L 379.598577 -123.488913 
L 381.890065 -124.60017 
L 382.653894 -123.266661 
L 383.417724 -121.044148 
L 384.181553 -124.822421 
L 384.945382 -125.044672 
L 387.23687 -123.266661 
L 388.000699 -125.711427 
L 388.764529 -129.711951 
L 389.528358 -126.155929 
L 390.292187 -126.822683 
L 392.583675 -130.600957 
L 393.347504 -135.712738 
L 394.111333 -141.935777 
L 394.875163 -139.046509 
L 395.638992 -137.935252 
L 397.93048 -135.93499 
L 398.694309 -127.044935 
L 399.458138 -127.93394 
L 400.221968 -130.823208 
L 400.985797 -131.489962 
L 403.277285 -131.489962 
L 404.041114 -152.15934 
L 404.804943 -151.714837 
L 405.568773 -148.603318 
L 406.332602 -149.047821 
L 408.62409 -149.047821 
L 409.387919 -146.603055 
L 410.151748 -151.714837 
L 410.915578 -149.936826 
L 411.679407 -150.159077 
L 413.970895 -153.492848 
L 414.734724 -157.04887 
L 415.498553 -153.715099 
L 416.262382 -149.936826 
L 417.026212 -148.158815 
L 419.3177 -145.71405 
L 420.081529 -150.381329 
L 420.845358 -153.048345 
L 421.609187 -149.492323 
L 422.373017 -146.380804 
L 424.664504 -147.26981 
L 425.428334 -155.048608 
L 426.192163 -158.382378 
L 427.719822 -163.271908 
L 430.011309 -159.049132 
L 430.775139 -162.382903 
L 431.538968 -165.272171 
L 432.302797 -167.494684 
L 433.066626 -164.160914 
L 435.358114 -167.494684 
L 436.121944 -167.050182 
L 436.885773 -165.049919 
L 437.649602 -172.161963 
L 438.413431 -179.274007 
L 440.704919 -182.607778 
L 441.468748 -179.71851 
L 442.232578 -172.828717 
L 442.996407 -180.385264 
L 443.760236 -182.607778 
L 446.051724 -185.274794 
L 446.815553 -187.497308 
L 447.579383 -186.608302 
L 449.107041 -189.719821 
L 451.398529 -185.497045 
L 452.162358 -181.496521 
L 452.926188 -178.829504 
L 454.453846 -180.607515 
L 456.745334 -186.608302 
L 457.509163 -188.386313 
L 458.272993 -179.71851 
L 459.036822 -196.165111 
L 459.800651 -199.498882 
L 462.092139 -199.943385 
L 462.855968 -198.165374 
L 463.619797 -202.832652 
L 464.383627 -197.943122 
L 465.147456 -201.054641 
L 468.202773 -201.054641 
L 468.966602 -210.61145 
L 469.730432 -212.16721 
L 470.494261 -210.389199 
L 472.785749 -207.055428 
L 473.549578 -209.722445 
L 474.313407 -216.167735 
L 475.077237 -209.944696 
L 475.841066 -200.83239 
L 478.132554 -204.610663 
L 478.896383 -206.833177 
L 479.660212 -192.386838 
L 480.424041 -189.053067 
L 481.187871 -194.609352 
L 483.479359 -207.722183 
L 484.243188 -211.055953 
L 485.007017 -211.055953 
L 485.770846 -196.165111 
L 486.534676 -202.832652 
L 489.589993 -201.276893 
L 490.353822 -202.832652 
L 491.117651 -204.166161 
L 491.881481 -210.166948 
L 494.172968 -197.720871 
L 494.936798 -202.832652 
L 495.700627 -206.610926 
L 496.464456 -207.055428 
L 497.228286 -201.499144 
L 499.519773 -193.498095 
L 500.283603 -176.829242 
L 501.047432 -188.830816 
L 501.811261 -175.495734 
L 502.57509 -166.161176 
L 504.866578 -166.383427 
L 505.630408 -162.605154 
L 506.394237 -159.271384 
L 507.158066 -154.159602 
L 507.921895 -154.826356 
L 510.213383 -162.827406 
L 510.977212 -158.160127 
L 511.741042 -151.714837 
L 512.504871 -152.381591 
L 513.2687 -145.491799 
L 515.560188 -159.715886 
L 516.324017 -164.605417 
L 517.087847 -175.273482 
L 517.851676 -167.050182 
L 518.615505 -162.382903 
L 520.906993 -161.493897 
L 521.670822 -177.718247 
L 522.434652 -181.052018 
L 523.198481 -173.050969 
L 526.253798 -175.940236 
L 527.017627 -174.82898 
L 527.781456 -185.274794 
L 528.545286 -188.164062 
L 529.309115 -188.386313 
L 531.600603 -187.719559 
L 532.364432 -186.1638 
L 533.128261 -187.275056 
L 533.892091 -182.607778 
L 534.65592 -189.49757 
L 536.947408 -190.164324 
L 537.711237 -185.497045 
L 538.475066 -185.052543 
L 539.238896 -201.499144 
L 540.002725 -198.165374 
L 542.294213 -195.498357 
L 543.058042 -193.053592 
L 543.821871 -193.942597 
L 544.585701 -196.831865 
L 545.34953 -195.720608 
L 547.641018 -187.719559 
L 548.404847 -209.500193 
L 549.168676 -224.613287 
L 549.932505 -215.50098 
L 550.696335 -214.834226 
L 552.987823 -218.834751 
L 553.751652 -216.167735 
L 554.515481 -217.945746 
L 555.27931 -215.945483 
L 556.04314 -202.610401 
L 558.334627 -205.72192 
L 559.098457 -196.165111 
L 559.862286 -205.055166 
L 560.626115 -203.277155 
L 561.389945 -202.610401 
L 564.445262 -214.611975 
L 565.209091 -217.05674 
L 565.97292 -213.72297 
L 566.736749 -214.389724 
L 569.028237 -214.611975 
L 569.792067 -213.72297 
L 570.555896 -210.166948 
L 571.319725 -211.055953 
L 572.083554 -200.610139 
L 574.375042 -191.05333 
L 575.138871 -191.942335 
L 575.902701 -185.719297 
L 576.66653 -205.72192 
L 577.430359 -211.944959 
L 579.721847 -209.944696 
L 580.485676 -211.944959 
L 581.249506 -203.499406 
L 582.013335 -206.388674 
L 585.068652 -203.054904 
L 585.832481 -193.720346 
L 586.596311 -190.608827 
L 587.36014 -198.609876 
L 588.123969 -196.387363 
L 590.415457 -193.275843 
L 591.179286 -190.164324 
L 591.943116 -193.053592 
L 592.706945 -196.609614 
L 595.762262 -197.276368 
L 596.526091 -192.609089 
L 597.28992 -193.942597 
L 598.05375 -198.387625 
L 598.817579 -200.83239 
L 601.109067 -200.165636 
L 601.872896 -207.944434 
L 602.636725 -213.945221 
L 603.400555 -214.611975 
L 604.164384 -211.722707 
L 606.455872 -201.054641 
L 607.219701 -205.72192 
L 607.98353 -206.166423 
L 608.74736 -195.94286 
L 609.511189 -191.497832 
L 609.511189 -35.032867 
L 609.511189 -35.032867 
L 608.74736 -35.032867 
L 607.98353 -35.032867 
L 607.219701 -35.032867 
L 606.455872 -35.032867 
L 604.164384 -35.032867 
L 603.400555 -35.032867 
L 602.636725 -35.032867 
L 601.872896 -35.032867 
L 601.109067 -35.032867 
L 598.817579 -35.032867 
L 598.05375 -35.032867 
L 597.28992 -35.032867 
L 596.526091 -35.032867 
L 595.762262 -35.032867 
L 592.706945 -35.032867 
L 591.943116 -35.032867 
L 591.179286 -35.032867 
L 590.415457 -35.032867 
L 588.123969 -35.032867 
L 587.36014 -35.032867 
L 586.596311 -35.032867 
L 585.832481 -35.032867 
L 585.068652 -35.032867 
L 582.013335 -35.032867 
L 581.249506 -35.032867 
L 580.485676 -35.032867 
L 579.721847 -35.032867 
L 577.430359 -35.032867 
L 576.66653 -35.032867 
L 575.902701 -35.032867 
L 575.138871 -35.032867 
L 574.375042 -35.032867 
L 572.083554 -35.032867 
L 571.319725 -35.032867 
L 570.555896 -35.032867 
L 569.792067 -35.032867 
L 569.028237 -35.032867 
L 566.736749 -35.032867 
L 565.97292 -35.032867 
L 565.209091 -35.032867 
L 564.445262 -35.032867 
L 561.389945 -35.032867 
L 560.626115 -35.032867 
L 559.862286 -35.032867 
L 559.098457 -35.032867 
L 558.334627 -35.032867 
L 556.04314 -35.032867 
L 555.27931 -35.032867 
L 554.515481 -35.032867 
L 553.751652 -35.032867 
L 552.987823 -35.032867 
L 550.696335 -35.032867 
L 549.932505 -35.032867 
L 549.168676 -35.032867 
L 548.404847 -35.032867 
L 547.641018 -35.032867 
L 545.34953 -35.032867 
L 544.585701 -35.032867 
L 543.821871 -35.032867 
L 543.058042 -35.032867 
L 542.294213 -35.032867 
L 540.002725 -35.032867 
L 539.238896 -35.032867 
L 538.475066 -35.032867 
L 537.711237 -35.032867 
L 536.947408 -35.032867 
L 534.65592 -35.032867 
L 533.892091 -35.032867 
L 533.128261 -35.032867 
L 532.364432 -35.032867 
L 531.600603 -35.032867 
L 529.309115 -35.032867 
L 528.545286 -35.032867 
L 527.781456 -35.032867 
L 527.017627 -35.032867 
L 526.253798 -35.032867 
L 523.198481 -35.032867 
L 522.434652 -35.032867 
L 521.670822 -35.032867 
L 520.906993 -35.032867 
L 518.615505 -35.032867 
L 517.851676 -35.032867 
L 517.087847 -35.032867 
L 516.324017 -35.032867 
L 515.560188 -35.032867 
L 513.2687 -35.032867 
L 512.504871 -35.032867 
L 511.741042 -35.032867 
L 510.977212 -35.032867 
L 510.213383 -35.032867 
L 507.921895 -35.032867 
L 507.158066 -35.032867 
L 506.394237 -35.032867 
L 505.630408 -35.032867 
L 504.866578 -35.032867 
L 502.57509 -35.032867 
L 501.811261 -35.032867 
L 501.047432 -35.032867 
L 500.283603 -35.032867 
L 499.519773 -35.032867 
L 497.228286 -35.032867 
L 496.464456 -35.032867 
L 495.700627 -35.032867 
L 494.936798 -35.032867 
L 494.172968 -35.032867 
L 491.881481 -35.032867 
L 491.117651 -35.032867 
L 490.353822 -35.032867 
L 489.589993 -35.032867 
L 486.534676 -35.032867 
L 485.770846 -35.032867 
L 485.007017 -35.032867 
L 484.243188 -35.032867 
L 483.479359 -35.032867 
L 481.187871 -35.032867 
L 480.424041 -35.032867 
L 479.660212 -35.032867 
L 478.896383 -35.032867 
L 478.132554 -35.032867 
L 475.841066 -35.032867 
L 475.077237 -35.032867 
L 474.313407 -35.032867 
L 473.549578 -35.032867 
L 472.785749 -35.032867 
L 470.494261 -35.032867 
L 469.730432 -35.032867 
L 468.966602 -35.032867 
L 468.202773 -35.032867 
L 465.147456 -35.032867 
L 464.383627 -35.032867 
L 463.619797 -35.032867 
L 462.855968 -35.032867 
L 462.092139 -35.032867 
L 459.800651 -35.032867 
L 459.036822 -35.032867 
L 458.272993 -35.032867 
L 457.509163 -35.032867 
L 456.745334 -35.032867 
L 454.453846 -35.032867 
L 452.926188 -35.032867 
L 452.162358 -35.032867 
L 451.398529 -35.032867 
L 449.107041 -35.032867 
L 447.579383 -35.032867 
L 446.815553 -35.032867 
L 446.051724 -35.032867 
L 443.760236 -35.032867 
L 442.996407 -35.032867 
L 442.232578 -35.032867 
L 441.468748 -35.032867 
L 440.704919 -35.032867 
L 438.413431 -35.032867 
L 437.649602 -35.032867 
L 436.885773 -35.032867 
L 436.121944 -35.032867 
L 435.358114 -35.032867 
L 433.066626 -35.032867 
L 432.302797 -35.032867 
L 431.538968 -35.032867 
L 430.775139 -35.032867 
L 430.011309 -35.032867 
L 427.719822 -35.032867 
L 426.192163 -35.032867 
L 425.428334 -35.032867 
L 424.664504 -35.032867 
L 422.373017 -35.032867 
L 421.609187 -35.032867 
L 420.845358 -35.032867 
L 420.081529 -35.032867 
L 419.3177 -35.032867 
L 417.026212 -35.032867 
L 416.262382 -35.032867 
L 415.498553 -35.032867 
L 414.734724 -35.032867 
L 413.970895 -35.032867 
L 411.679407 -35.032867 
L 410.915578 -35.032867 
L 410.151748 -35.032867 
L 409.387919 -35.032867 
L 408.62409 -35.032867 
L 406.332602 -35.032867 
L 405.568773 -35.032867 
L 404.804943 -35.032867 
L 404.041114 -35.032867 
L 403.277285 -35.032867 
L 400.985797 -35.032867 
L 400.221968 -35.032867 
L 399.458138 -35.032867 
L 398.694309 -35.032867 
L 397.93048 -35.032867 
L 395.638992 -35.032867 
L 394.875163 -35.032867 
L 394.111333 -35.032867 
L 393.347504 -35.032867 
L 392.583675 -35.032867 
L 390.292187 -35.032867 
L 389.528358 -35.032867 
L 388.764529 -35.032867 
L 388.000699 -35.032867 
L 387.23687 -35.032867 
L 384.945382 -35.032867 
L 384.181553 -35.032867 
L 383.417724 -35.032867 
L 382.653894 -35.032867 
L 381.890065 -35.032867 
L 379.598577 -35.032867 
L 378.834748 -35.032867 
L 378.070919 -35.032867 
L 377.307089 -35.032867 
L 376.54326 -35.032867 
L 374.251772 -35.032867 
L 373.487943 -35.032867 
L 372.724114 -35.032867 
L 371.960285 -35.032867 
L 371.196455 -35.032867 
L 368.904967 -35.032867 
L 368.141138 -35.032867 
L 367.377309 -35.032867 
L 366.61348 -35.032867 
L 365.84965 -35.032867 
L 363.558163 -35.032867 
L 362.794333 -35.032867 
L 362.030504 -35.032867 
L 361.266675 -35.032867 
L 358.211358 -35.032867 
L 357.447528 -35.032867 
L 356.683699 -35.032867 
L 355.91987 -35.032867 
L 355.156041 -35.032867 
L 352.864553 -35.032867 
L 352.100723 -35.032867 
L 351.336894 -35.032867 
L 350.573065 -35.032867 
L 349.809236 -35.032867 
L 347.517748 -35.032867 
L 346.753918 -35.032867 
L 345.990089 -35.032867 
L 345.22626 -35.032867 
L 344.462431 -35.032867 
L 342.170943 -35.032867 
L 341.407114 -35.032867 
L 340.643284 -35.032867 
L 339.879455 -35.032867 
L 339.115626 -35.032867 
L 336.824138 -35.032867 
L 336.060309 -35.032867 
L 335.296479 -35.032867 
L 334.53265 -35.032867 
L 333.768821 -35.032867 
L 331.477333 -35.032867 
L 330.713504 -35.032867 
L 329.949674 -35.032867 
L 329.185845 -35.032867 
L 328.422016 -35.032867 
L 326.130528 -35.032867 
L 325.366699 -35.032867 
L 324.60287 -35.032867 
L 323.83904 -35.032867 
L 323.075211 -35.032867 
L 320.783723 -35.032867 
L 320.019894 -35.032867 
L 319.256065 -35.032867 
L 318.492235 -35.032867 
L 317.728406 -35.032867 
L 314.673089 -35.032867 
L 313.90926 -35.032867 
L 313.14543 -35.032867 
L 312.381601 -35.032867 
L 310.090113 -35.032867 
L 309.326284 -35.032867 
L 308.562455 -35.032867 
L 307.798626 -35.032867 
L 307.034796 -35.032867 
L 304.743308 -35.032867 
L 303.21565 -35.032867 
L 302.451821 -35.032867 
L 301.687991 -35.032867 
L 299.396503 -35.032867 
L 298.632674 -35.032867 
L 297.868845 -35.032867 
L 297.105016 -35.032867 
L 296.341186 -35.032867 
L 294.049699 -35.032867 
L 293.285869 -35.032867 
L 292.52204 -35.032867 
L 291.758211 -35.032867 
L 290.994381 -35.032867 
L 288.702894 -35.032867 
L 287.939064 -35.032867 
L 287.175235 -35.032867 
L 286.411406 -35.032867 
L 283.356089 -35.032867 
L 282.592259 -35.032867 
L 281.82843 -35.032867 
L 281.064601 -35.032867 
L 280.300772 -35.032867 
L 278.009284 -35.032867 
L 277.245455 -35.032867 
L 276.481625 -35.032867 
L 275.717796 -35.032867 
L 274.953967 -35.032867 
L 272.662479 -35.032867 
L 271.89865 -35.032867 
L 271.13482 -35.032867 
L 270.370991 -35.032867 
L 269.607162 -35.032867 
L 267.315674 -35.032867 
L 266.551845 -35.032867 
L 265.788015 -35.032867 
L 265.024186 -35.032867 
L 264.260357 -35.032867 
L 261.968869 -35.032867 
L 261.20504 -35.032867 
L 260.441211 -35.032867 
L 259.677381 -35.032867 
L 258.913552 -35.032867 
L 255.858235 -35.032867 
L 255.094406 -35.032867 
L 254.330576 -35.032867 
L 253.566747 -35.032867 
L 251.275259 -35.032867 
L 250.51143 -35.032867 
L 249.747601 -35.032867 
L 248.983771 -35.032867 
L 248.219942 -35.032867 
L 245.928454 -35.032867 
L 245.164625 -35.032867 
L 244.400796 -35.032867 
L 243.636966 -35.032867 
L 242.873137 -35.032867 
L 240.581649 -35.032867 
L 239.81782 -35.032867 
L 239.053991 -35.032867 
L 238.290162 -35.032867 
L 237.526332 -35.032867 
L 235.234844 -35.032867 
L 234.471015 -35.032867 
L 233.707186 -35.032867 
L 232.943357 -35.032867 
L 232.179527 -35.032867 
L 229.88804 -35.032867 
L 229.12421 -35.032867 
L 228.360381 -35.032867 
L 227.596552 -35.032867 
L 226.832722 -35.032867 
L 224.541235 -35.032867 
L 223.777405 -35.032867 
L 223.013576 -35.032867 
L 222.249747 -35.032867 
L 221.485918 -35.032867 
L 219.19443 -35.032867 
L 218.4306 -35.032867 
L 217.666771 -35.032867 
L 216.902942 -35.032867 
L 216.139113 -35.032867 
L 213.847625 -35.032867 
L 213.083796 -35.032867 
L 212.319966 -35.032867 
L 211.556137 -35.032867 
L 208.50082 -35.032867 
L 207.736991 -35.032867 
L 206.973161 -35.032867 
L 206.209332 -35.032867 
L 205.445503 -35.032867 
L 203.154015 -35.032867 
L 202.390186 -35.032867 
L 201.626356 -35.032867 
L 200.862527 -35.032867 
L 200.098698 -35.032867 
L 197.80721 -35.032867 
L 197.043381 -35.032867 
L 196.279551 -35.032867 
L 195.515722 -35.032867 
L 194.751893 -35.032867 
L 192.460405 -35.032867 
L 191.696576 -35.032867 
L 190.932747 -35.032867 
L 190.168917 -35.032867 
L 187.1136 -35.032867 
L 186.349771 -35.032867 
L 185.585942 -35.032867 
L 184.822112 -35.032867 
L 184.058283 -35.032867 
L 181.766795 -35.032867 
L 180.239137 -35.032867 
L 179.475307 -35.032867 
L 178.711478 -35.032867 
L 176.41999 -35.032867 
L 175.656161 -35.032867 
L 174.128503 -35.032867 
L 173.364673 -35.032867 
L 171.073185 -35.032867 
L 170.309356 -35.032867 
L 168.781698 -35.032867 
L 168.017868 -35.032867 
L 165.726381 -35.032867 
L 164.962551 -35.032867 
L 164.198722 -35.032867 
L 163.434893 -35.032867 
L 162.671063 -35.032867 
L 160.379576 -35.032867 
L 159.615746 -35.032867 
L 158.851917 -35.032867 
L 158.088088 -35.032867 
L 157.324259 -35.032867 
L 155.032771 -35.032867 
L 154.268941 -35.032867 
L 153.505112 -35.032867 
L 152.741283 -35.032867 
L 151.977454 -35.032867 
L 149.685966 -35.032867 
L 148.158307 -35.032867 
L 147.394478 -35.032867 
L 146.630649 -35.032867 
L 144.339161 -35.032867 
L 143.575332 -35.032867 
L 142.811502 -35.032867 
L 142.047673 -35.032867 
L 141.283844 -35.032867 
L 138.992356 -35.032867 
L 138.228527 -35.032867 
L 137.464697 -35.032867 
L 136.700868 -35.032867 
L 135.937039 -35.032867 
L 133.645551 -35.032867 
L 132.881722 -35.032867 
L 132.117892 -35.032867 
L 131.354063 -35.032867 
L 130.590234 -35.032867 
L 128.298746 -35.032867 
L 127.534917 -35.032867 
L 126.771088 -35.032867 
L 126.007258 -35.032867 
L 125.243429 -35.032867 
L 122.951941 -35.032867 
L 122.188112 -35.032867 
L 121.424283 -35.032867 
L 120.660453 -35.032867 
L 119.896624 -35.032867 
L 117.605136 -35.032867 
L 116.841307 -35.032867 
L 116.077478 -35.032867 
L 115.313648 -35.032867 
L 114.549819 -35.032867 
L 112.258331 -35.032867 
L 111.494502 -35.032867 
L 110.730673 -35.032867 
L 109.966844 -35.032867 
L 109.203014 -35.032867 
L 106.911526 -35.032867 
L 106.147697 -35.032867 
L 105.383868 -35.032867 
L 104.620039 -35.032867 
L 103.856209 -35.032867 
L 101.564721 -35.032867 
L 100.800892 -35.032867 
L 100.037063 -35.032867 
L 99.273234 -35.032867 
L 98.509404 -35.032867 
L 96.217917 -35.032867 
L 95.454087 -35.032867 
L 94.690258 -35.032867 
L 93.926429 -35.032867 
L 93.162599 -35.032867 
L 90.871112 -35.032867 
L 90.107282 -35.032867 
L 89.343453 -35.032867 
L 88.579624 -35.032867 
L 87.815795 -35.032867 
L 85.524307 -35.032867 
L 84.760477 -35.032867 
L 83.996648 -35.032867 
L 83.232819 -35.032867 
L 80.177502 -35.032867 
L 79.413673 -35.032867 
L 78.649843 -35.032867 
L 77.886014 -35.032867 
L 77.122185 -35.032867 
L 74.830697 -35.032867 
L 74.066868 -35.032867 
L 73.303038 -35.032867 
L 72.539209 -35.032867 
L 71.77538 -35.032867 
L 69.483892 -35.032867 
L 68.720063 -35.032867 
L 67.956233 -35.032867 
L 67.192404 -35.032867 
L 66.428575 -35.032867 
L 64.137087 -35.032867 
L 63.373258 -35.032867 
L 62.609429 -35.032867 
L 61.845599 -35.032867 
L 61.08177 -35.032867 
L 58.790282 -35.032867 
L 58.026453 -35.032867 
L 57.262624 -35.032867 
L 56.498794 -35.032867 
L 55.734965 -35.032867 
z
" style="stroke: #1f6feb; stroke-opacity: 0.06"/>
    </defs>
    <g clip-path="url(#pbb3a88049f)">
     <use xlink:href="#m9ac5f2b946" x="0" y="259.2" style="fill: #1f6feb; fill-opacity: 0.06; stroke: #1f6feb; stroke-opacity: 0.06"/>
    </g>
   </g>
   <g id="matplotlib.axis_1">
    <g id="xtick_1">
     <g id="line2d_1">
      <defs>
       <path id="m76847f8ebd" d="M 0 0 
L 0 3.5 
" style="stroke: #57606a; stroke-width: 0.8"/>
      </defs>
      <g>
       <use xlink:href="#m76847f8ebd" x="34.347745" y="233.646154" style="fill: #57606a; stroke: #57606a; stroke-width: 0.8"/>
      </g>
     </g>
     <g id="text_1">
      <text style="fill: #57606a; font: 8px 'DejaVu Sans', 'Bitstream Vera Sans', 'Computer Modern Sans Serif', 'Lucida Grande', 'Verdana', 'Geneva', 'Lucid', 'Arial', 'Helvetica', 'Avant Garde', sans-serif; text-anchor: middle" x="34.347745" y="246.724904" transform="rotate(-0 34.347745 246.724904)">Jul '24</text>
     </g>
    </g>
    <g id="xtick_2">
     <g id="line2d_2">
      <g>
       <use xlink:href="#m76847f8ebd" x="104.620039" y="233.646154" style="fill: #57606a; stroke: #57606a; stroke-width: 0.8"/>
      </g>
     </g>
     <g id="text_2">
      <text style="fill: #57606a; font: 8px 'DejaVu Sans', 'Bitstream Vera Sans', 'Computer Modern Sans Serif', 'Lucida Grande', 'Verdana', 'Geneva', 'Lucid', 'Arial', 'Helvetica', 'Avant Garde', sans-serif; text-anchor: middle" x="104.620039" y="246.724904" transform="rotate(-0 104.620039 246.724904)">Oct '24</text>
     </g>
    </g>
    <g id="xtick_3">
     <g id="line2d_3">
      <g>
       <use xlink:href="#m76847f8ebd" x="174.892332" y="233.646154" style="fill: #57606a; stroke: #57606a; stroke-width: 0.8"/>
      </g>
     </g>
     <g id="text_3">
      <text style="fill: #57606a; font: 8px 'DejaVu Sans', 'Bitstream Vera Sans', 'Computer Modern Sans Serif', 'Lucida Grande', 'Verdana', 'Geneva', 'Lucid', 'Arial', 'Helvetica', 'Avant Garde', sans-serif; text-anchor: middle" x="174.892332" y="246.724904" transform="rotate(-0 174.892332 246.724904)">Jan '25</text>
     </g>
    </g>
    <g id="xtick_4">
     <g id="line2d_4">
      <g>
       <use xlink:href="#m76847f8ebd" x="243.636966" y="233.646154" style="fill: #57606a; stroke: #57606a; stroke-width: 0.8"/>
      </g>
     </g>
     <g id="text_4">
      <text style="fill: #57606a; font: 8px 'DejaVu Sans', 'Bitstream Vera Sans', 'Computer Modern Sans Serif', 'Lucida Grande', 'Verdana', 'Geneva', 'Lucid', 'Arial', 'Helvetica', 'Avant Garde', sans-serif; text-anchor: middle" x="243.636966" y="246.724904" transform="rotate(-0 243.636966 246.724904)">Apr '25</text>
     </g>
    </g>
    <g id="xtick_5">
     <g id="line2d_5">
      <g>
       <use xlink:href="#m76847f8ebd" x="313.14543" y="233.646154" style="fill: #57606a; stroke: #57606a; stroke-width: 0.8"/>
      </g>
     </g>
     <g id="text_5">
      <text style="fill: #57606a; font: 8px 'DejaVu Sans', 'Bitstream Vera Sans', 'Computer Modern Sans Serif', 'Lucida Grande', 'Verdana', 'Geneva', 'Lucid', 'Arial', 'Helvetica', 'Avant Garde', sans-serif; text-anchor: middle" x="313.14543" y="246.724904" transform="rotate(-0 313.14543 246.724904)">Jul '25</text>
     </g>
    </g>
    <g id="xtick_6">
     <g id="line2d_6">
      <g>
       <use xlink:href="#m76847f8ebd" x="383.417724" y="233.646154" style="fill: #57606a; stroke: #57606a; stroke-width: 0.8"/>
      </g>
     </g>
     <g id="text_6">
      <text style="fill: #57606a; font: 8px 'DejaVu Sans', 'Bitstream Vera Sans', 'Computer Modern Sans Serif', 'Lucida Grande', 'Verdana', 'Geneva', 'Lucid', 'Arial', 'Helvetica', 'Avant Garde', sans-serif; text-anchor: middle" x="383.417724" y="246.724904" transform="rotate(-0 383.417724 246.724904)">Oct '25</text>
     </g>
    </g>
    <g id="xtick_7">
     <g id="line2d_7">
      <g>
       <use xlink:href="#m76847f8ebd" x="453.690017" y="233.646154" style="fill: #57606a; stroke: #57606a; stroke-width: 0.8"/>
      </g>
     </g>
     <g id="text_7">
      <text style="fill: #57606a; font: 8px 'DejaVu Sans', 'Bitstream Vera Sans', 'Computer Modern Sans Serif', 'Lucida Grande', 'Verdana', 'Geneva', 'Lucid', 'Arial', 'Helvetica', 'Avant Garde', sans-serif; text-anchor: middle" x="453.690017" y="246.724904" transform="rotate(-0 453.690017 246.724904)">Jan '26</text>
     </g>
    </g>
    <g id="xtick_8">
     <g id="line2d_8">
      <g>
       <use xlink:href="#m76847f8ebd" x="522.434652" y="233.646154" style="fill: #57606a; stroke: #57606a; stroke-width: 0.8"/>
      </g>
     </g>
     <g id="text_8">
      <text style="fill: #57606a; font: 8px 'DejaVu Sans', 'Bitstream Vera Sans', 'Computer Modern Sans Serif', 'Lucida Grande', 'Verdana', 'Geneva', 'Lucid', 'Arial', 'Helvetica', 'Avant Garde', sans-serif; text-anchor: middle" x="522.434652" y="246.724904" transform="rotate(-0 522.434652 246.724904)">Apr '26</text>
     </g>
    </g>
    <g id="xtick_9">
     <g id="line2d_9">
      <g>
       <use xlink:href="#m76847f8ebd" x="591.943116" y="233.646154" style="fill: #57606a; stroke: #57606a; stroke-width: 0.8"/>
      </g>
     </g>
     <g id="text_9">
      <text style="fill: #57606a; font: 8px 'DejaVu Sans', 'Bitstream Vera Sans', 'Computer Modern Sans Serif', 'Lucida Grande', 'Verdana', 'Geneva', 'Lucid', 'Arial', 'Helvetica', 'Avant Garde', sans-serif; text-anchor: middle" x="591.943116" y="246.724904" transform="rotate(-0 591.943116 246.724904)">Jul '26</text>
     </g>
    </g>
   </g>
   <g id="matplotlib.axis_2">
    <g id="ytick_1">
     <g id="line2d_10">
      <path d="M 28.046154 202.386498 
L 637.2 202.386498 
" clip-path="url(#pbb3a88049f)" style="fill: none; stroke: #eaeef2; stroke-width: 0.8; stroke-linecap: square"/>
     </g>
     <g id="line2d_11">
      <defs>
       <path id="mc137c1877b" d="M 0 0 
L -3.5 0 
" style="stroke: #57606a; stroke-width: 0.8"/>
      </defs>
      <g>
       <use xlink:href="#mc137c1877b" x="28.046154" y="202.386498" style="fill: #57606a; stroke: #57606a; stroke-width: 0.8"/>
      </g>
     </g>
     <g id="text_10">
      <text style="fill: #57606a; font: 8px 'DejaVu Sans', 'Bitstream Vera Sans', 'Computer Modern Sans Serif', 'Lucida Grande', 'Verdana', 'Geneva', 'Lucid', 'Arial', 'Helvetica', 'Avant Garde', sans-serif; text-anchor: end" x="21.046154" y="205.425873" transform="rotate(-0 21.046154 205.425873)">6</text>
     </g>
    </g>
    <g id="ytick_2">
     <g id="line2d_12">
      <path d="M 28.046154 157.936224 
L 637.2 157.936224 
" clip-path="url(#pbb3a88049f)" style="fill: none; stroke: #eaeef2; stroke-width: 0.8; stroke-linecap: square"/>
     </g>
     <g id="line2d_13">
      <g>
       <use xlink:href="#mc137c1877b" x="28.046154" y="157.936224" style="fill: #57606a; stroke: #57606a; stroke-width: 0.8"/>
      </g>
     </g>
     <g id="text_11">
      <text style="fill: #57606a; font: 8px 'DejaVu Sans', 'Bitstream Vera Sans', 'Computer Modern Sans Serif', 'Lucida Grande', 'Verdana', 'Geneva', 'Lucid', 'Arial', 'Helvetica', 'Avant Garde', sans-serif; text-anchor: end" x="21.046154" y="160.975599" transform="rotate(-0 21.046154 160.975599)">8</text>
     </g>
    </g>
    <g id="ytick_3">
     <g id="line2d_14">
      <path d="M 28.046154 113.48595 
L 637.2 113.48595 
" clip-path="url(#pbb3a88049f)" style="fill: none; stroke: #eaeef2; stroke-width: 0.8; stroke-linecap: square"/>
     </g>
     <g id="line2d_15">
      <g>
       <use xlink:href="#mc137c1877b" x="28.046154" y="113.48595" style="fill: #57606a; stroke: #57606a; stroke-width: 0.8"/>
      </g>
     </g>
     <g id="text_12">
      <text style="fill: #57606a; font: 8px 'DejaVu Sans', 'Bitstream Vera Sans', 'Computer Modern Sans Serif', 'Lucida Grande', 'Verdana', 'Geneva', 'Lucid', 'Arial', 'Helvetica', 'Avant Garde', sans-serif; text-anchor: end" x="21.046154" y="116.525325" transform="rotate(-0 21.046154 116.525325)">10</text>
     </g>
    </g>
    <g id="ytick_4">
     <g id="line2d_16">
      <path d="M 28.046154 69.035676 
L 637.2 69.035676 
" clip-path="url(#pbb3a88049f)" style="fill: none; stroke: #eaeef2; stroke-width: 0.8; stroke-linecap: square"/>
     </g>
     <g id="line2d_17">
      <g>
       <use xlink:href="#mc137c1877b" x="28.046154" y="69.035676" style="fill: #57606a; stroke: #57606a; stroke-width: 0.8"/>
      </g>
     </g>
     <g id="text_13">
      <text style="fill: #57606a; font: 8px 'DejaVu Sans', 'Bitstream Vera Sans', 'Computer Modern Sans Serif', 'Lucida Grande', 'Verdana', 'Geneva', 'Lucid', 'Arial', 'Helvetica', 'Avant Garde', sans-serif; text-anchor: end" x="21.046154" y="72.075051" transform="rotate(-0 21.046154 72.075051)">12</text>
     </g>
    </g>
   </g>
   <g id="line2d_18">
    <path d="M 55.734965 192.82969 
L 56.498794 196.16346 
L 57.262624 193.051941 
L 58.026453 196.830214 
L 58.790282 201.497493 
L 61.08177 202.386498 
L 61.845599 199.497231 
L 62.609429 198.163722 
L 63.373258 194.163198 
L 64.137087 194.163198 
L 66.428575 196.385711 
L 67.956233 193.718695 
L 68.720063 183.717383 
L 69.483892 187.273405 
L 71.77538 187.717908 
L 73.303038 192.385187 
L 74.066868 194.163198 
L 74.830697 189.495919 
L 77.122185 195.274455 
L 77.886014 202.386498 
L 78.649843 202.386498 
L 79.413673 201.275242 
L 80.177502 199.497231 
L 83.232819 203.497755 
L 83.996648 207.49828 
L 84.760477 205.94252 
L 85.524307 209.498542 
L 87.815795 209.720794 
L 88.579624 211.276553 
L 90.107282 203.275504 
L 90.871112 202.164247 
L 93.162599 201.05299 
L 93.926429 199.497231 
L 94.690258 198.385974 
L 95.454087 194.385449 
L 96.217917 192.607438 
L 98.509404 193.051941 
L 99.273234 191.940684 
L 100.037063 194.607701 
L 100.800892 193.274192 
L 101.564721 197.496968 
L 103.856209 200.163985 
L 104.620039 204.386761 
L 105.383868 204.386761 
L 106.147697 203.053253 
L 106.911526 204.164509 
L 109.203014 205.053515 
L 109.966844 200.608488 
L 110.730673 201.275242 
L 111.494502 198.830477 
L 112.258331 199.274979 
L 114.549819 201.941996 
L 115.313648 204.164509 
L 116.841307 203.720007 
L 117.605136 203.053253 
L 119.896624 205.053515 
L 120.660453 205.94252 
L 121.424283 204.609012 
L 122.188112 201.941996 
L 122.951941 202.831001 
L 125.243429 214.388073 
L 126.007258 219.055351 
L 126.771088 219.277603 
L 127.534917 219.722105 
L 128.298746 220.611111 
L 130.590234 220.833362 
L 131.354063 218.610849 
L 132.117892 207.942783 
L 132.881722 200.608488 
L 133.645551 204.831264 
L 135.937039 210.165296 
L 136.700868 214.610324 
L 137.464697 217.499592 
L 138.228527 217.27734 
L 138.992356 214.165821 
L 141.283844 213.94357 
L 142.047673 214.832575 
L 142.811502 215.054827 
L 143.575332 214.610324 
L 144.339161 213.499067 
L 146.630649 207.942783 
L 147.394478 214.832575 
L 148.158307 215.054827 
L 149.685966 211.943307 
L 151.977454 209.05404 
L 152.741283 208.831788 
L 153.505112 207.720531 
L 154.268941 206.164772 
L 155.032771 206.609275 
L 157.324259 205.94252 
L 158.088088 208.387286 
L 158.851917 212.38781 
L 159.615746 211.721056 
L 160.379576 211.276553 
L 162.671063 211.276553 
L 163.434893 210.832051 
L 164.198722 212.610062 
L 164.962551 210.832051 
L 165.726381 210.165296 
L 168.017868 212.165559 
L 168.781698 209.943045 
L 170.309356 209.05404 
L 171.073185 209.498542 
L 173.364673 211.943307 
L 174.128503 210.387548 
L 175.656161 209.276291 
L 176.41999 209.943045 
L 178.711478 208.387286 
L 180.239137 209.276291 
L 184.058283 216.166084 
L 184.822112 215.721581 
L 185.585942 212.165559 
L 186.349771 214.610324 
L 187.1136 216.610586 
L 190.168917 213.276816 
L 190.932747 211.721056 
L 192.460405 202.831001 
L 194.751893 204.609012 
L 195.515722 205.94252 
L 196.279551 204.831264 
L 197.043381 200.608488 
L 197.80721 203.942258 
L 200.098698 201.719744 
L 200.862527 200.608488 
L 201.626356 202.831001 
L 202.390186 185.050892 
L 203.154015 187.051154 
L 206.209332 188.606913 
L 206.973161 189.273668 
L 207.736991 187.717908 
L 208.50082 186.606651 
L 211.556137 186.3844 
L 212.319966 187.717908 
L 213.083796 186.606651 
L 213.847625 190.607176 
L 216.139113 193.718695 
L 216.902942 192.607438 
L 217.666771 192.162935 
L 218.4306 195.941209 
L 221.485918 203.942258 
L 222.249747 203.942258 
L 223.013576 196.607963 
L 223.777405 194.385449 
L 224.541235 201.05299 
L 226.832722 204.609012 
L 227.596552 202.60875 
L 228.360381 202.386498 
L 229.12421 205.275766 
L 229.88804 201.941996 
L 232.179527 200.830739 
L 232.943357 200.830739 
L 233.707186 200.163985 
L 234.471015 201.719744 
L 235.234844 204.386761 
L 237.526332 201.05299 
L 238.290162 196.16346 
L 239.053991 202.60875 
L 239.81782 201.941996 
L 240.581649 209.943045 
L 242.873137 211.054302 
L 243.636966 209.05404 
L 244.400796 209.276291 
L 245.164625 212.165559 
L 245.928454 221.500116 
L 248.219942 222.166871 
L 248.983771 222.833625 
L 249.747601 217.27734 
L 250.51143 224.167133 
L 251.275259 220.611111 
L 253.566747 217.27734 
L 254.330576 219.499854 
L 255.094406 220.166608 
L 255.858235 215.721581 
L 258.913552 218.166346 
L 260.441211 211.054302 
L 261.20504 209.276291 
L 261.968869 204.164509 
L 264.260357 198.163722 
L 265.024186 200.386236 
L 265.788015 198.608225 
L 266.551845 200.163985 
L 267.315674 199.052728 
L 269.607162 199.941733 
L 270.370991 198.163722 
L 271.13482 193.051941 
L 271.89865 192.162935 
L 272.662479 193.274192 
L 274.953967 189.940422 
L 275.717796 184.161886 
L 276.481625 184.161886 
L 277.245455 183.495132 
L 278.009284 183.495132 
L 280.300772 182.383875 
L 281.064601 179.494607 
L 281.82843 179.93911 
L 282.592259 180.161361 
L 283.356089 177.272094 
L 286.411406 175.938585 
L 287.175235 178.827853 
L 287.939064 179.272356 
L 288.702894 183.495132 
L 290.994381 184.161886 
L 291.758211 184.161886 
L 292.52204 185.050892 
L 293.285869 184.384137 
L 294.049699 186.162148 
L 296.341186 185.273143 
L 297.105016 182.161624 
L 297.868845 181.050367 
L 298.632674 180.383613 
L 299.396503 185.273143 
L 301.687991 182.383875 
L 302.451821 184.384137 
L 303.21565 183.272881 
L 304.743308 185.050892 
L 307.034796 184.82864 
L 307.798626 181.49487 
L 308.562455 185.939897 
L 309.326284 183.939635 
L 310.090113 184.384137 
L 312.381601 181.717121 
L 313.14543 177.938848 
L 314.673089 175.04958 
L 317.728406 177.049842 
L 318.492235 175.494083 
L 319.256065 172.160312 
L 320.019894 171.049055 
L 320.783723 171.493558 
L 323.075211 171.715809 
L 323.83904 174.160574 
L 324.60287 171.938061 
L 325.366699 163.71476 
L 326.130528 166.381776 
L 328.422016 163.937011 
L 329.185845 159.936487 
L 329.949674 158.602978 
L 330.713504 152.37994 
L 331.477333 148.823918 
L 333.768821 148.823918 
L 334.53265 143.712137 
L 335.296479 145.93465 
L 336.060309 142.378628 
L 336.824138 149.046169 
L 339.115626 153.268945 
L 339.879455 150.601929 
L 340.643284 149.268421 
L 341.407114 145.267896 
L 342.170943 144.156639 
L 344.462431 143.489885 
L 345.22626 140.822869 
L 345.990089 142.60088 
L 346.753918 146.823656 
L 347.517748 146.156902 
L 349.809236 143.712137 
L 350.573065 143.489885 
L 351.336894 143.489885 
L 352.100723 140.378366 
L 352.864553 137.933601 
L 355.156041 138.600355 
L 355.91987 136.377841 
L 356.683699 137.266847 
L 357.447528 134.822082 
L 358.211358 133.710825 
L 361.266675 132.155065 
L 362.030504 132.155065 
L 362.794333 130.599306 
L 363.558163 126.821032 
L 365.84965 124.376267 
L 366.61348 127.043284 
L 367.377309 131.710562 
L 368.141138 124.82077 
L 368.904967 127.265535 
L 371.196455 123.709513 
L 371.960285 123.487262 
L 373.487943 128.599043 
L 374.251772 134.155328 
L 376.54326 130.821557 
L 377.307089 132.599568 
L 378.070919 136.15559 
L 378.834748 136.15559 
L 379.598577 135.711087 
L 381.890065 134.59983 
L 382.653894 135.933339 
L 383.417724 138.155852 
L 384.181553 134.377579 
L 384.945382 134.155328 
L 387.23687 135.933339 
L 388.000699 133.488573 
L 388.764529 129.488049 
L 389.528358 133.044071 
L 390.292187 132.377317 
L 392.583675 128.599043 
L 393.347504 123.487262 
L 394.111333 117.264223 
L 394.875163 120.153491 
L 395.638992 121.264748 
L 397.93048 123.26501 
L 398.694309 132.155065 
L 399.458138 131.26606 
L 400.221968 128.376792 
L 400.985797 127.710038 
L 403.277285 127.710038 
L 404.041114 107.04066 
L 404.804943 107.485163 
L 405.568773 110.596682 
L 406.332602 110.152179 
L 408.62409 110.152179 
L 409.387919 112.596945 
L 410.151748 107.485163 
L 410.915578 109.263174 
L 411.679407 109.040923 
L 413.970895 105.707152 
L 414.734724 102.15113 
L 416.262382 109.263174 
L 417.026212 111.041185 
L 419.3177 113.48595 
L 420.081529 108.818671 
L 420.845358 106.151655 
L 422.373017 112.819196 
L 424.664504 111.93019 
L 425.428334 104.151392 
L 426.192163 100.817622 
L 427.719822 95.928092 
L 430.011309 100.150868 
L 431.538968 93.927829 
L 432.302797 91.705316 
L 433.066626 95.039086 
L 435.358114 91.705316 
L 436.121944 92.149818 
L 436.885773 94.150081 
L 438.413431 79.925993 
L 440.704919 76.592222 
L 441.468748 79.48149 
L 442.232578 86.371283 
L 442.996407 78.814736 
L 443.760236 76.592222 
L 446.051724 73.925206 
L 446.815553 71.702692 
L 447.579383 72.591698 
L 449.107041 69.480179 
L 451.398529 73.702955 
L 452.162358 77.703479 
L 452.926188 80.370496 
L 454.453846 78.592485 
L 457.509163 70.813687 
L 458.272993 79.48149 
L 459.036822 63.034889 
L 459.800651 59.701118 
L 462.092139 59.256615 
L 462.855968 61.034626 
L 463.619797 56.367348 
L 464.383627 61.256878 
L 465.147456 58.145359 
L 468.202773 58.145359 
L 468.966602 48.58855 
L 469.730432 47.03279 
L 470.494261 48.810801 
L 472.785749 52.144572 
L 473.549578 49.477555 
L 474.313407 43.032265 
L 475.077237 49.255304 
L 475.841066 58.36761 
L 478.132554 54.589337 
L 478.896383 52.366823 
L 479.660212 66.813162 
L 480.424041 70.146933 
L 481.187871 64.590648 
L 483.479359 51.477817 
L 484.243188 48.144047 
L 485.007017 48.144047 
L 485.770846 63.034889 
L 486.534676 56.367348 
L 489.589993 57.923107 
L 491.117651 55.033839 
L 491.881481 49.033052 
L 494.172968 61.479129 
L 494.936798 56.367348 
L 495.700627 52.589074 
L 496.464456 52.144572 
L 497.228286 57.700856 
L 499.519773 65.701905 
L 500.283603 82.370758 
L 501.047432 70.369184 
L 501.811261 83.704266 
L 502.57509 93.038824 
L 504.866578 92.816573 
L 506.394237 99.928616 
L 507.158066 105.040398 
L 507.921895 104.373644 
L 510.213383 96.372594 
L 510.977212 101.039873 
L 511.741042 107.485163 
L 512.504871 106.818409 
L 513.2687 113.708201 
L 516.324017 94.594583 
L 517.087847 83.926518 
L 517.851676 92.149818 
L 518.615505 96.817097 
L 520.906993 97.706103 
L 521.670822 81.481753 
L 522.434652 78.147982 
L 523.198481 86.149031 
L 526.253798 83.259764 
L 527.017627 84.37102 
L 527.781456 73.925206 
L 528.545286 71.035938 
L 529.309115 70.813687 
L 531.600603 71.480441 
L 532.364432 73.0362 
L 533.128261 71.924944 
L 533.892091 76.592222 
L 534.65592 69.70243 
L 536.947408 69.035676 
L 537.711237 73.702955 
L 538.475066 74.147457 
L 539.238896 57.700856 
L 540.002725 61.034626 
L 542.294213 63.701643 
L 543.058042 66.146408 
L 543.821871 65.257403 
L 544.585701 62.368135 
L 545.34953 63.479392 
L 547.641018 71.480441 
L 548.404847 49.699807 
L 549.168676 34.586713 
L 549.932505 43.69902 
L 550.696335 44.365774 
L 552.987823 40.365249 
L 553.751652 43.032265 
L 554.515481 41.254254 
L 555.27931 43.254517 
L 556.04314 56.589599 
L 558.334627 53.47808 
L 559.098457 63.034889 
L 559.862286 54.144834 
L 560.626115 55.922845 
L 561.389945 56.589599 
L 564.445262 44.588025 
L 565.209091 42.14326 
L 565.97292 45.47703 
L 566.736749 44.810276 
L 569.028237 44.588025 
L 569.792067 45.47703 
L 570.555896 49.033052 
L 571.319725 48.144047 
L 572.083554 58.589861 
L 574.375042 68.14667 
L 575.138871 67.257665 
L 575.902701 73.480703 
L 576.66653 53.47808 
L 577.430359 47.255041 
L 579.721847 49.255304 
L 580.485676 47.255041 
L 581.249506 55.700594 
L 582.013335 52.811326 
L 585.068652 56.145096 
L 585.832481 65.479654 
L 586.596311 68.591173 
L 587.36014 60.590124 
L 588.123969 62.812637 
L 590.415457 65.924157 
L 591.179286 69.035676 
L 591.943116 66.146408 
L 592.706945 62.590386 
L 595.762262 61.923632 
L 596.526091 66.590911 
L 597.28992 65.257403 
L 598.05375 60.812375 
L 598.817579 58.36761 
L 601.109067 59.034364 
L 601.872896 51.255566 
L 602.636725 45.254779 
L 603.400555 44.588025 
L 604.164384 47.477293 
L 606.455872 58.145359 
L 607.219701 53.47808 
L 607.98353 53.033577 
L 608.74736 63.25714 
L 609.511189 67.702168 
L 609.511189 67.702168 
" clip-path="url(#pbb3a88049f)" style="fill: none; stroke: #1f6feb; stroke-width: 1.3; stroke-linecap: square"/>
   </g>
   <g id="patch_3">
    <path d="M 28.046154 233.646154 
L 28.046154 25.107692 
" style="fill: none; stroke: #000000; stroke-width: 0.8; stroke-linejoin: miter; stroke-linecap: square"/>
   </g>
   <g id="patch_4">
    <path d="M 28.046154 233.646154 
L 637.2 233.646154 
" style="fill: none; stroke: #000000; stroke-width: 0.8; stroke-linejoin: miter; stroke-linecap: square"/>
   </g>
   <g id="PathCollection_1">
    <defs>
     <path id="ma1bb8862d1" d="M -0 3.708099 
L 3.708099 -3.708099 
L -3.708099 -3.708099 
z
" style="stroke: #ffffff; stroke-width: 0.6"/>
    </defs>
    <g clip-path="url(#pbb3a88049f)">
     <use xlink:href="#ma1bb8862d1" x="386.473041" y="135.933339" style="fill: #cf222e; stroke: #ffffff; stroke-width: 0.6"/>
    </g>
   </g>
   <g id="text_14">
    <text style="fill: #24292f; font: 11px 'DejaVu Sans', 'Bitstream Vera Sans', 'Computer Modern Sans Serif', 'Lucida Grande', 'Verdana', 'Geneva', 'Lucid', 'Arial', 'Helvetica', 'Avant Garde', sans-serif; text-anchor: start" x="28.046154" y="19.107692" transform="rotate(-0 28.046154 19.107692)">CX — Cemex S.A.B. de C.V.</text>
   </g>
  </g>
 </g>
 <defs>
  <clipPath id="pbb3a88049f">
   <rect x="28.046154" y="25.107692" width="609.153846" height="208.538462"/>
  </clipPath>
 </defs>
</svg>
