<svg xmlns="http://www.w3.org/2000/svg" viewBox="0 0 900 360" role="img" aria-labelledby="title-ESS">
<title id="title-ESS">ESS — Essex Property Trust, Inc closing-price history</title>
<rect width="100%" height="100%" fill="#fff"/>
<text x="68" y="25" fill="#24292f" font-family="system-ui,sans-serif" font-size="16" font-weight="600">ESS — Essex Property Trust, Inc</text>
<line x1="68" y1="318.0" x2="880" y2="318.0" stroke="#eaeef2" stroke-width="1"/>
<text x="60" y="321.0" text-anchor="end" fill="#57606a" font-family="system-ui,sans-serif" font-size="11">$235</text>
<line x1="68" y1="251.5" x2="880" y2="251.5" stroke="#eaeef2" stroke-width="1"/>
<text x="60" y="254.5" text-anchor="end" fill="#57606a" font-family="system-ui,sans-serif" font-size="11">$256</text>
<line x1="68" y1="185.0" x2="880" y2="185.0" stroke="#eaeef2" stroke-width="1"/>
<text x="60" y="188.0" text-anchor="end" fill="#57606a" font-family="system-ui,sans-serif" font-size="11">$277</text>
<line x1="68" y1="118.5" x2="880" y2="118.5" stroke="#eaeef2" stroke-width="1"/>
<text x="60" y="121.5" text-anchor="end" fill="#57606a" font-family="system-ui,sans-serif" font-size="11">$299</text>
<line x1="68" y1="52.0" x2="880" y2="52.0" stroke="#eaeef2" stroke-width="1"/>
<text x="60" y="55.0" text-anchor="end" fill="#57606a" font-family="system-ui,sans-serif" font-size="11">$320</text>
<text x="68.0" y="342" text-anchor="middle" fill="#57606a" font-family="system-ui,sans-serif" font-size="11">Jul 2024</text>
<text x="271.8" y="342" text-anchor="middle" fill="#57606a" font-family="system-ui,sans-serif" font-size="11">Jan 2025</text>
<text x="474.6" y="342" text-anchor="middle" fill="#57606a" font-family="system-ui,sans-serif" font-size="11">Jul 2025</text>
<text x="677.3" y="342" text-anchor="middle" fill="#57606a" font-family="system-ui,sans-serif" font-size="11">Jan 2026</text>
<text x="880.0" y="342" text-anchor="middle" fill="#57606a" font-family="system-ui,sans-serif" font-size="11">Jul 2026</text>
<polyline points="68.0,157.9 69.1,174.2 70.2,181.9 71.3,158.9 72.5,171.5 75.8,200.0 76.9,175.5 78.0,184.8 79.1,179.0 80.3,168.5 83.6,171.8 84.7,162.7 85.8,157.4 86.9,161.0 88.0,164.2 91.4,159.8 92.5,154.3 93.6,147.8 94.7,144.3 95.8,126.2 99.2,130.8 100.3,127.9 101.4,126.2 102.5,120.0 103.6,108.3 108.1,105.4 109.2,108.8 110.3,107.6 111.4,119.5 114.8,113.7 115.9,87.9 117.0,87.9 118.1,81.8 119.2,69.7 122.6,66.2 123.7,75.7 124.8,75.4 125.9,74.8 127.0,94.4 130.4,83.5 131.5,113.2 132.6,121.7 133.7,132.2 134.8,130.9 138.2,128.3 139.3,136.8 140.4,135.8 141.5,146.2 142.6,145.7 146.0,151.9 147.1,150.1 148.2,151.0 149.3,160.1 150.4,151.4 153.8,141.1 154.9,137.1 156.0,121.8 157.1,132.0 158.2,124.9 161.6,141.0 162.7,134.6 163.8,114.0 164.9,108.3 166.0,127.6 169.4,114.9 170.5,118.8 171.6,132.7 172.7,164.6 173.8,186.3 177.2,174.8 178.3,142.2 179.4,133.5 180.5,124.8 181.6,99.2 185.0,100.9 186.1,111.3 187.2,91.0 188.3,105.3 189.4,108.3 192.8,105.9 193.9,108.3 195.0,112.0 196.1,100.2 197.2,96.5 200.5,83.7 201.7,83.2 202.8,73.5 205.0,81.0 208.3,101.0 209.5,110.7 210.6,109.5 211.7,114.9 212.8,113.6 216.1,110.7 217.3,121.3 218.4,120.0 219.5,106.7 220.6,114.5 223.9,116.9 225.1,132.4 226.2,164.2 227.3,179.9 228.4,164.9 231.7,163.1 232.9,155.4 235.1,152.5 236.2,162.8 239.5,168.0 240.6,159.7 242.9,178.3 244.0,163.4 247.3,199.4 248.4,208.0 249.6,199.9 251.8,202.2 255.1,167.5 256.2,162.7 257.4,167.8 258.5,165.0 259.6,166.0 264.0,160.3 265.2,177.1 266.3,184.2 267.4,183.3 270.7,167.0 271.8,173.0 272.9,187.4 274.1,173.1 275.2,162.4 278.5,163.0 279.6,154.3 280.7,127.1 281.9,120.0 283.0,138.6 286.3,141.5 287.4,140.3 288.5,144.0 289.7,140.2 290.8,150.4 295.2,142.9 296.3,141.5 297.5,131.5 298.6,130.4 301.9,118.7 303.0,110.0 304.1,109.0 305.3,101.6 306.4,77.5 309.7,70.3 310.8,90.0 311.9,88.0 313.0,109.4 314.2,108.4 317.5,116.6 318.6,127.9 319.7,136.3 320.8,149.7 322.0,129.6 325.3,113.0 326.4,117.3 327.5,116.2 328.6,107.3 329.8,113.7 333.1,97.5 334.2,104.4 335.3,94.3 336.4,98.8 337.6,95.0 340.9,93.2 342.0,96.6 343.1,91.2 344.2,131.6 345.3,205.0 348.7,232.1 349.8,256.5 350.9,202.1 352.0,230.7 353.1,228.7 356.5,199.8 357.6,197.5 358.7,202.2 359.8,191.6 364.3,205.4 365.4,188.2 366.5,185.9 367.6,187.5 368.7,190.9 372.1,184.4 373.2,192.0 374.3,179.4 375.4,162.7 376.5,136.5 379.9,150.6 381.0,157.2 382.1,161.2 383.2,171.6 384.3,168.3 387.7,157.0 388.8,174.2 389.9,181.0 391.0,159.7 392.1,149.4 395.5,156.4 396.6,153.2 397.7,183.6 398.8,196.4 399.9,209.9 404.4,193.7 405.5,182.5 406.6,170.2 407.7,164.5 411.1,162.1 412.2,174.2 413.3,168.1 414.4,182.6 415.5,179.6 418.9,165.1 420.0,152.0 421.1,157.3 422.2,146.1 423.3,162.7 426.7,160.6 427.8,165.6 428.9,164.2 431.1,163.1 434.5,158.5 435.6,157.8 436.7,170.8 437.8,152.5 438.9,159.8 442.3,166.1 443.4,161.8 444.5,166.1 445.6,163.6 450.1,165.5 451.2,158.0 452.3,161.7 453.4,155.5 454.5,155.9 457.8,162.5 459.0,175.4 460.1,157.6 461.2,154.7 462.3,153.6 465.6,161.0 466.8,138.8 467.9,137.2 469.0,153.5 470.1,154.6 473.4,166.8 474.6,143.2 475.7,213.0 476.8,239.1 477.9,250.0 481.2,256.8 482.4,247.9 483.5,256.9 484.6,249.0 485.7,256.7 489.0,264.5 490.2,258.5 491.3,243.6 492.4,251.6 493.5,241.6 496.8,250.8 497.9,232.2 499.1,233.2 500.2,231.0 501.3,218.4 504.6,222.5 505.7,224.6 506.9,215.7 508.0,214.8 509.1,207.5 513.5,237.8 514.7,234.9 515.8,225.5 516.9,214.1 520.2,221.7 521.3,211.8 522.5,228.2 523.6,211.9 524.7,217.4 528.0,225.1 529.1,222.2 530.2,220.1 531.4,212.5 532.5,215.9 535.8,219.6 536.9,215.0 538.0,225.2 539.2,228.1 540.3,215.1 543.6,220.1 544.7,215.6 545.8,218.9 547.0,227.4 548.1,225.6 551.4,235.4 552.5,233.1 553.6,233.0 554.8,242.6 555.9,252.7 559.2,247.3 560.3,241.6 561.4,248.6 562.6,247.2 563.7,240.8 567.0,237.1 568.1,233.4 569.2,226.4 570.3,227.8 571.5,225.0 574.8,232.3 575.9,251.7 577.0,279.9 578.1,271.6 579.3,265.5 582.6,257.5 583.7,250.5 584.8,238.5 585.9,251.4 587.1,238.3 590.4,239.2 591.5,234.3 592.6,255.5 593.7,259.7 594.9,256.7 598.2,263.9 599.3,259.8 600.4,256.5 601.5,253.1 602.7,235.9 606.0,238.9 607.1,236.0 608.2,233.0 610.4,228.3 613.8,238.9 614.9,237.3 616.0,240.3 617.1,247.3 618.2,254.2 621.6,264.1 622.7,264.2 623.8,254.7 624.9,245.5 626.0,247.1 629.4,242.0 630.5,254.0 631.6,231.9 632.7,236.3 633.8,247.8 637.2,237.0 638.3,240.6 639.4,236.1 641.6,232.9 645.0,230.2 646.1,227.3 647.2,234.4 649.4,249.4 652.8,261.5 653.9,250.3 655.0,267.8 656.1,249.2 657.2,267.9 660.6,270.8 661.7,271.3 662.8,261.1 663.9,260.0 665.0,245.1 669.5,251.4 670.6,248.3 671.7,261.8 672.8,258.3 676.2,261.9 677.3,265.6 678.4,285.3 679.5,271.5 680.6,265.2 684.0,275.9 685.1,278.7 686.2,263.0 687.3,266.4 688.4,245.7 691.8,246.6 692.9,231.8 694.0,235.2 695.1,266.8 696.2,267.4 700.7,260.6 701.8,251.7 702.9,257.2 704.0,256.9 707.4,254.3 708.5,244.7 709.6,239.9 710.7,231.0 711.8,255.0 715.1,252.1 716.3,253.8 717.4,252.0 718.5,245.2 719.6,255.0 722.9,254.3 724.1,257.6 725.2,270.4 726.3,266.7 727.4,271.2 730.7,273.9 731.9,267.8 733.0,281.5 734.1,282.8 735.2,301.9 738.5,294.4 739.7,291.5 740.8,295.8 741.9,290.9 743.0,303.8 746.3,294.3 747.5,296.2 748.6,292.8 749.7,279.4 754.1,278.3 755.2,276.4 756.4,265.1 757.5,271.0 758.6,270.9 761.9,274.4 763.0,266.6 764.2,265.7 765.3,277.4 766.4,255.5 769.7,244.2 770.8,261.1 772.0,264.2 773.1,255.2 774.2,254.2 777.5,249.6 778.6,214.9 779.8,224.2 780.9,229.6 782.0,229.1 785.3,225.0 786.4,218.6 787.6,216.8 788.7,216.5 789.8,228.5 793.1,212.1 794.2,212.5 795.3,202.1 796.5,212.8 797.6,217.4 800.9,201.2 802.0,199.9 803.1,192.4 804.3,196.3 805.4,187.1 809.8,185.4 810.9,186.7 812.1,188.0 813.2,199.9 816.5,186.4 817.6,184.4 818.7,183.7 819.9,162.3 821.0,159.7 824.3,170.5 825.4,161.7 826.5,162.2 827.6,174.9 828.8,165.0 832.1,172.4 833.2,175.0 834.3,194.4 835.4,196.5 839.9,188.5 841.0,179.0 842.1,171.6 843.2,159.3 844.4,128.5 847.7,126.7 848.8,140.3 849.9,129.0 851.0,119.1 855.5,120.2 856.6,119.2 857.7,140.4 858.8,141.8 860.0,134.2 863.3,121.8 864.4,119.8 865.5,136.6 866.6,122.0 867.7,136.1 871.1,133.3 872.2,132.7 873.3,135.7 874.4,135.3 875.5,134.4 878.9,143.2 880.0,131.1" fill="none" stroke="#1f6feb" stroke-width="2" stroke-linejoin="round" stroke-linecap="round" vector-effect="non-scaling-stroke"/>
<polygon points="420.0,145.0 414.0,157.0 426.0,157.0" fill="#1a7f37" stroke="#fff" stroke-width="1"/>
<polygon points="688.4,238.7 682.4,250.7 694.4,250.7" fill="#1a7f37" stroke="#fff" stroke-width="1"/>
<polygon points="872.2,125.7 866.2,137.7 878.2,137.7" fill="#1a7f37" stroke="#fff" stroke-width="1"/>
<polygon points="521.3,218.8 515.3,206.8 527.3,206.8" fill="#cf222e" stroke="#fff" stroke-width="1"/>
<polygon points="662.8,268.1 656.8,256.1 668.8,256.1" fill="#cf222e" stroke="#fff" stroke-width="1"/>
<polygon points="688.4,252.7 682.4,240.7 694.4,240.7" fill="#cf222e" stroke="#fff" stroke-width="1"/>
</svg>
