<svg xmlns="http://www.w3.org/2000/svg" viewBox="0 0 900 360" role="img" aria-labelledby="title-NVDA">
<title id="title-NVDA">NVDA — Nvidia Corp closing-price history</title>
<rect width="100%" height="100%" fill="#fff"/>
<text x="68" y="25" fill="#24292f" font-family="system-ui,sans-serif" font-size="16" font-weight="600">NVDA — Nvidia Corp</text>
<line x1="68" y1="318.0" x2="880" y2="318.0" stroke="#eaeef2" stroke-width="1"/>
<text x="60" y="321.0" text-anchor="end" fill="#57606a" font-family="system-ui,sans-serif" font-size="11">$85.82</text>
<line x1="68" y1="251.5" x2="880" y2="251.5" stroke="#eaeef2" stroke-width="1"/>
<text x="60" y="254.5" text-anchor="end" fill="#57606a" font-family="system-ui,sans-serif" font-size="11">$125</text>
<line x1="68" y1="185.0" x2="880" y2="185.0" stroke="#eaeef2" stroke-width="1"/>
<text x="60" y="188.0" text-anchor="end" fill="#57606a" font-family="system-ui,sans-serif" font-size="11">$165</text>
<line x1="68" y1="118.5" x2="880" y2="118.5" stroke="#eaeef2" stroke-width="1"/>
<text x="60" y="121.5" text-anchor="end" fill="#57606a" font-family="system-ui,sans-serif" font-size="11">$205</text>
<line x1="68" y1="52.0" x2="880" y2="52.0" stroke="#eaeef2" stroke-width="1"/>
<text x="60" y="55.0" text-anchor="end" fill="#57606a" font-family="system-ui,sans-serif" font-size="11">$244</text>
<text x="68.0" y="342" text-anchor="middle" fill="#57606a" font-family="system-ui,sans-serif" font-size="11">Aug 2024</text>
<text x="273.0" y="342" text-anchor="middle" fill="#57606a" font-family="system-ui,sans-serif" font-size="11">Feb 2025</text>
<text x="475.7" y="342" text-anchor="middle" fill="#57606a" font-family="system-ui,sans-serif" font-size="11">Aug 2025</text>
<text x="680.6" y="342" text-anchor="middle" fill="#57606a" font-family="system-ui,sans-serif" font-size="11">Feb 2026</text>
<text x="880.0" y="342" text-anchor="middle" fill="#57606a" font-family="system-ui,sans-serif" font-size="11">Aug 2026</text>
<polyline points="68.0,243.8 69.1,248.4 70.2,246.3 71.4,254.3 72.5,244.9 75.8,249.8 77.0,246.7 78.1,251.2 79.2,264.7 80.3,261.7 84.8,280.8 85.9,283.8 87.0,282.1 88.2,289.4 91.5,283.3 92.6,280.6 93.8,265.8 94.9,262.1 96.0,262.1 99.4,266.0 100.5,268.0 101.6,271.7 102.7,264.2 103.8,267.3 107.2,266.9 108.3,259.1 109.4,254.7 110.6,253.8 111.7,258.3 115.0,258.2 116.2,265.6 117.3,262.5 118.4,255.8 119.5,252.3 122.9,247.6 124.0,239.0 125.1,239.4 126.2,235.7 127.4,235.8 130.7,230.3 131.8,241.1 133.0,234.2 134.1,232.2 135.2,230.4 138.6,220.8 139.7,221.0 140.8,227.8 141.9,226.3 143.0,224.4 146.4,226.2 147.5,224.9 148.6,228.1 149.8,239.2 150.9,234.7 154.2,233.7 155.4,227.2 156.5,217.6 157.6,212.1 158.7,214.2 162.1,218.2 163.2,213.1 164.3,216.5 165.4,215.7 166.6,223.7 169.9,226.8 171.0,215.3 172.2,217.1 173.3,215.8 174.4,223.7 177.8,233.7 178.9,232.2 180.0,234.8 182.2,230.0 185.6,229.3 186.7,226.6 187.8,218.4 189.0,218.5 190.1,222.9 193.4,229.0 194.6,235.3 195.7,228.2 196.8,231.5 197.9,236.7 201.3,240.5 202.4,243.2 203.5,245.6 204.6,242.7 205.8,235.9 209.1,227.6 210.2,226.7 212.5,227.1 213.6,232.0 217.0,231.2 218.1,236.6 220.3,229.9 221.4,219.5 224.8,211.2 225.9,226.8 227.0,226.8 229.3,233.9 232.6,238.4 233.8,240.9 234.9,233.3 236.0,237.8 237.1,230.9 241.6,225.6 242.7,215.2 243.8,214.9 245.0,222.6 248.3,263.3 249.4,245.5 250.6,254.4 251.7,252.8 252.8,260.5 256.2,266.2 257.3,262.9 258.4,252.5 259.5,246.0 260.6,244.1 264.0,237.8 265.1,239.1 266.2,241.9 267.4,234.9 268.5,229.0 273.0,228.0 274.1,228.3 275.2,226.8 276.3,236.4 279.7,243.3 280.8,249.5 281.9,241.7 283.0,260.4 284.2,252.3 287.5,270.6 288.6,267.3 289.8,265.1 290.9,276.4 292.0,272.9 295.4,282.5 296.5,279.5 297.6,267.8 298.7,268.0 299.8,257.8 303.2,261.4 304.3,268.3 305.4,264.8 306.6,263.1 307.7,264.5 311.0,258.2 312.2,259.5 313.3,271.1 314.4,275.0 315.5,278.0 318.9,280.1 320.0,277.2 321.1,276.7 322.2,291.2 323.4,303.8 326.7,298.2 327.8,300.4 329.0,270.1 330.1,281.5 331.2,275.8 334.6,276.2 335.7,273.7 336.8,286.7 337.9,291.7 342.4,299.4 343.5,296.1 344.6,289.6 345.8,283.4 346.9,275.7 350.2,279.5 351.4,279.0 352.5,279.2 353.6,274.7 354.7,269.8 358.1,271.0 359.2,271.5 360.3,265.5 361.4,265.0 362.6,266.2 365.9,255.6 367.0,243.9 368.2,234.8 369.3,235.7 370.4,234.7 373.8,234.5 374.9,236.5 376.0,240.8 377.1,239.1 378.2,241.7 382.7,234.6 383.8,235.7 385.0,228.4 386.1,235.2 389.4,231.4 390.6,225.0 391.7,223.8 392.8,227.0 393.9,224.1 397.3,222.6 398.4,220.4 399.5,222.3 400.6,218.6 401.8,223.7 405.1,219.1 406.2,220.1 407.4,217.8 409.6,220.6 413.0,220.0 414.1,213.8 415.2,203.0 416.3,201.8 417.4,197.2 420.8,196.8 421.9,204.7 423.0,198.1 424.2,194.5 428.6,196.4 429.8,193.4 430.9,188.6 432.0,186.6 433.1,185.2 436.5,186.6 437.6,175.5 438.7,174.3 439.8,171.6 441.0,172.6 444.3,174.3 445.4,181.6 446.6,175.3 447.7,170.4 448.8,170.8 452.2,165.3 453.3,167.4 454.4,161.1 455.5,163.4 456.6,170.4 460.0,159.9 461.1,162.8 462.2,160.8 463.4,158.6 464.5,155.3 467.8,156.4 469.0,154.5 470.1,157.2 471.2,156.5 472.3,159.1 475.7,156.5 476.8,167.2 477.9,167.6 479.0,168.3 480.2,163.2 483.5,160.2 484.6,156.9 485.8,157.2 486.9,159.6 488.0,169.6 492.5,175.3 493.6,175.6 494.7,173.9 495.8,181.6 499.2,179.5 500.3,175.4 501.4,164.3 502.6,164.6 503.7,163.5 507.0,163.6 508.2,168.5 509.3,176.2 510.4,166.2 511.5,165.4 514.9,153.8 516.0,162.5 517.1,164.9 518.2,163.7 519.4,162.9 522.7,156.7 523.8,148.8 525.0,147.7 526.1,144.9 527.2,147.1 530.6,150.5 531.7,151.4 532.8,144.6 533.9,138.7 535.0,154.5 538.4,145.9 539.5,159.8 540.6,160.1 541.8,156.8 542.9,154.4 546.2,155.4 547.4,157.9 548.5,159.4 549.6,156.2 550.7,149.3 554.1,140.6 555.2,124.5 556.3,114.4 557.4,121.4 558.6,122.1 561.9,114.7 563.0,128.5 564.2,134.3 565.3,146.3 566.4,146.2 569.8,127.9 570.9,137.8 572.0,136.7 573.1,148.3 574.2,142.8 577.6,148.8 578.7,157.6 579.8,148.9 581.0,158.8 582.1,161.7 585.4,155.6 586.6,163.5 587.7,159.4 589.9,164.9 593.3,160.0 594.4,157.4 595.5,160.5 596.6,154.2 597.8,155.8 601.1,150.5 602.2,151.5 603.4,153.5 604.5,158.3 605.6,168.2 609.0,166.1 610.1,163.7 611.2,175.1 612.3,169.7 613.4,158.2 616.8,153.7 617.9,144.4 619.0,145.4 621.3,142.2 624.6,146.0 625.8,147.2 626.9,148.9 629.1,145.0 632.5,146.2 633.6,147.7 634.7,144.6 635.8,151.4 637.0,151.7 640.3,151.6 641.4,150.1 642.6,154.6 643.7,148.0 644.8,149.4 649.3,163.1 650.4,154.3 651.5,151.7 652.6,147.0 656.0,149.0 657.1,145.5 658.2,140.5 659.4,138.8 660.5,141.2 663.8,150.4 665.0,159.3 666.1,169.6 667.2,173.5 668.3,150.8 671.7,143.0 672.8,145.5 673.9,143.0 675.0,148.2 676.2,155.1 680.6,151.5 681.8,146.5 682.9,146.6 684.0,143.4 687.4,140.5 688.5,138.3 689.6,133.7 690.7,151.6 691.8,164.6 695.2,155.7 696.3,159.8 697.4,154.7 698.6,154.2 699.7,163.5 703.0,155.4 704.2,151.8 705.3,149.7 706.4,154.6 707.5,159.4 710.9,154.4 712.0,156.6 713.1,159.2 714.2,162.3 715.4,172.1 718.7,167.2 719.8,167.9 721.0,162.1 722.1,174.6 723.2,180.8 726.6,184.8 727.7,169.3 728.8,167.0 729.9,164.2 734.4,163.8 735.5,163.0 736.6,156.4 737.8,153.3 738.9,145.4 742.2,144.2 743.4,132.1 744.5,128.2 745.6,129.0 746.7,123.4 750.1,122.8 751.2,126.5 752.3,122.1 753.4,126.9 754.6,112.4 757.9,98.4 759.0,104.2 760.2,110.7 761.3,127.0 762.4,128.9 765.8,128.8 766.9,132.1 768.0,113.1 769.1,107.0 770.2,100.7 773.6,93.6 774.7,91.4 775.8,82.9 777.0,66.3 778.1,83.7 781.4,88.8 782.6,91.7 783.7,86.9 784.8,93.5 785.9,100.5 790.4,101.3 791.5,105.1 792.6,102.3 793.8,107.6 797.1,85.4 798.2,87.9 799.4,101.5 800.5,94.9 801.6,117.7 805.0,111.8 806.1,112.5 807.2,125.6 808.3,118.1 809.4,117.6 812.8,105.4 813.9,113.8 815.0,118.5 816.2,108.3 820.6,111.7 821.8,126.2 822.9,127.9 824.0,133.4 825.1,138.8 828.5,134.7 829.6,126.1 830.7,130.3 831.8,134.9 836.3,133.7 837.4,131.4 838.6,119.3 839.7,121.6 840.8,107.9 844.2,120.3 845.3,106.5 846.4,105.3 847.5,113.8 848.6,121.5 852.0,120.8 853.1,114.0 854.2,106.0 855.4,111.6 856.5,114.8 859.8,132.1 861.0,131.3 862.1,143.0 863.2,134.6 864.3,125.0 867.7,115.1 868.8,106.2 869.9,94.0 871.0,94.4 872.2,86.0 875.5,96.8 876.6,96.9 877.8,85.8 878.9,83.8 880.0,84.0" fill="none" stroke="#1f6feb" stroke-width="2" stroke-linejoin="round" stroke-linecap="round" vector-effect="non-scaling-stroke"/>
<polygon points="71.4,247.3 65.4,259.3 77.4,259.3" fill="#1a7f37" stroke="#fff" stroke-width="1"/>
<polygon points="84.8,273.8 78.8,285.8 90.8,285.8" fill="#1a7f37" stroke="#fff" stroke-width="1"/>
<polygon points="85.9,276.8 79.9,288.8 91.9,288.8" fill="#1a7f37" stroke="#fff" stroke-width="1"/>
<polygon points="94.9,255.1 88.9,267.1 100.9,267.1" fill="#1a7f37" stroke="#fff" stroke-width="1"/>
<polygon points="99.4,259.0 93.4,271.0 105.4,271.0" fill="#1a7f37" stroke="#fff" stroke-width="1"/>
<polygon points="150.9,227.7 144.9,239.7 156.9,239.7" fill="#1a7f37" stroke="#fff" stroke-width="1"/>
<polygon points="163.2,206.1 157.2,218.1 169.2,218.1" fill="#1a7f37" stroke="#fff" stroke-width="1"/>
<polygon points="180.0,227.8 174.0,239.8 186.0,239.8" fill="#1a7f37" stroke="#fff" stroke-width="1"/>
<polygon points="193.4,222.0 187.4,234.0 199.4,234.0" fill="#1a7f37" stroke="#fff" stroke-width="1"/>
<polygon points="213.6,225.0 207.6,237.0 219.6,237.0" fill="#1a7f37" stroke="#fff" stroke-width="1"/>
<polygon points="229.3,226.9 223.3,238.9 235.3,238.9" fill="#1a7f37" stroke="#fff" stroke-width="1"/>
<polygon points="237.1,223.9 231.1,235.9 243.1,235.9" fill="#1a7f37" stroke="#fff" stroke-width="1"/>
<polygon points="248.3,256.3 242.3,268.3 254.3,268.3" fill="#1a7f37" stroke="#fff" stroke-width="1"/>
<polygon points="264.0,230.8 258.0,242.8 270.0,242.8" fill="#1a7f37" stroke="#fff" stroke-width="1"/>
<polygon points="290.9,269.4 284.9,281.4 296.9,281.4" fill="#1a7f37" stroke="#fff" stroke-width="1"/>
<polygon points="295.4,275.5 289.4,287.5 301.4,287.5" fill="#1a7f37" stroke="#fff" stroke-width="1"/>
<polygon points="305.4,257.8 299.4,269.8 311.4,269.8" fill="#1a7f37" stroke="#fff" stroke-width="1"/>
<polygon points="314.4,268.0 308.4,280.0 320.4,280.0" fill="#1a7f37" stroke="#fff" stroke-width="1"/>
<polygon points="327.8,293.4 321.8,305.4 333.8,305.4" fill="#1a7f37" stroke="#fff" stroke-width="1"/>
<polygon points="331.2,268.8 325.2,280.8 337.2,280.8" fill="#1a7f37" stroke="#fff" stroke-width="1"/>
<polygon points="336.8,279.7 330.8,291.7 342.8,291.7" fill="#1a7f37" stroke="#fff" stroke-width="1"/>
<polygon points="337.9,284.7 331.9,296.7 343.9,296.7" fill="#1a7f37" stroke="#fff" stroke-width="1"/>
<polygon points="359.2,264.5 353.2,276.5 365.2,276.5" fill="#1a7f37" stroke="#fff" stroke-width="1"/>
<polygon points="362.6,259.2 356.6,271.2 368.6,271.2" fill="#1a7f37" stroke="#fff" stroke-width="1"/>
<polygon points="365.9,248.6 359.9,260.6 371.9,260.6" fill="#1a7f37" stroke="#fff" stroke-width="1"/>
<polygon points="365.9,248.6 359.9,260.6 371.9,260.6" fill="#1a7f37" stroke="#fff" stroke-width="1"/>
<polygon points="373.8,227.5 367.8,239.5 379.8,239.5" fill="#1a7f37" stroke="#fff" stroke-width="1"/>
<polygon points="389.4,224.4 383.4,236.4 395.4,236.4" fill="#1a7f37" stroke="#fff" stroke-width="1"/>
<polygon points="397.3,215.6 391.3,227.6 403.3,227.6" fill="#1a7f37" stroke="#fff" stroke-width="1"/>
<polygon points="405.1,212.1 399.1,224.1 411.1,224.1" fill="#1a7f37" stroke="#fff" stroke-width="1"/>
<polygon points="413.0,213.0 407.0,225.0 419.0,225.0" fill="#1a7f37" stroke="#fff" stroke-width="1"/>
<polygon points="413.0,213.0 407.0,225.0 419.0,225.0" fill="#1a7f37" stroke="#fff" stroke-width="1"/>
<polygon points="421.9,197.7 415.9,209.7 427.9,209.7" fill="#1a7f37" stroke="#fff" stroke-width="1"/>
<polygon points="430.9,181.6 424.9,193.6 436.9,193.6" fill="#1a7f37" stroke="#fff" stroke-width="1"/>
<polygon points="438.7,167.3 432.7,179.3 444.7,179.3" fill="#1a7f37" stroke="#fff" stroke-width="1"/>
<polygon points="462.2,153.8 456.2,165.8 468.2,165.8" fill="#1a7f37" stroke="#fff" stroke-width="1"/>
<polygon points="463.4,151.6 457.4,163.6 469.4,163.6" fill="#1a7f37" stroke="#fff" stroke-width="1"/>
<polygon points="469.0,147.5 463.0,159.5 475.0,159.5" fill="#1a7f37" stroke="#fff" stroke-width="1"/>
<polygon points="470.1,150.2 464.1,162.2 476.1,162.2" fill="#1a7f37" stroke="#fff" stroke-width="1"/>
<polygon points="475.7,149.5 469.7,161.5 481.7,161.5" fill="#1a7f37" stroke="#fff" stroke-width="1"/>
<polygon points="477.9,160.6 471.9,172.6 483.9,172.6" fill="#1a7f37" stroke="#fff" stroke-width="1"/>
<polygon points="493.6,168.6 487.6,180.6 499.6,180.6" fill="#1a7f37" stroke="#fff" stroke-width="1"/>
<polygon points="503.7,156.5 497.7,168.5 509.7,168.5" fill="#1a7f37" stroke="#fff" stroke-width="1"/>
<polygon points="523.8,141.8 517.8,153.8 529.8,153.8" fill="#1a7f37" stroke="#fff" stroke-width="1"/>
<polygon points="572.0,129.7 566.0,141.7 578.0,141.7" fill="#1a7f37" stroke="#fff" stroke-width="1"/>
<polygon points="578.7,150.6 572.7,162.6 584.7,162.6" fill="#1a7f37" stroke="#fff" stroke-width="1"/>
<polygon points="582.1,154.7 576.1,166.7 588.1,166.7" fill="#1a7f37" stroke="#fff" stroke-width="1"/>
<polygon points="609.0,159.1 603.0,171.1 615.0,171.1" fill="#1a7f37" stroke="#fff" stroke-width="1"/>
<polygon points="613.4,151.2 607.4,163.2 619.4,163.2" fill="#1a7f37" stroke="#fff" stroke-width="1"/>
<polygon points="641.4,143.1 635.4,155.1 647.4,155.1" fill="#1a7f37" stroke="#fff" stroke-width="1"/>
<polygon points="644.8,142.4 638.8,154.4 650.8,154.4" fill="#1a7f37" stroke="#fff" stroke-width="1"/>
<polygon points="652.6,140.0 646.6,152.0 658.6,152.0" fill="#1a7f37" stroke="#fff" stroke-width="1"/>
<polygon points="656.0,142.0 650.0,154.0 662.0,154.0" fill="#1a7f37" stroke="#fff" stroke-width="1"/>
<polygon points="672.8,138.5 666.8,150.5 678.8,150.5" fill="#1a7f37" stroke="#fff" stroke-width="1"/>
<polygon points="676.2,148.1 670.2,160.1 682.2,160.1" fill="#1a7f37" stroke="#fff" stroke-width="1"/>
<polygon points="735.5,156.0 729.5,168.0 741.5,168.0" fill="#1a7f37" stroke="#fff" stroke-width="1"/>
<polygon points="743.4,125.1 737.4,137.1 749.4,137.1" fill="#1a7f37" stroke="#fff" stroke-width="1"/>
<polygon points="775.8,75.9 769.8,87.9 781.8,87.9" fill="#1a7f37" stroke="#fff" stroke-width="1"/>
<polygon points="836.3,126.7 830.3,138.7 842.3,138.7" fill="#1a7f37" stroke="#fff" stroke-width="1"/>
<polygon points="847.5,106.8 841.5,118.8 853.5,118.8" fill="#1a7f37" stroke="#fff" stroke-width="1"/>
<polygon points="853.1,107.0 847.1,119.0 859.1,119.0" fill="#1a7f37" stroke="#fff" stroke-width="1"/>
<polygon points="872.2,79.0 866.2,91.0 878.2,91.0" fill="#1a7f37" stroke="#fff" stroke-width="1"/>
<polygon points="88.2,296.4 82.2,284.4 94.2,284.4" fill="#cf222e" stroke="#fff" stroke-width="1"/>
<polygon points="156.5,224.6 150.5,212.6 162.5,212.6" fill="#cf222e" stroke="#fff" stroke-width="1"/>
<polygon points="157.6,219.1 151.6,207.1 163.6,207.1" fill="#cf222e" stroke="#fff" stroke-width="1"/>
<polygon points="163.2,220.1 157.2,208.1 169.2,208.1" fill="#cf222e" stroke="#fff" stroke-width="1"/>
<polygon points="189.0,225.5 183.0,213.5 195.0,213.5" fill="#cf222e" stroke="#fff" stroke-width="1"/>
<polygon points="194.6,242.3 188.6,230.3 200.6,230.3" fill="#cf222e" stroke="#fff" stroke-width="1"/>
<polygon points="227.0,233.8 221.0,221.8 233.0,221.8" fill="#cf222e" stroke="#fff" stroke-width="1"/>
<polygon points="233.8,247.9 227.8,235.9 239.8,235.9" fill="#cf222e" stroke="#fff" stroke-width="1"/>
<polygon points="237.1,237.9 231.1,225.9 243.1,225.9" fill="#cf222e" stroke="#fff" stroke-width="1"/>
<polygon points="264.0,244.8 258.0,232.8 270.0,232.8" fill="#cf222e" stroke="#fff" stroke-width="1"/>
<polygon points="267.4,241.9 261.4,229.9 273.4,229.9" fill="#cf222e" stroke="#fff" stroke-width="1"/>
<polygon points="289.8,272.1 283.8,260.1 295.8,260.1" fill="#cf222e" stroke="#fff" stroke-width="1"/>
<polygon points="299.8,264.8 293.8,252.8 305.8,252.8" fill="#cf222e" stroke="#fff" stroke-width="1"/>
<polygon points="314.4,282.0 308.4,270.0 320.4,270.0" fill="#cf222e" stroke="#fff" stroke-width="1"/>
<polygon points="327.8,307.4 321.8,295.4 333.8,295.4" fill="#cf222e" stroke="#fff" stroke-width="1"/>
<polygon points="329.0,277.1 323.0,265.1 335.0,265.1" fill="#cf222e" stroke="#fff" stroke-width="1"/>
<polygon points="331.2,282.8 325.2,270.8 337.2,270.8" fill="#cf222e" stroke="#fff" stroke-width="1"/>
<polygon points="361.4,272.0 355.4,260.0 367.4,260.0" fill="#cf222e" stroke="#fff" stroke-width="1"/>
<polygon points="365.9,262.6 359.9,250.6 371.9,250.6" fill="#cf222e" stroke="#fff" stroke-width="1"/>
<polygon points="367.0,250.9 361.0,238.9 373.0,238.9" fill="#cf222e" stroke="#fff" stroke-width="1"/>
<polygon points="368.2,241.8 362.2,229.8 374.2,229.8" fill="#cf222e" stroke="#fff" stroke-width="1"/>
<polygon points="370.4,241.7 364.4,229.7 376.4,229.7" fill="#cf222e" stroke="#fff" stroke-width="1"/>
<polygon points="413.0,227.0 407.0,215.0 419.0,215.0" fill="#cf222e" stroke="#fff" stroke-width="1"/>
<polygon points="460.0,166.9 454.0,154.9 466.0,154.9" fill="#cf222e" stroke="#fff" stroke-width="1"/>
<polygon points="470.1,164.2 464.1,152.2 476.1,152.2" fill="#cf222e" stroke="#fff" stroke-width="1"/>
<polygon points="477.9,174.6 471.9,162.6 483.9,162.6" fill="#cf222e" stroke="#fff" stroke-width="1"/>
<polygon points="527.2,154.1 521.2,142.1 533.2,142.1" fill="#cf222e" stroke="#fff" stroke-width="1"/>
<polygon points="535.0,161.5 529.0,149.5 541.0,149.5" fill="#cf222e" stroke="#fff" stroke-width="1"/>
<polygon points="561.9,121.7 555.9,109.7 567.9,109.7" fill="#cf222e" stroke="#fff" stroke-width="1"/>
<polygon points="582.1,168.7 576.1,156.7 588.1,156.7" fill="#cf222e" stroke="#fff" stroke-width="1"/>
<polygon points="640.3,158.6 634.3,146.6 646.3,146.6" fill="#cf222e" stroke="#fff" stroke-width="1"/>
<polygon points="641.4,157.1 635.4,145.1 647.4,145.1" fill="#cf222e" stroke="#fff" stroke-width="1"/>
<polygon points="652.6,154.0 646.6,142.0 658.6,142.0" fill="#cf222e" stroke="#fff" stroke-width="1"/>
<polygon points="656.0,156.0 650.0,144.0 662.0,144.0" fill="#cf222e" stroke="#fff" stroke-width="1"/>
<polygon points="666.1,176.6 660.1,164.6 672.1,164.6" fill="#cf222e" stroke="#fff" stroke-width="1"/>
<polygon points="680.6,158.5 674.6,146.5 686.6,146.5" fill="#cf222e" stroke="#fff" stroke-width="1"/>
<polygon points="734.4,170.8 728.4,158.8 740.4,158.8" fill="#cf222e" stroke="#fff" stroke-width="1"/>
<polygon points="735.5,170.0 729.5,158.0 741.5,158.0" fill="#cf222e" stroke="#fff" stroke-width="1"/>
<polygon points="751.2,133.5 745.2,121.5 757.2,121.5" fill="#cf222e" stroke="#fff" stroke-width="1"/>
<polygon points="759.0,111.2 753.0,99.2 765.0,99.2" fill="#cf222e" stroke="#fff" stroke-width="1"/>
<polygon points="762.4,135.9 756.4,123.9 768.4,123.9" fill="#cf222e" stroke="#fff" stroke-width="1"/>
<polygon points="770.2,107.7 764.2,95.7 776.2,95.7" fill="#cf222e" stroke="#fff" stroke-width="1"/>
<polygon points="784.8,100.5 778.8,88.5 790.8,88.5" fill="#cf222e" stroke="#fff" stroke-width="1"/>
<polygon points="798.2,94.9 792.2,82.9 804.2,82.9" fill="#cf222e" stroke="#fff" stroke-width="1"/>
<polygon points="806.1,119.5 800.1,107.5 812.1,107.5" fill="#cf222e" stroke="#fff" stroke-width="1"/>
<polygon points="815.0,125.5 809.0,113.5 821.0,113.5" fill="#cf222e" stroke="#fff" stroke-width="1"/>
<polygon points="831.8,141.9 825.8,129.9 837.8,129.9" fill="#cf222e" stroke="#fff" stroke-width="1"/>
<polygon points="838.6,126.3 832.6,114.3 844.6,114.3" fill="#cf222e" stroke="#fff" stroke-width="1"/>
<polygon points="848.6,128.5 842.6,116.5 854.6,116.5" fill="#cf222e" stroke="#fff" stroke-width="1"/>
<polygon points="859.8,139.1 853.8,127.1 865.8,127.1" fill="#cf222e" stroke="#fff" stroke-width="1"/>
<polygon points="872.2,93.0 866.2,81.0 878.2,81.0" fill="#cf222e" stroke="#fff" stroke-width="1"/>
</svg>
