<svg xmlns="http://www.w3.org/2000/svg" viewBox="0 0 900 360" role="img" aria-labelledby="title-OC">
<title id="title-OC">OC — Owens Corning closing-price history</title>
<rect width="100%" height="100%" fill="#fff"/>
<text x="68" y="25" fill="#24292f" font-family="system-ui,sans-serif" font-size="16" font-weight="600">OC — Owens Corning</text>
<line x1="68" y1="318.0" x2="880" y2="318.0" stroke="#eaeef2" stroke-width="1"/>
<text x="60" y="321.0" text-anchor="end" fill="#57606a" font-family="system-ui,sans-serif" font-size="11">$91.53</text>
<line x1="68" y1="251.5" x2="880" y2="251.5" stroke="#eaeef2" stroke-width="1"/>
<text x="60" y="254.5" text-anchor="end" fill="#57606a" font-family="system-ui,sans-serif" font-size="11">$123</text>
<line x1="68" y1="185.0" x2="880" y2="185.0" stroke="#eaeef2" stroke-width="1"/>
<text x="60" y="188.0" text-anchor="end" fill="#57606a" font-family="system-ui,sans-serif" font-size="11">$155</text>
<line x1="68" y1="118.5" x2="880" y2="118.5" stroke="#eaeef2" stroke-width="1"/>
<text x="60" y="121.5" text-anchor="end" fill="#57606a" font-family="system-ui,sans-serif" font-size="11">$186</text>
<line x1="68" y1="52.0" x2="880" y2="52.0" stroke="#eaeef2" stroke-width="1"/>
<text x="60" y="55.0" text-anchor="end" fill="#57606a" font-family="system-ui,sans-serif" font-size="11">$218</text>
<text x="68.0" y="342" text-anchor="middle" fill="#57606a" font-family="system-ui,sans-serif" font-size="11">Aug 2024</text>
<text x="272.1" y="342" text-anchor="middle" fill="#57606a" font-family="system-ui,sans-serif" font-size="11">Feb 2025</text>
<text x="475.1" y="342" text-anchor="middle" fill="#57606a" font-family="system-ui,sans-serif" font-size="11">Aug 2025</text>
<text x="677.0" y="342" text-anchor="middle" fill="#57606a" font-family="system-ui,sans-serif" font-size="11">Feb 2026</text>
<text x="880.0" y="342" text-anchor="middle" fill="#57606a" font-family="system-ui,sans-serif" font-size="11">Aug 2026</text>
<polyline points="68.0,164.3 69.1,178.6 70.2,186.1 71.3,183.8 72.5,179.8 75.8,183.5 76.9,174.6 78.0,176.6 79.2,169.6 80.3,174.4 83.6,168.0 84.7,172.1 85.8,166.4 87.0,166.0 88.1,148.6 91.4,149.4 92.5,158.2 93.7,161.0 94.8,159.8 95.9,155.1 100.3,174.3 101.5,173.5 102.6,175.7 103.7,179.5 107.0,180.8 108.2,178.2 109.3,173.7 110.4,169.9 111.5,161.7 114.8,157.1 116.0,150.7 117.1,147.5 118.2,135.2 119.3,143.5 122.7,143.2 123.8,143.1 124.9,151.7 126.0,143.9 127.1,143.3 130.5,138.6 131.6,142.8 132.7,147.1 133.8,147.2 134.9,148.1 138.3,128.3 139.4,126.9 140.5,127.1 141.6,139.9 142.7,130.3 146.1,115.5 147.2,116.5 148.3,114.5 149.4,115.6 150.5,111.0 153.9,118.2 155.0,125.2 156.1,128.5 157.2,124.0 158.3,127.3 161.7,120.6 162.8,129.2 163.9,127.9 165.0,138.1 166.2,130.6 169.5,132.5 170.6,125.9 171.7,121.5 172.8,115.6 174.0,109.2 177.3,102.9 178.4,108.8 179.5,98.0 180.7,99.1 181.8,101.7 185.1,99.0 186.2,101.5 187.3,101.5 188.5,94.2 189.6,83.2 192.9,66.2 194.0,72.3 195.2,78.3 197.4,77.2 200.7,82.0 201.8,84.1 203.0,82.2 204.1,88.7 205.2,85.0 208.5,91.1 209.7,95.6 210.8,92.1 211.9,100.9 213.0,107.2 216.3,120.2 217.5,124.5 218.6,143.0 219.7,153.4 220.8,153.6 224.2,150.5 225.3,150.1 227.5,147.2 228.6,151.2 232.0,153.2 233.1,151.7 235.3,153.9 236.4,147.9 239.8,149.8 240.9,155.0 242.0,149.0 244.2,157.5 247.6,153.4 248.7,142.7 249.8,132.3 250.9,132.8 252.0,125.6 256.5,115.9 257.6,115.3 258.7,114.9 259.8,114.6 263.2,107.7 264.3,107.7 265.4,116.0 266.5,108.4 267.7,121.7 271.0,131.1 272.1,129.8 273.2,126.7 274.3,123.0 275.5,129.2 278.8,131.0 279.9,134.9 281.0,138.9 282.2,135.4 283.3,132.6 287.7,136.3 288.8,143.7 290.0,147.9 291.1,162.0 294.4,167.4 295.5,175.6 296.7,185.4 297.8,190.2 298.9,186.1 302.2,197.8 303.3,207.2 304.5,196.8 305.6,203.9 306.7,206.0 310.0,216.2 311.2,216.8 312.3,210.2 313.4,220.3 314.5,207.3 317.8,205.0 319.0,205.4 320.1,200.1 321.2,200.8 322.3,206.3 325.7,192.1 326.8,196.1 327.9,199.4 329.0,200.6 330.1,210.1 333.5,209.7 334.6,207.1 335.7,200.5 336.8,221.5 337.9,228.1 341.3,237.3 342.4,244.6 343.5,212.9 344.6,227.3 345.7,217.8 349.1,215.2 350.2,219.5 351.3,222.8 352.4,220.3 356.9,227.5 358.0,221.8 359.1,219.6 360.2,207.3 361.3,207.1 364.7,207.3 365.8,206.2 366.9,204.3 368.0,203.7 369.2,199.3 372.5,206.3 373.6,210.1 374.7,236.0 375.8,225.3 377.0,223.2 380.3,208.8 381.4,210.2 382.5,211.3 383.7,210.4 384.8,205.0 388.1,210.7 389.2,213.2 390.3,226.3 391.5,226.0 392.6,228.8 397.0,220.4 398.2,229.4 399.3,225.6 400.4,228.5 403.7,231.4 404.8,224.6 406.0,223.0 407.1,225.2 408.2,225.5 411.5,221.8 412.7,216.2 413.8,220.5 414.9,218.1 416.0,227.3 419.3,223.1 420.5,231.3 421.6,235.6 423.8,232.9 427.2,225.3 428.3,219.9 429.4,224.1 430.5,221.5 431.6,219.9 435.0,220.9 436.1,208.4 437.2,203.9 438.3,204.6 442.8,210.8 443.9,205.8 445.0,200.3 446.1,194.1 447.2,200.0 450.6,206.6 451.7,214.3 452.8,214.5 453.9,212.1 455.0,215.6 458.4,220.3 459.5,207.7 460.6,202.4 461.7,206.3 462.8,203.2 466.2,208.2 467.3,206.7 468.4,214.7 469.5,216.9 470.7,223.0 474.0,221.0 475.1,213.9 476.2,199.4 477.3,200.6 478.5,207.5 481.8,211.5 482.9,195.6 484.0,183.2 485.2,190.7 486.3,194.0 489.6,194.9 490.7,189.7 491.8,197.4 493.0,197.7 494.1,182.4 497.4,187.2 498.5,188.2 499.7,188.6 500.8,189.5 501.9,194.2 506.3,195.7 507.5,198.8 508.6,189.6 509.7,182.8 513.0,183.7 514.2,196.4 515.3,188.0 516.4,178.4 517.5,189.8 520.8,189.5 522.0,195.5 523.1,202.9 524.2,199.7 525.3,203.9 528.7,208.3 529.8,206.0 530.9,208.6 532.0,215.8 533.1,209.1 536.5,213.5 537.6,212.6 538.7,213.0 539.8,213.8 540.9,218.4 544.3,222.6 545.4,229.7 546.5,228.7 547.6,237.2 548.7,244.4 552.1,246.7 553.2,240.5 554.3,242.5 555.4,244.6 556.5,243.2 559.9,242.0 561.0,235.3 562.1,243.2 563.2,239.7 564.3,241.6 567.7,242.1 568.8,243.0 569.9,248.1 571.0,247.7 572.2,242.5 575.5,249.0 576.6,252.2 577.7,276.8 578.8,289.7 580.0,291.3 583.3,293.0 584.4,293.8 585.5,293.6 586.7,294.4 587.8,296.3 591.1,302.0 592.2,302.1 593.3,301.9 594.5,303.8 595.6,291.2 598.9,289.5 600.0,280.5 601.2,275.7 603.4,272.2 606.7,271.2 607.8,273.7 609.0,270.3 610.1,274.8 611.2,271.4 614.5,275.7 615.7,276.0 616.8,267.3 617.9,265.5 619.0,266.4 622.3,268.4 623.5,271.2 624.6,270.3 625.7,265.1 626.8,269.4 630.2,271.8 631.3,271.5 632.4,271.5 634.6,271.1 638.0,272.8 639.1,272.4 640.2,275.0 642.4,270.3 645.8,271.3 646.9,265.9 648.0,275.3 649.1,264.1 650.2,252.8 653.6,251.6 654.7,253.7 655.8,250.8 656.9,247.9 658.0,248.3 662.5,256.0 663.6,248.0 664.7,246.6 665.8,248.6 669.2,252.3 670.3,255.4 671.4,256.7 672.5,258.2 673.7,258.2 677.0,253.3 678.1,247.4 679.2,230.8 680.3,232.1 681.5,224.7 684.8,224.7 685.9,220.0 687.0,219.0 688.2,225.8 689.3,228.0 693.7,229.3 694.8,227.6 696.0,233.3 697.1,231.1 700.4,238.1 701.5,243.9 702.7,250.6 703.8,253.1 704.9,253.5 708.2,264.9 709.3,269.4 710.5,264.6 711.6,275.8 712.7,279.5 716.0,284.8 717.2,286.9 718.3,284.6 719.4,293.7 720.5,286.5 723.8,283.4 725.0,281.2 726.1,283.5 727.2,293.1 728.3,300.2 731.7,286.4 732.8,285.5 733.9,283.3 735.0,284.2 736.1,290.5 739.5,291.0 740.6,282.8 741.7,284.8 742.8,287.8 747.3,286.9 748.4,289.3 749.5,272.9 750.6,268.6 751.7,270.0 755.1,261.4 756.2,259.2 757.3,265.1 758.4,262.4 759.5,251.9 762.9,249.6 764.0,253.8 765.1,251.8 766.2,246.0 767.3,246.1 770.7,246.3 771.8,249.5 772.9,255.4 774.0,250.9 775.2,252.1 778.5,264.5 779.6,251.8 780.7,251.5 781.8,254.1 783.0,254.4 786.3,258.2 787.4,258.3 788.5,260.9 789.7,255.7 790.8,270.4 794.1,274.4 795.2,283.3 796.3,271.8 797.5,266.2 798.6,263.4 803.0,257.8 804.2,253.2 805.3,249.0 806.4,245.6 809.7,252.4 810.8,257.0 812.0,257.6 813.1,257.1 814.2,259.6 817.5,259.7 818.7,251.8 819.8,268.3 820.9,254.9 822.0,254.9 825.3,250.7 826.5,240.2 827.6,249.9 828.7,240.7 833.2,248.2 834.3,249.2 835.4,228.0 836.5,223.6 837.6,225.4 841.0,181.8 842.1,175.7 843.2,193.4 844.3,192.4 848.8,201.4 849.9,211.0 851.0,221.1 852.1,215.1 853.2,208.6 856.6,213.4 857.7,209.7 858.8,208.2 859.9,206.0 861.0,207.4 864.4,214.6 865.5,215.5 866.6,216.0 867.7,217.9 868.8,210.8 872.2,208.4 873.3,209.1 874.4,223.4 875.5,218.2 876.7,218.0 880.0,208.9" fill="none" stroke="#1f6feb" stroke-width="2" stroke-linejoin="round" stroke-linecap="round" vector-effect="non-scaling-stroke"/>
<polygon points="578.8,282.7 572.8,294.7 584.8,294.7" fill="#1a7f37" stroke="#fff" stroke-width="1"/>
<polygon points="181.8,108.7 175.8,96.7 187.8,96.7" fill="#cf222e" stroke="#fff" stroke-width="1"/>
<polygon points="591.1,309.0 585.1,297.0 597.1,297.0" fill="#cf222e" stroke="#fff" stroke-width="1"/>
<polygon points="848.8,208.4 842.8,196.4 854.8,196.4" fill="#cf222e" stroke="#fff" stroke-width="1"/>
</svg>
