<svg xmlns="http://www.w3.org/2000/svg" viewBox="0 0 900 360" role="img" aria-labelledby="title-PINS">
<title id="title-PINS">PINS — Pinterest, Inc. Class A Common Stock closing-price history</title>
<rect width="100%" height="100%" fill="#fff"/>
<text x="68" y="25" fill="#24292f" font-family="system-ui,sans-serif" font-size="16" font-weight="600">PINS — Pinterest, Inc. Class A Common Stock</text>
<line x1="68" y1="318.0" x2="880" y2="318.0" stroke="#eaeef2" stroke-width="1"/>
<text x="60" y="321.0" text-anchor="end" fill="#57606a" font-family="system-ui,sans-serif" font-size="11">$13.95</text>
<line x1="68" y1="251.5" x2="880" y2="251.5" stroke="#eaeef2" stroke-width="1"/>
<text x="60" y="254.5" text-anchor="end" fill="#57606a" font-family="system-ui,sans-serif" font-size="11">$20.83</text>
<line x1="68" y1="185.0" x2="880" y2="185.0" stroke="#eaeef2" stroke-width="1"/>
<text x="60" y="188.0" text-anchor="end" fill="#57606a" font-family="system-ui,sans-serif" font-size="11">$27.71</text>
<line x1="68" y1="118.5" x2="880" y2="118.5" stroke="#eaeef2" stroke-width="1"/>
<text x="60" y="121.5" text-anchor="end" fill="#57606a" font-family="system-ui,sans-serif" font-size="11">$34.59</text>
<line x1="68" y1="52.0" x2="880" y2="52.0" stroke="#eaeef2" stroke-width="1"/>
<text x="60" y="55.0" text-anchor="end" fill="#57606a" font-family="system-ui,sans-serif" font-size="11">$41.47</text>
<text x="68.0" y="342" text-anchor="middle" fill="#57606a" font-family="system-ui,sans-serif" font-size="11">Aug 2024</text>
<text x="273.0" y="342" text-anchor="middle" fill="#57606a" font-family="system-ui,sans-serif" font-size="11">Feb 2025</text>
<text x="475.7" y="342" text-anchor="middle" fill="#57606a" font-family="system-ui,sans-serif" font-size="11">Aug 2025</text>
<text x="680.6" y="342" text-anchor="middle" fill="#57606a" font-family="system-ui,sans-serif" font-size="11">Feb 2026</text>
<text x="880.0" y="342" text-anchor="middle" fill="#57606a" font-family="system-ui,sans-serif" font-size="11">Aug 2026</text>
<polyline points="68.0,145.8 69.1,146.9 70.2,138.5 71.4,143.4 72.5,140.3 75.8,146.4 77.0,148.1 78.1,150.6 79.2,151.3 80.3,143.2 84.8,150.2 85.9,154.9 87.0,155.0 88.2,170.1 91.5,168.6 92.6,171.4 93.8,170.4 94.9,169.5 96.0,173.9 99.4,173.6 100.5,169.1 101.6,163.9 102.7,157.8 103.8,159.2 107.2,158.4 108.3,146.9 109.4,142.1 110.6,136.6 111.7,138.9 115.0,140.0 116.2,136.2 117.3,131.9 118.4,136.1 119.5,131.5 122.9,137.9 124.0,134.7 125.1,125.8 126.2,126.7 127.4,122.8 130.7,124.4 131.8,127.4 133.0,130.3 134.1,134.5 135.2,132.1 138.6,133.6 139.7,144.1 140.8,148.0 141.9,145.2 143.0,140.2 146.4,141.0 147.5,139.4 148.6,137.8 149.8,145.6 150.9,143.4 154.2,140.8 155.4,136.6 156.5,126.5 157.6,124.9 158.7,170.8 162.1,159.1 163.2,156.4 164.3,163.1 165.4,169.0 166.6,179.9 169.9,172.6 171.0,165.9 172.2,170.3 173.3,169.5 174.4,162.7 177.8,157.9 178.9,153.2 180.0,159.8 182.2,159.8 185.6,158.7 186.7,149.9 187.8,140.6 189.0,147.6 190.1,140.8 193.4,133.3 194.6,145.2 195.7,144.2 196.8,154.8 197.9,156.6 201.3,160.0 202.4,153.2 203.5,164.1 204.6,166.6 205.8,167.8 209.1,168.0 210.2,163.8 212.5,163.6 213.6,167.1 217.0,171.1 218.1,172.5 220.3,157.3 221.4,153.8 224.8,139.6 225.9,145.4 227.0,154.5 229.3,156.5 232.6,158.9 233.8,164.9 234.9,156.8 236.0,159.1 237.1,157.8 241.6,142.9 242.7,147.0 243.8,135.5 245.0,134.9 248.3,129.2 249.4,134.9 250.6,131.8 251.7,134.6 252.8,134.3 256.2,133.1 257.3,130.1 258.4,131.0 259.5,128.2 260.6,66.3 264.0,69.7 265.1,70.4 266.2,74.9 267.4,75.0 268.5,77.2 273.0,72.8 274.1,78.9 275.2,70.5 276.3,88.2 279.7,95.7 280.8,99.0 281.9,96.4 283.0,103.3 284.2,95.4 287.5,109.1 288.6,112.6 289.8,103.0 290.9,119.3 292.0,121.3 295.4,146.0 296.5,149.4 297.6,131.2 298.7,152.0 299.8,144.0 303.2,142.9 304.3,150.3 305.4,147.4 306.6,149.2 307.7,139.5 311.0,123.8 312.2,118.1 313.3,134.8 314.4,141.2 315.5,148.7 318.9,153.2 320.0,153.2 321.1,149.5 322.2,186.9 323.4,203.6 326.7,207.3 327.8,214.3 329.0,180.8 330.1,199.3 331.2,197.9 334.6,203.0 335.7,201.6 336.8,206.8 337.9,208.7 342.4,218.8 343.5,214.3 344.6,205.3 345.8,203.9 346.9,200.9 350.2,199.9 351.4,198.8 352.5,208.1 353.6,206.5 354.7,193.1 358.1,187.2 359.2,192.0 360.3,188.6 361.4,183.6 362.6,170.4 365.9,135.4 367.0,134.6 368.2,134.9 369.3,141.2 370.4,138.0 373.8,143.4 374.9,141.0 376.0,141.4 377.1,146.0 378.2,154.2 382.7,148.5 383.8,149.1 385.0,152.6 386.1,152.1 389.4,144.4 390.6,132.6 391.7,126.1 392.8,126.5 393.9,122.3 397.3,122.9 398.4,113.5 399.5,117.0 400.6,124.0 401.8,125.8 405.1,112.4 406.2,119.0 407.4,116.7 409.6,122.1 413.0,124.2 414.1,107.4 415.2,111.3 416.3,113.3 417.4,105.4 420.8,106.3 421.9,108.0 423.0,107.4 424.2,108.0 428.6,108.1 429.8,107.2 430.9,106.0 432.0,106.8 433.1,110.5 436.5,105.1 437.6,99.8 438.7,104.1 439.8,104.1 441.0,94.2 444.3,85.6 445.4,84.5 446.6,87.6 447.7,88.8 448.8,86.4 452.2,80.6 453.3,82.5 454.4,82.7 455.5,79.8 456.6,87.9 460.0,75.2 461.1,77.1 462.2,74.9 463.4,74.3 464.5,113.3 467.8,122.4 469.0,116.4 470.1,107.0 471.2,101.5 472.3,107.0 475.7,103.9 476.8,112.4 477.9,109.9 479.0,115.8 480.2,108.7 483.5,109.6 484.6,104.3 485.8,103.4 486.9,98.1 488.0,98.8 492.5,97.8 493.6,94.1 494.7,94.1 495.8,86.2 499.2,86.1 500.3,100.1 501.4,111.8 502.6,114.9 503.7,114.3 507.0,102.4 508.2,102.5 509.3,100.2 510.4,102.0 511.5,106.7 514.9,111.6 516.0,112.0 517.1,133.9 518.2,129.5 519.4,128.1 522.7,130.8 523.8,141.9 525.0,145.0 526.1,144.5 527.2,144.0 530.6,143.2 531.7,149.4 532.8,145.6 533.9,144.8 535.0,159.0 538.4,140.9 539.5,132.7 540.6,130.7 541.8,137.8 542.9,139.8 546.2,134.9 547.4,126.6 548.5,134.0 549.6,129.5 550.7,124.5 554.1,112.2 555.2,132.0 556.3,135.7 557.4,138.6 558.6,132.9 561.9,127.1 563.0,134.8 564.2,203.9 565.3,198.8 566.4,191.0 569.8,191.8 570.9,188.4 572.0,188.8 573.1,194.1 574.2,195.5 577.6,206.2 578.7,203.7 579.8,206.5 581.0,213.0 582.1,211.6 585.4,213.2 586.6,206.3 587.7,205.7 589.9,200.4 593.3,193.4 594.4,192.9 595.5,187.9 596.6,189.6 597.8,194.3 601.1,190.4 602.2,190.1 603.4,184.2 604.5,193.0 605.6,201.6 609.0,203.8 610.1,203.6 611.2,202.7 612.3,199.2 613.4,200.7 616.8,197.8 617.9,201.3 619.0,200.3 621.3,200.2 624.6,202.7 625.8,201.2 626.9,202.6 629.1,196.1 632.5,196.7 633.6,191.2 634.7,187.1 635.8,193.8 637.0,190.5 640.3,193.6 641.4,186.4 642.6,191.2 643.7,193.9 644.8,202.4 649.3,207.4 650.4,211.3 651.5,204.9 652.6,202.4 656.0,202.5 657.1,226.5 658.2,234.8 659.4,236.8 660.5,238.9 663.8,240.2 665.0,252.1 666.1,260.8 667.2,266.1 668.3,263.4 671.7,258.1 672.8,256.3 673.9,268.3 675.0,273.6 676.2,303.8 680.6,302.9 681.8,294.5 682.9,290.7 684.0,281.0 687.4,291.5 688.5,289.0 689.6,283.0 690.7,280.7 691.8,287.2 695.2,283.8 696.3,268.2 697.4,265.5 698.6,261.9 699.7,259.4 703.0,262.9 704.2,265.6 705.3,265.5 706.4,278.0 707.5,277.1 710.9,276.2 712.0,273.4 713.1,271.4 714.2,272.4 715.4,272.3 718.7,269.9 719.8,275.1 721.0,272.3 722.1,279.2 723.2,281.1 726.6,278.7 727.7,275.5 728.8,276.0 729.9,277.1 734.4,276.4 735.5,276.9 736.6,277.9 737.8,279.4 738.9,282.5 742.2,278.6 743.4,272.1 744.5,256.9 745.6,258.3 746.7,258.3 750.1,253.3 751.2,253.5 752.3,253.5 753.4,261.5 754.6,260.3 757.9,256.3 759.0,260.7 760.2,262.1 761.3,262.8 762.4,257.4 765.8,251.3 766.9,237.5 768.0,248.3 769.1,244.5 770.2,247.2 773.6,252.2 774.7,254.1 775.8,265.8 777.0,268.9 778.1,264.6 781.4,260.2 782.6,270.7 783.7,271.0 784.8,270.6 785.9,266.4 790.4,266.0 791.5,259.2 792.6,253.2 793.8,259.0 797.1,246.5 798.2,251.1 799.4,253.0 800.5,244.1 801.6,245.8 805.0,240.3 806.1,240.9 807.2,242.4 808.3,245.0 809.4,257.5 812.8,246.6 813.9,248.3 815.0,256.0 816.2,256.9 820.6,264.3 821.8,264.0 822.9,260.8 824.0,264.5 825.1,251.6 828.5,241.3 829.6,249.5 830.7,241.2 831.8,239.5 836.3,237.8 837.4,236.1 838.6,235.1 839.7,233.4 840.8,235.1 844.2,234.4 845.3,234.3 846.4,223.9 847.5,229.6 848.6,228.6 852.0,232.3 853.1,232.2 854.2,235.0 855.4,241.2 856.5,238.9 859.8,225.7 861.0,217.4 862.1,216.6 863.2,216.7 864.3,220.8 867.7,219.3 868.8,205.6 869.9,227.0 871.0,227.3 872.2,223.9 875.5,217.3 876.6,223.3 877.8,231.5 878.9,227.4 880.0,220.3" fill="none" stroke="#1f6feb" stroke-width="2" stroke-linejoin="round" stroke-linecap="round" vector-effect="non-scaling-stroke"/>
<polygon points="158.7,163.8 152.7,175.8 164.7,175.8" fill="#1a7f37" stroke="#fff" stroke-width="1"/>
<polygon points="189.0,140.6 183.0,152.6 195.0,152.6" fill="#1a7f37" stroke="#fff" stroke-width="1"/>
<polygon points="227.0,147.5 221.0,159.5 233.0,159.5" fill="#1a7f37" stroke="#fff" stroke-width="1"/>
<polygon points="330.1,192.3 324.1,204.3 336.1,204.3" fill="#1a7f37" stroke="#fff" stroke-width="1"/>
<polygon points="365.9,128.4 359.9,140.4 371.9,140.4" fill="#1a7f37" stroke="#fff" stroke-width="1"/>
<polygon points="500.3,93.1 494.3,105.1 506.3,105.1" fill="#1a7f37" stroke="#fff" stroke-width="1"/>
<polygon points="601.1,183.4 595.1,195.4 607.1,195.4" fill="#1a7f37" stroke="#fff" stroke-width="1"/>
<polygon points="641.4,179.4 635.4,191.4 647.4,191.4" fill="#1a7f37" stroke="#fff" stroke-width="1"/>
<polygon points="290.9,126.3 284.9,114.3 296.9,114.3" fill="#cf222e" stroke="#fff" stroke-width="1"/>
<polygon points="430.9,113.0 424.9,101.0 436.9,101.0" fill="#cf222e" stroke="#fff" stroke-width="1"/>
<polygon points="641.4,193.4 635.4,181.4 647.4,181.4" fill="#cf222e" stroke="#fff" stroke-width="1"/>
<polygon points="797.1,253.5 791.1,241.5 803.1,241.5" fill="#cf222e" stroke="#fff" stroke-width="1"/>
<polygon points="872.2,230.9 866.2,218.9 878.2,218.9" fill="#cf222e" stroke="#fff" stroke-width="1"/>
</svg>
