<svg xmlns="http://www.w3.org/2000/svg" viewBox="0 0 900 360" role="img" aria-labelledby="title-UAL">
<title id="title-UAL">UAL — United Airlines Holdings, Inc. Common Stock closing-price history</title>
<rect width="100%" height="100%" fill="#fff"/>
<text x="68" y="25" fill="#24292f" font-family="system-ui,sans-serif" font-size="16" font-weight="600">UAL — United Airlines Holdings, Inc. Common Stock</text>
<line x1="68" y1="318.0" x2="880" y2="318.0" stroke="#eaeef2" stroke-width="1"/>
<text x="60" y="321.0" text-anchor="end" fill="#57606a" font-family="system-ui,sans-serif" font-size="11">$35.64</text>
<line x1="68" y1="251.5" x2="880" y2="251.5" stroke="#eaeef2" stroke-width="1"/>
<text x="60" y="254.5" text-anchor="end" fill="#57606a" font-family="system-ui,sans-serif" font-size="11">$62.18</text>
<line x1="68" y1="185.0" x2="880" y2="185.0" stroke="#eaeef2" stroke-width="1"/>
<text x="60" y="188.0" text-anchor="end" fill="#57606a" font-family="system-ui,sans-serif" font-size="11">$88.72</text>
<line x1="68" y1="118.5" x2="880" y2="118.5" stroke="#eaeef2" stroke-width="1"/>
<text x="60" y="121.5" text-anchor="end" fill="#57606a" font-family="system-ui,sans-serif" font-size="11">$115</text>
<line x1="68" y1="52.0" x2="880" y2="52.0" stroke="#eaeef2" stroke-width="1"/>
<text x="60" y="55.0" text-anchor="end" fill="#57606a" font-family="system-ui,sans-serif" font-size="11">$142</text>
<text x="68.0" y="342" text-anchor="middle" fill="#57606a" font-family="system-ui,sans-serif" font-size="11">Aug 2024</text>
<text x="273.0" y="342" text-anchor="middle" fill="#57606a" font-family="system-ui,sans-serif" font-size="11">Feb 2025</text>
<text x="475.7" y="342" text-anchor="middle" fill="#57606a" font-family="system-ui,sans-serif" font-size="11">Aug 2025</text>
<text x="680.6" y="342" text-anchor="middle" fill="#57606a" font-family="system-ui,sans-serif" font-size="11">Feb 2026</text>
<text x="880.0" y="342" text-anchor="middle" fill="#57606a" font-family="system-ui,sans-serif" font-size="11">Aug 2026</text>
<polyline points="68.0,301.2 69.1,302.7 70.2,302.1 71.4,303.5 72.5,298.8 75.8,300.1 77.0,301.7 78.1,303.8 79.2,300.5 80.3,297.0 84.8,297.4 85.9,296.6 87.0,294.3 88.2,292.0 91.5,285.2 92.6,286.0 93.8,285.9 94.9,282.9 96.0,281.5 99.4,278.7 100.5,275.4 101.6,274.6 102.7,275.5 103.8,276.6 107.2,276.1 108.3,272.9 109.4,271.7 110.6,259.8 111.7,262.0 115.0,264.3 116.2,266.7 117.3,267.6 118.4,267.9 119.5,258.9 122.9,259.0 124.0,256.9 125.1,258.4 126.2,256.3 127.4,252.5 130.7,248.1 131.8,246.8 133.0,226.9 134.1,223.6 135.2,221.5 138.6,221.9 139.7,220.7 140.8,223.3 141.9,220.6 143.0,220.3 146.4,216.6 147.5,214.5 148.6,205.8 149.8,211.2 150.9,205.7 154.2,213.7 155.4,206.8 156.5,187.9 157.6,193.2 158.7,188.0 162.1,183.2 163.2,184.0 164.3,182.3 165.4,178.9 166.6,178.9 169.9,180.8 171.0,171.1 172.2,170.2 173.3,170.8 174.4,168.7 177.8,164.7 178.9,165.5 180.0,165.9 182.2,164.7 185.6,163.1 186.7,167.3 187.8,158.6 189.0,150.6 190.1,156.0 193.4,166.7 194.6,165.4 195.7,159.3 196.8,166.8 197.9,169.0 201.3,168.1 202.4,169.3 203.5,178.1 204.6,167.9 205.8,163.2 209.1,158.0 210.2,153.8 212.5,154.6 213.6,157.6 217.0,161.2 218.1,164.0 220.3,168.2 221.4,167.6 224.8,160.3 225.9,153.7 227.0,147.4 229.3,138.9 232.6,144.9 233.8,137.5 234.9,144.3 236.0,141.4 237.1,138.2 241.6,130.4 242.7,136.8 243.8,149.2 245.0,144.2 248.3,139.8 249.4,140.8 250.6,136.0 251.7,133.2 252.8,142.1 256.2,144.6 257.3,135.0 258.4,137.1 259.5,133.8 260.6,134.2 264.0,141.5 265.1,148.4 266.2,146.3 267.4,154.5 268.5,146.1 273.0,148.6 274.1,140.4 275.2,150.5 276.3,167.0 279.7,162.3 280.8,165.3 281.9,163.2 283.0,176.4 284.2,172.2 287.5,177.6 288.6,191.3 289.8,178.6 290.9,191.1 292.0,199.6 295.4,212.8 296.5,216.7 297.6,225.7 298.7,232.2 299.8,222.7 303.2,222.1 304.3,228.6 305.4,220.8 306.6,221.8 307.7,219.7 311.0,206.3 312.2,209.6 313.3,212.2 314.4,223.1 315.5,231.3 318.9,234.3 320.0,236.4 321.1,228.5 322.2,256.4 323.4,262.8 326.7,260.0 327.8,266.6 329.0,229.8 330.1,250.1 331.2,242.9 334.6,242.7 335.7,239.4 336.8,239.5 337.9,241.2 342.4,243.7 343.5,239.5 344.6,236.8 345.8,234.3 346.9,236.4 350.2,234.8 351.4,234.6 352.5,234.9 353.6,234.0 354.7,221.7 358.1,219.7 359.2,223.1 360.3,218.5 361.4,208.3 362.6,213.7 365.9,210.3 367.0,200.3 368.2,209.4 369.3,215.5 370.4,212.0 373.8,210.3 374.9,216.0 376.0,223.6 377.1,216.9 378.2,220.3 382.7,211.4 383.8,213.1 385.0,210.4 386.1,208.2 389.4,203.8 390.6,204.1 391.7,202.8 392.8,206.0 393.9,196.3 397.3,198.2 398.4,198.8 399.5,210.3 400.6,213.3 401.8,221.9 405.1,210.6 406.2,222.7 407.4,221.1 409.6,221.2 413.0,214.4 414.1,209.3 415.2,215.0 416.3,213.0 417.4,208.9 420.8,207.8 421.9,206.7 423.0,204.3 424.2,200.9 428.6,204.1 429.8,203.8 430.9,206.4 432.0,177.6 433.1,187.6 436.5,184.4 437.6,190.9 438.7,185.6 439.8,178.7 441.0,176.2 444.3,175.9 445.4,179.8 446.6,180.7 447.7,182.5 448.8,179.0 452.2,175.7 453.3,180.2 454.4,181.2 455.5,186.0 456.6,195.4 460.0,189.3 461.1,187.7 462.2,184.6 463.4,186.9 464.5,183.6 467.8,183.5 469.0,160.6 470.1,157.3 471.2,158.9 472.3,154.4 475.7,150.8 476.8,151.2 477.9,157.1 479.0,163.8 480.2,149.3 483.5,150.9 484.6,146.4 485.8,146.2 486.9,144.0 488.0,144.2 492.5,145.0 493.6,141.3 494.7,141.6 495.8,140.2 499.2,137.3 500.3,142.6 501.4,137.9 502.6,133.3 503.7,140.2 507.0,145.3 508.2,146.2 509.3,142.9 510.4,143.3 511.5,140.9 514.9,146.3 516.0,146.4 517.1,153.3 518.2,158.9 519.4,162.0 522.7,160.1 523.8,165.5 525.0,173.9 526.1,169.7 527.2,168.4 530.6,164.1 531.7,165.1 532.8,161.5 533.9,153.4 535.0,165.1 538.4,158.6 539.5,148.8 540.6,146.6 541.8,161.3 542.9,158.9 546.2,153.5 547.4,156.5 548.5,166.1 549.6,167.6 550.7,158.5 554.1,159.7 555.2,169.4 556.3,166.9 557.4,173.3 558.6,171.7 561.9,166.5 563.0,179.9 564.2,165.1 565.3,167.5 566.4,163.2 569.8,166.4 570.9,169.4 572.0,156.8 573.1,163.8 574.2,169.2 577.6,181.9 578.7,177.0 579.8,178.5 581.0,181.7 582.1,176.3 585.4,167.7 586.6,159.5 587.7,152.8 589.9,151.8 593.3,153.9 594.4,145.8 595.5,135.5 596.6,144.9 597.8,144.3 601.1,145.5 602.2,142.5 603.4,137.3 604.5,135.7 605.6,139.6 609.0,137.4 610.1,125.5 611.2,131.0 612.3,124.5 613.4,121.7 616.8,116.6 617.9,122.8 619.0,119.6 621.3,121.6 624.6,128.0 625.8,127.9 626.9,127.1 629.1,124.1 632.5,119.4 633.6,112.8 634.7,115.1 635.8,118.0 637.0,113.3 640.3,118.4 641.4,120.6 642.6,129.8 643.7,116.6 644.8,122.9 649.3,135.3 650.4,129.3 651.5,130.7 652.6,137.3 656.0,137.3 657.1,146.6 658.2,144.4 659.4,146.9 660.5,150.9 663.8,138.3 665.0,129.5 666.1,133.0 667.2,141.5 668.3,116.9 671.7,116.1 672.8,115.7 673.9,121.8 675.0,133.4 676.2,133.5 680.6,121.6 681.8,114.3 682.9,131.6 684.0,124.1 687.4,138.8 688.5,125.2 689.6,124.5 690.7,115.6 691.8,140.9 695.2,148.7 696.3,150.4 697.4,155.5 698.6,168.2 699.7,176.6 703.0,170.5 704.2,179.0 705.3,180.1 706.4,190.5 707.5,190.3 710.9,181.1 712.0,173.8 713.1,175.5 714.2,171.4 715.4,181.9 718.7,171.9 719.8,172.9 721.0,174.4 722.1,175.1 723.2,185.7 726.6,193.8 727.7,176.6 728.8,169.1 729.9,176.3 734.4,179.4 735.5,183.6 736.6,166.0 737.8,162.6 738.9,165.8 742.2,168.8 743.4,163.8 744.5,171.1 745.6,169.2 746.7,152.2 750.1,159.5 751.2,163.9 752.3,177.5 753.4,178.7 754.6,174.3 757.9,177.0 759.0,180.8 760.2,185.3 761.3,181.8 762.4,175.5 765.8,181.6 766.9,172.6 768.0,156.6 769.1,157.5 770.2,157.8 773.6,165.2 774.7,167.2 775.8,167.5 777.0,166.7 778.1,174.7 781.4,175.4 782.6,184.0 783.7,161.7 784.8,157.6 785.9,156.8 790.4,141.9 791.5,125.1 792.6,119.0 793.8,119.6 797.1,127.3 798.2,134.6 799.4,143.9 800.5,144.4 801.6,142.4 805.0,143.4 806.1,132.6 807.2,149.8 808.3,125.1 809.4,117.8 812.8,106.7 813.9,110.4 815.0,117.1 816.2,110.8 820.6,109.9 821.8,102.7 822.9,80.2 824.0,70.0 825.1,66.3 828.5,68.6 829.6,66.6 830.7,68.7 831.8,73.2 836.3,75.3 837.4,85.8 838.6,91.0 839.7,83.9 840.8,91.6 844.2,103.7 845.3,105.7 846.4,104.2 847.5,109.6 848.6,118.1 852.0,112.8 853.1,112.4 854.2,113.5 855.4,118.3 856.5,111.0 859.8,105.2 861.0,97.2 862.1,108.1 863.2,97.7 864.3,103.3 867.7,85.6 868.8,75.0 869.9,74.6 871.0,83.8 872.2,82.7 875.5,97.2 876.6,90.8 877.8,93.8 878.9,90.7 880.0,93.2" fill="none" stroke="#1f6feb" stroke-width="2" stroke-linejoin="round" stroke-linecap="round" vector-effect="non-scaling-stroke"/>
<polygon points="365.9,203.3 359.9,215.3 371.9,215.3" fill="#1a7f37" stroke="#fff" stroke-width="1"/>
<polygon points="640.3,111.4 634.3,123.4 646.3,123.4" fill="#1a7f37" stroke="#fff" stroke-width="1"/>
<polygon points="668.3,109.9 662.3,121.9 674.3,121.9" fill="#1a7f37" stroke="#fff" stroke-width="1"/>
<polygon points="703.0,177.5 697.0,165.5 709.0,165.5" fill="#cf222e" stroke="#fff" stroke-width="1"/>
<polygon points="806.1,139.6 800.1,127.6 812.1,127.6" fill="#cf222e" stroke="#fff" stroke-width="1"/>
</svg>
