<svg xmlns="http://www.w3.org/2000/svg" viewBox="0 0 900 360" role="img" aria-labelledby="title-VOYG">
<title id="title-VOYG">VOYG — Voyager Technologies, Inc. closing-price history</title>
<rect width="100%" height="100%" fill="#fff"/>
<text x="68" y="25" fill="#24292f" font-family="system-ui,sans-serif" font-size="16" font-weight="600">VOYG — Voyager Technologies, Inc.</text>
<line x1="68" y1="318.0" x2="880" y2="318.0" stroke="#eaeef2" stroke-width="1"/>
<text x="60" y="321.0" text-anchor="end" fill="#57606a" font-family="system-ui,sans-serif" font-size="11">$15.68</text>
<line x1="68" y1="251.5" x2="880" y2="251.5" stroke="#eaeef2" stroke-width="1"/>
<text x="60" y="254.5" text-anchor="end" fill="#57606a" font-family="system-ui,sans-serif" font-size="11">$26.46</text>
<line x1="68" y1="185.0" x2="880" y2="185.0" stroke="#eaeef2" stroke-width="1"/>
<text x="60" y="188.0" text-anchor="end" fill="#57606a" font-family="system-ui,sans-serif" font-size="11">$37.23</text>
<line x1="68" y1="118.5" x2="880" y2="118.5" stroke="#eaeef2" stroke-width="1"/>
<text x="60" y="121.5" text-anchor="end" fill="#57606a" font-family="system-ui,sans-serif" font-size="11">$48.01</text>
<line x1="68" y1="52.0" x2="880" y2="52.0" stroke="#eaeef2" stroke-width="1"/>
<text x="60" y="55.0" text-anchor="end" fill="#57606a" font-family="system-ui,sans-serif" font-size="11">$58.79</text>
<text x="68.0" y="342" text-anchor="middle" fill="#57606a" font-family="system-ui,sans-serif" font-size="11">Jun 2025</text>
<text x="271.0" y="342" text-anchor="middle" fill="#57606a" font-family="system-ui,sans-serif" font-size="11">Sep 2025</text>
<text x="472.0" y="342" text-anchor="middle" fill="#57606a" font-family="system-ui,sans-serif" font-size="11">Jan 2026</text>
<text x="677.0" y="342" text-anchor="middle" fill="#57606a" font-family="system-ui,sans-serif" font-size="11">Apr 2026</text>
<text x="880.0" y="342" text-anchor="middle" fill="#57606a" font-family="system-ui,sans-serif" font-size="11">Jul 2026</text>
<polyline points="68.0,66.2 70.0,109.3 71.9,79.3 77.9,77.9 79.8,109.2 81.8,106.2 85.7,138.9 91.7,149.2 93.6,143.6 95.6,146.2 97.6,112.7 99.5,155.8 105.4,172.6 107.4,167.1 109.4,167.9 111.4,153.4 119.2,174.1 121.2,154.7 123.2,159.6 125.2,153.6 127.1,156.7 133.0,167.8 135.0,164.5 137.0,151.2 139.0,128.7 140.9,142.9 146.8,147.1 148.8,145.5 150.8,150.5 152.7,151.1 154.7,153.6 160.6,162.9 162.6,175.2 164.6,161.9 166.5,167.8 168.5,172.9 174.4,167.4 176.4,204.0 178.4,196.3 180.3,198.9 182.3,224.7 188.2,233.3 190.2,230.3 192.2,222.9 194.1,225.9 196.1,234.0 202.0,210.0 204.0,230.9 206.0,228.5 207.9,226.0 209.9,224.9 215.8,228.2 217.8,220.8 219.8,217.5 221.7,223.2 223.7,225.4 231.6,229.1 233.6,237.7 235.5,244.2 237.5,233.2 243.4,233.2 245.4,238.3 247.3,239.6 249.3,229.6 251.3,232.1 257.2,227.8 259.2,238.0 261.1,237.5 263.1,231.1 265.1,236.0 271.0,213.2 273.0,218.2 274.9,226.6 276.9,234.1 278.9,234.6 284.8,234.4 286.8,231.0 288.7,231.2 290.7,217.0 292.7,219.2 298.6,195.0 300.6,207.4 302.5,194.5 304.5,206.5 306.5,223.2 312.4,212.7 314.4,197.1 316.3,187.7 318.3,203.1 320.3,218.6 326.2,199.9 328.2,210.1 330.1,222.6 332.1,216.3 334.1,209.0 340.0,209.6 342.0,217.3 343.9,225.1 345.9,228.2 347.9,226.1 353.8,237.9 355.7,242.9 357.7,252.5 359.7,267.7 361.7,270.1 367.6,266.5 369.5,266.7 371.5,273.8 373.5,285.7 375.5,292.1 381.4,303.1 383.3,300.5 385.3,303.8 387.3,302.3 389.3,291.7 395.2,286.0 397.1,285.5 399.1,279.0 403.0,276.0 409.0,281.6 410.9,280.8 412.9,278.2 414.9,269.7 416.8,268.2 422.8,264.3 424.7,258.0 426.7,245.6 428.7,239.9 430.6,251.1 436.6,262.2 438.5,265.2 440.5,273.0 442.5,266.9 444.4,248.4 450.3,239.8 452.3,239.5 454.3,239.8 458.2,246.4 464.1,246.3 466.1,252.5 468.1,253.5 472.0,243.3 477.9,239.0 479.9,233.9 481.9,233.0 483.9,219.0 485.8,221.4 491.7,213.5 493.7,222.0 495.7,202.9 497.7,210.2 499.6,196.4 507.5,211.9 509.5,214.9 511.4,201.4 513.4,185.9 519.3,209.5 521.3,198.4 523.3,199.0 525.2,210.7 527.2,226.4 533.1,235.4 535.1,230.3 537.1,244.1 539.0,265.6 541.0,249.0 546.9,235.5 548.9,246.4 550.9,252.4 552.8,256.9 554.8,254.1 562.7,249.9 564.7,246.3 566.6,238.3 568.6,245.6 574.5,249.3 576.5,244.8 578.5,244.4 580.4,237.9 582.4,250.1 588.3,241.3 590.3,241.1 592.3,235.4 594.2,242.5 596.2,249.9 602.1,250.4 604.1,239.9 606.0,245.6 608.0,253.8 610.0,248.0 615.9,245.4 617.9,235.6 619.8,243.1 621.8,247.2 623.8,257.3 629.7,242.3 631.7,260.0 633.6,256.1 635.6,267.8 637.6,274.1 643.5,279.4 645.5,270.4 647.4,268.1 649.4,249.3 657.3,243.2 659.3,246.4 661.2,241.3 663.2,232.4 665.2,231.0 671.1,229.3 673.1,228.8 675.0,230.2 677.0,214.0 679.0,221.6 684.9,219.9 686.9,222.9 688.8,218.5 690.8,228.9 692.8,237.8 698.7,246.7 700.7,250.5 702.6,256.7 704.6,251.8 706.6,250.6 712.5,257.0 714.4,251.9 716.4,250.4 718.4,256.7 720.4,231.2 726.3,224.6 728.2,234.6 730.2,207.4 732.2,191.2 734.2,202.2 740.1,177.9 742.0,182.9 744.0,168.4 746.0,167.3 748.0,139.3 755.8,128.2 757.8,114.9 759.8,95.3 761.7,109.1 767.7,121.7 769.6,106.5 771.6,137.3 773.6,120.4 775.5,158.4 781.5,153.0 783.4,171.2 785.4,160.0 787.4,119.4 789.3,160.8 795.3,166.0 797.2,181.2 799.2,176.9 801.2,182.9 809.0,201.4 811.0,207.4 813.0,227.4 815.0,233.8 816.9,234.2 822.8,228.5 824.8,215.8 826.8,206.1 828.8,203.6 836.6,205.6 838.6,218.0 840.6,204.4 842.6,213.4 844.5,222.5 850.4,231.7 852.4,231.0 854.4,250.6 856.3,260.3 858.3,254.9 864.2,260.7 866.2,248.5 868.2,251.9 870.1,252.0 872.1,259.0 878.0,252.8 880.0,256.5" fill="none" stroke="#1f6feb" stroke-width="2" stroke-linejoin="round" stroke-linecap="round" vector-effect="non-scaling-stroke"/>
<polygon points="720.4,224.2 714.4,236.2 726.4,236.2" fill="#1a7f37" stroke="#fff" stroke-width="1"/>
<polygon points="838.6,211.0 832.6,223.0 844.6,223.0" fill="#1a7f37" stroke="#fff" stroke-width="1"/>
</svg>
